<?xml version="1.0" encoding="iso-8859-1"?>
<!-- Generator: Adobe Illustrator 18.1.1, SVG Export Plug-In . SVG Version: 6.00 Build 0)  -->
<svg xmlns="http://www.w3.org/2000/svg" xmlns:xlink="http://www.w3.org/1999/xlink" version="1.1" id="Capa_1" x="0px" y="0px" viewBox="0 0 30.511 30.511" style="enable-background:new 0 0 30.511 30.511;" xml:space="preserve" width="512px" height="512px">
<g>
	<path d="M13.226,22.843c0-0.695-0.563-1.258-1.257-1.258c-0.695,0-1.259,0.562-1.259,1.258   c0,0.694,0.564,1.258,1.259,1.258C12.663,24.101,13.226,23.537,13.226,22.843z M12.227,23.645c-0.357,0-0.646-0.29-0.646-0.646   c0-0.356,0.289-0.646,0.646-0.646c0.355,0,0.645,0.29,0.645,0.646C12.872,23.354,12.582,23.645,12.227,23.645z M17.178,22.843   c0,0.694,0.562,1.258,1.256,1.258c0.695,0,1.259-0.563,1.259-1.258s-0.564-1.258-1.259-1.258   C17.74,21.585,17.178,22.147,17.178,22.843z M18.821,22.999c0,0.355-0.29,0.646-0.644,0.646c-0.358,0-0.646-0.29-0.646-0.646   c0-0.356,0.288-0.646,0.646-0.646C18.531,22.353,18.821,22.643,18.821,22.999z M17.857,26.031H12.42   C15.225,28.92,17.857,26.031,17.857,26.031z M9.837,3.313c0.625,0,1.131,0.455,1.131,1.016s-0.506,1.016-1.131,1.016   S8.706,4.89,8.706,4.329S9.212,3.313,9.837,3.313z M14.999,0c1.07,0,1.937,0.78,1.937,1.743s-0.867,1.743-1.937,1.743   s-1.937-0.78-1.937-1.743S13.929,0,14.999,0z M20.59,5.403c0.626,0,1.13-0.456,1.13-1.015c0-0.562-0.504-1.02-1.13-1.02   c-0.624,0-1.129,0.457-1.129,1.02C19.46,4.947,19.966,5.403,20.59,5.403z M24.925,2.267c1.07,0,1.937,0.78,1.937,1.743   s-0.867,1.743-1.937,1.743s-1.937-0.78-1.937-1.743S23.855,2.267,24.925,2.267z M7.523,4.074c0-0.966-0.866-1.744-1.94-1.744   c-1.066,0-1.935,0.778-1.935,1.744c0,0.961,0.869,1.742,1.935,1.742C6.657,5.816,7.523,5.035,7.523,4.074z M24.295,6.774   c0,0-0.178-0.818-0.971-0.818c-0.166,0-0.357,0.035-0.582,0.121L20.09,8.463l0.224-2.433c0,0-0.185-0.277-0.462-0.277   c-0.113,0-0.242,0.046-0.379,0.173l-1.606,2.053l-2.094-3.296c0,0-0.257-0.262-0.716-0.262c-0.229,0-0.509,0.067-0.834,0.262   L12.18,7.899l-1.383-1.973c0,0-0.151-0.239-0.38-0.239c-0.121,0-0.264,0.069-0.419,0.274l0.146,2.652L7.528,6.077   c0,0-0.167-0.067-0.386-0.067c-0.263,0-0.597,0.098-0.809,0.525l1.235,6.799c-1.297,1.557-2.072,3.643-2.072,6.201   c0,6.051,4.325,10.976,9.641,10.976c5.318,0,9.646-4.925,9.646-10.976c0-2.608-0.805-4.727-2.148-6.291   C22.635,13.244,24.295,6.774,24.295,6.774z M10.144,10.59c0.276,0,0.556-0.06,0.819-0.178c0.3-0.139,0.554-0.344,0.747-0.596   c0.152,0.036,0.309,0.057,0.47,0.057c0.015,0,0.03,0,0.046,0c0.659-0.016,1.267-0.359,1.621-0.918l1.15-1.809l1.202,1.892   c0.345,0.542,0.93,0.882,1.57,0.914c0.033,0,0.065,0.002,0.098,0.002c0.266,0,0.527-0.054,0.768-0.156   c0.16,0.174,0.352,0.319,0.569,0.43c0.281,0.143,0.584,0.211,0.886,0.211c0.476,0,0.95-0.174,1.32-0.508l0.048-0.041l-0.481,1.872   c-1.622-1.107-3.646-1.688-5.839-1.688c-2.196,0-4.222,0.584-5.846,1.695l-0.28-1.535C9.347,10.468,9.744,10.59,10.144,10.59z    M15.137,29.021c-4.6,0-8.331-4.247-8.331-9.485h2.876l3.776-2.807l-1.51,2.832c0,0,7.476,1.556,11.525-0.025   C23.473,24.773,19.742,29.021,15.137,29.021z" fill="#0093cf"/>
</g>
<g>
</g>
<g>
</g>
<g>
</g>
<g>
</g>
<g>
</g>
<g>
</g>
<g>
</g>
<g>
</g>
<g>
</g>
<g>
</g>
<g>
</g>
<g>
</g>
<g>
</g>
<g>
</g>
<g>
</g>
</svg>
