<svg xmlns="http://www.w3.org/2000/svg">
<defs>
<font id="DKJohnBrown" horiz-adv-x="453" >
  <font-face 
    font-family="DK John Brown"
    font-weight="400"
    font-stretch="normal"
    units-per-em="1000"
    panose-1="2 0 0 0 0 0 0 0 0 0"
    ascent="800"
    descent="-200"
    x-height="772"
    cap-height="740"
    bbox="-29 -155 841 994"
    underline-thickness="50"
    underline-position="-50"
    unicode-range="U+0020-U+20AC"
  />
<missing-glyph horiz-adv-x="871" 
d="M58 28v30q-3 0 -8.5 -0.5t-6.5 -0.5q-5 0 -6.5 3.5t-1.5 16.5l6 66q4 25 12 34t30 14t35 11q0 1 5 6l65 141l-5 1h-6q-9 0 -26 -3t-28 -3q-39 0 -66 18t-27 54q0 31 15.5 52.5t42.5 32t52.5 14.5t54.5 4t86.5 -12.5t88.5 -12.5q42 0 52 18q-32 16 -103 22v5q1 1 11 12
q-12 -7 -29 -7q0 15 25 26.5t41 11.5h7q45 0 70 -5q16 -19 27 -21q0 -2 0.5 -10t0.5 -9q0 -60 -55 -73q-4 0 -22 -1t-21 -1q-28 0 -80 6.5t-79 6.5h-4q-121 0 -121 -41q0 -17 22 -20h41q57 0 166.5 10.5t162.5 11.5l15 16q-1 1 -5 6t-5 6l-2 7h25q4 4 4 8q-1 1 -8.5 3.5
t-8.5 2.5v4q0 7 9 17.5t9 15.5q0 1 -1 4v3l-43 75q-17 33 -30 33q-27 0 -70 -19t-72 -19q-23 0 -46 11t-26 11q-16 -5 -44 -33h-16l-44 6q-1 1 -1 3q0 18 40 37.5t60 19.5q31 0 73 -24l3 -2l4 -2l12 -5l25 19l-83 46q-7 0 -20 -3t-21 -3q-1 0 -10.5 0.5t-11.5 0.5q-1 0 -3 2
t-2 3l-1 3q0 13 32 21.5t50 8.5q39 0 50 -16h-5q-2 0 -12 3l-10 2h-12q12 -8 36.5 -21.5t35.5 -22.5l5 12q-6 1 -27 15l-6 6h32q0 3 -2 9l-2 7q0 2 5 8l10.5 12.5t6.5 7.5v5l-4 2q-3 3 -5 4l-3 -1l-10 -11q-11 -10 -14 -11q-4 0 -7 3.5t-7 3.5q-3 0 -10 -3.5t-12 -3.5l-5 5
q0 14 18.5 28.5t29.5 15.5q-1 1 -6 4.5t-6 5t-4 4.5t-4 6.5t-1 7.5t4.5 10t4.5 12q-5 0 -11.5 3.5t-7.5 6.5q-1 1 -1 6q0 17 6 21h5q22 -5 22 -12q0 -3 -3 -8.5t-3 -6.5l27 -3q0 -35 12 -40h5q3 3 11.5 10t12 9t11 4.5t16.5 2.5t9 -11v-4l-39 -38l12 -5q4 -1 19 -2.5t32 -3
t19 -1.5t6.5 -1t7.5 -3l3 -1v-27l-33 -70v-6l65 -97h5q0 5 -2.5 13t-2.5 13v5q20 20 24 22v55h23q0 16 -2.5 44.5t-2.5 43.5l4 -1h4q0 -2 12 -6l3 1l22 22q4 2 7.5 2.5t5.5 0.5t3 1.5t1 5.5q0 12 -17 22q3 1 8.5 6.5l10.5 10.5l5 5l4 -1l10 -16q1 0 5.5 -2.5t5.5 -5.5

<glyph glyph-name=".notdef" horiz-adv-x="871" 
d="M58 28v30q-3 0 -8.5 -0.5t-6.5 -0.5q-5 0 -6.5 3.5t-1.5 16.5l6 66q4 25 12 34t30 14t35 11q0 1 5 6l65 141l-5 1h-6q-9 0 -26 -3t-28 -3q-39 0 -66 18t-27 54q0 31 15.5 52.5t42.5 32t52.5 14.5t54.5 4t86.5 -12.5t88.5 -12.5q42 0 52 18q-32 16 -103 22v5q1 1 11 12
q-12 -7 -29 -7q0 15 25 26.5t41 11.5h7q45 0 70 -5q16 -19 27 -21q0 -2 0.5 -10t0.5 -9q0 -60 -55 -73q-4 0 -22 -1t-21 -1q-28 0 -80 6.5t-79 6.5h-4q-121 0 -121 -41q0 -17 22 -20h41q57 0 166.5 10.5t162.5 11.5l15 16q-1 1 -5 6t-5 6l-2 7h25q4 4 4 8q-1 1 -8.5 3.5
t-8.5 2.5v4q0 7 9 17.5t9 15.5q0 1 -1 4v3l-43 75q-17 33 -30 33q-27 0 -70 -19t-72 -19q-23 0 -46 11t-26 11q-16 -5 -44 -33h-16l-44 6q-1 1 -1 3q0 18 40 37.5t60 19.5q31 0 73 -24l3 -2l4 -2l12 -5l25 19l-83 46q-7 0 -20 -3t-21 -3q-1 0 -10.5 0.5t-11.5 0.5q-1 0 -3 2
t-2 3l-1 3q0 13 32 21.5t50 8.5q39 0 50 -16h-5q-2 0 -12 3l-10 2h-12q12 -8 36.5 -21.5t35.5 -22.5l5 12q-6 1 -27 15l-6 6h32q0 3 -2 9l-2 7q0 2 5 8l10.5 12.5t6.5 7.5v5l-4 2q-3 3 -5 4l-3 -1l-10 -11q-11 -10 -14 -11q-4 0 -7 3.5t-7 3.5q-3 0 -10 -3.5t-12 -3.5l-5 5
q0 14 18.5 28.5t29.5 15.5q-1 1 -6 4.5t-6 5t-4 4.5t-4 6.5t-1 7.5t4.5 10t4.5 12q-5 0 -11.5 3.5t-7.5 6.5q-1 1 -1 6q0 17 6 21h5q22 -5 22 -12q0 -3 -3 -8.5t-3 -6.5l27 -3q0 -35 12 -40h5q3 3 11.5 10t12 9t11 4.5t16.5 2.5t9 -11v-4l-39 -38l12 -5q4 -1 19 -2.5t32 -3
t19 -1.5t6.5 -1t7.5 -3l3 -1v-27l-33 -70v-6l65 -97h5q0 5 -2.5 13t-2.5 13v5q20 20 24 22v55h23q0 16 -2.5 44.5t-2.5 43.5l4 -1h4q0 -2 12 -6l3 1l22 22q4 2 7.5 2.5t5.5 0.5t3 1.5t1 5.5q0 12 -17 22q3 1 8.5 6.5l10.5 10.5l5 5l4 -1l10 -16q1 0 5.5 -2.5t5.5 -5.5
q0 -4 -5.5 -6t-5.5 -7q0 -9 15.5 -21.5t25.5 -12.5q13 0 19 6v-22q-5 -50 -5 -65q11 -8 11 -24q0 -6 -1 -9l27 28h6q4 -34 5 -50v-7h-26q2 -26 15 -36v23q9 0 11 -7l5 12q11 -9 20 -41t9 -50q0 -10 -6 -30.5t-6 -31.5q0 -10 5 -10h39q-18 -13 -22 -22v-5q1 -2 12.5 -16
t11.5 -24q-10 0 -25.5 10.5t-24.5 10.5q0 -6 4 -12.5t8 -10.5l10.5 -10t8.5 -8q-10 -2 -21.5 -12t-11.5 -18l1 -4l27 -26q-3 1 -7 1q-11 0 -11 -18q0 -1 0.5 -5t0.5 -5q25 -21 37.5 -39t12.5 -42v-11q-3 -5 -13.5 -16t-14.5 -12q6 -12 6 -28q0 -21 -14 -21q-18 0 -39 41
t-28 46h-4q0 -29 1.5 -43.5t8.5 -31.5t24 -24.5t45 -8.5q17 -12 17 -34q0 -5 -2 -5q-4 0 -10 -5q-4 -4 -9 -10t-7.5 -8t-7 -5t-10.5 -4t-15 -1q-18 0 -43 23v5l5 5h4q10 0 18 -10q1 1 1 10q0 22 -16 27l-1 1h-2q-5 0 -11.5 -11t-7.5 -12q-26 18 -54 68.5t-39 63.5
q-6 -1 -19 -1q-55 0 -133 44l-11 -11q-2 -3 -10 -28t-11 -37q-2 -9 -2 -12q0 -16 13 -24t32 -8l7 2q7 3 8 3h4q20 0 30.5 -18t10.5 -39q0 -12 -21 -18t-38 -6q-35 0 -35 29q12 0 15 13t13 13q-1 0 -10.5 4.5t-14 7l-14 8t-14 10.5t-8.5 12t-4 15q0 2 16.5 33.5t16.5 50.5
v4.5t-1 3t-4 2.5t-7 1q0 -14 -27 -55.5t-26 -43.5q0 -2 4 -8t6 -7l2 1q2 0 3.5 1t3.5 2l2 1q2 0 6.5 -6t9 -13t6.5 -8q21 -14 27 -16q1 0 3 -2.5t2 -3.5q-1 -2 -9.5 -6.5t-12.5 -4.5q-19 0 -55.5 31.5t-36.5 52.5q0 8 3.5 25t3.5 26q0 23 -33 39q-21 -23 -44 -44
q-11 -9 -53 -23t-73.5 -30t-31.5 -34q0 -8 15 -12t30 -16t15 -39q0 -11 -28 -21t-44 -10l-10 1zM210 262q6 -13 10 -33v44q0 1 4.5 3.5t7.5 2.5q7 0 10 -6l12 22h6q0 -1 -0.5 -3t-0.5 -3q6 -23 9 -27v33q8 0 10 1.5t3.5 6t3.5 7.5q5 5 20.5 13.5t18.5 15.5q2 -9 8 -18.5
t8 -15.5q7 7 7 27q0 2 -1 9t-1 8q-11 0 -11 10t6 11q11 -16 22 -16q4 0 13 2.5t13 2.5q0 -4 -3 -8.5t-3 -8.5l7 2q1 0 3 2.5t3 2.5q2 1 3 1q2 0 5.5 -3t7.5 -3q16 0 28 16q5 -11 15 -11h6l-6 21v2l1 2q2 2 5 2q1 0 3.5 -4.5t2.5 -6.5l5 11l5 -6l6 10l5 -4h5l12 6l5 -3l5 -3
l12 6h5q5 -5 5 -12q11 0 11 4q0 1 -2 6t-2 7h17v-22q3 12 3 27q0 11 -6 17q-5 -5 -10 -5h-6l-5 5l-133 16q-14 0 -38 -13t-35 -13q-4 0 -14 5q-4 0 -9.5 -3.5t-9.5 -3.5t-9 3.5t-10 3.5q-9 0 -15.5 -11.5t-8.5 -22.5l-12 12l12 10q-4 1 -6 1q-10 0 -11 -11q-8 -51 -18 -76.5
t-42 -70.5q7 5 11 5h5q3 0 6 -5l1 5q1 5 1.5 9t3 8t5.5 5zM753 224q0 -4 20.5 -15t22.5 -27q0 2 1 5.5t1 4.5q0 6 -6 15.5t-6 16.5l22 -8q0 21 -63 36t-92 15h-9q0 -7 9 -19t9 -15q0 -2 -1 -3q10 -2 27 -11l3 -5l3 -6q1 -1 3 -1l3 6l8.5 13t7.5 9v-18q1 3 6 8l4 5h5zM81 390
q9 0 26 -10t26 -10q22 0 61 11.5t39 28.5q-17 0 -49 -9t-48 -9t-42 13t-42 13v-9q2 1 5 1q8 0 16 -6.5t8 -13.5zM617 551q0 -19 6 -34q5 -5 6 -5q0 14 11 17t11 10q0 9 -7 22.5t-7 24.5q-4 0 -11.5 3t-13.5 7l-5 3q-6 -6 -6 -17v-5q0 -25 16 -26zM612 621q5 0 22 -5.5
t17 -11.5v-38h5l10 6q-1 2 -1 16q0 13 1 16q2 4 10.5 7.5t21 7.5t13.5 4q0 9 -14 9h-8l-17 -1q-1 0 -8 -3l-8 -2q-1 0 -3 2t-2 3h-39v-10zM706 158q0 -19 9 -57t24 -38q0 20 -16.5 74.5t-34.5 54.5v-12l3 -2l3 -3v-5q0 -2 -11 -12h23zM683 588q0 -18 -10 -31t-10 -23h31
q2 7 12 19t10 22t-4 12t-15 2q-2 0 -7.5 -0.5t-6.5 -0.5zM275 491q39 -17 99 -17q56 0 67 22q-12 0 -36 -6t-38 -6t-40.5 3.5t-41.5 3.5h-10zM629 230q0 -14 -18 -30t-18 -27q14 0 30 19t16 32q0 5 -4.5 19t-11.5 14q-6 -3 -6 -12q6 -4 6 -5zM425 567q-15 0 -33 -5.5
t-18 -17.5h7q13 0 35 7t35 7q0 9 -26 9zM617 310q-4 0 -4 -5t3 -5q-9 -34 -9 -43q4 8 19 25t18 28l-10 7l5 5zM183 507q-45 0 -71 -16l4 -1q4 -1 5 -1q10 0 31.5 6.5t32.5 6.5q6 0 17 -3t18 -3q1 0 8 2.5t9 2.5q-19 6 -54 6zM422 713q12 -20 26 -20q12 0 12 20q0 11 -17 11
h-6q-12 0 -15 -11zM634 507v-11q0 -5 13 -8.5t22 -3.5q20 0 20 31l-1 7l-2 -4q-6 -11 -10.5 -14t-17.5 -3h-9q-10 0 -15 6zM699 409l5 -49l5 -6q7 11 7 34q0 15 -2.5 22t-14.5 15v-16zM80 69q0 -11 7 -26.5t15 -19.5q-2 8 -2 16q0 18 12 22q0 1 -2 3.5t-3 2.5q-9 3 -21 3
q-5 0 -6 -1zM589 317q0 -14 12 -22q6 0 6 11l-2 16h9q0 18 -15 18q-5 0 -8 -1q0 -1 1.5 -2.5t2.5 -3.5t1 -3q0 -2 -3.5 -6t-3.5 -7zM232 643q29 -29 48 -29l5 2q-19 27 -46 27h-7zM334 809q0 -5 7.5 -9.5t12.5 -4.5q8 0 8 11q0 17 -8 17q-5 0 -12.5 -4.5t-7.5 -9.5zM584 221
q4 -9 10 -12q23 10 23 17q0 3 -7.5 7.5t-8.5 9.5q-1 -10 -9 -13t-8 -9zM582 556v18q-19 0 -19 -41q19 0 19 23zM726 501q1 0 -3 -6l-2 -4v-6q19 14 22 32h-12v8q-16 0 -16 -10l1 -3l5 -5q5 -5 5 -6zM738 414l-12 -70l12 10l5 55zM579 616q0 -3 9 -7q9 0 9 23v12
q-18 0 -18 -28zM573 267q0 -11 15 -11q0 6 4 12t4 11v5q-23 -4 -23 -17zM557 295q-5 -25 -5 -38h5q6 0 6 28q0 3 11 4zM786 501h-5q-1 0 -12 -32v-5l12 5zM367 300q0 -5 -5 -5l17 -6v9q0 19 -12 19q-5 -5 -5 -7q4 0 6 -7zM405 806q-6 -7 -6 -23q6 0 18 6q-5 13 -12 17z
M459 295q0 -11 12 -28q0 1 1 5v4q0 16 -12 24v-2q-1 -2 -1 -3zM454 551q-5 -21 -5 -36v-8q6 6 6 18v9q0 2 -0.5 9t-0.5 8zM720 317q0 -9 6 -12q5 10 5 12q0 5 -5 10q-6 -2 -6 -10zM758 385q0 -19 11 -22q0 15 -10 29l-1 -3v-4zM330 756q1 -6 15 -6v13h-5q-1 -1 -6 -4z
M813 182q0 -11 5 -12v5l1 5v6q0 10 -6 11v-15zM471 332q0 -1 -0.5 -3t-0.5 -4q0 -7 6 -8v3q1 4 1 5q0 12 -6 19v-12zM753 61l16 -16q2 4 2 5q0 11 -14 11h-4zM601 512q0 -11 13 -11q0 9 -13 16v-5zM417 544v-7q19 0 22 7h-22zM280 257l-2 -14l2 -13q3 3 3 13q0 11 -3 14z
M651 208q0 -1 2 -3.5t3 -2.5q5 5 5 11q0 1 -2 3.5t-3 2.5q-5 -10 -5 -11zM775 28l6 -16v12q0 13 -6 16v-12zM514 64q0 -14 12 -17q0 15 -12 17zM601 544q-5 -5 -5 -15v-7q6 3 6 15zM791 55q6 -8 17 -8q0 9 -12 9q-4 -1 -5 -1zM830 170q-5 0 -5 -6t5 -6q4 0 4 6t-4 6z
M595 703q0 -14 6 -17v17h-6zM586 300q-5 0 -5 -6q0 -5 5 -5q4 0 4 5q0 6 -4 6zM374 784q-5 0 -5 -6q0 -5 5 -5q4 0 4 5q0 6 -4 6zM167 257q-4 0 -4 -6t4 -6t4 6t-4 6zM362 551q-4 0 -4 -6t4 -6t4 6t-4 6zM813 45q-4 0 -4 -6t4 -6t4 6t-4 6zM769 577q-4 0 -4 -6q0 -5 4 -5
t4 5q0 6 -4 6zM557 599q-4 0 -4 -6q0 -5 4 -5t4 5q0 6 -4 6zM362 349q-4 0 -4 -5t4 -5t4 5t-4 5zM102 485q-11 -3 -17 -11h5q2 0 12 11zM63 165v-12q7 5 7 12h-7zM75 93l-7 -16h7v16zM270 496q0 2 -3 2q-8 0 -8 -2t5 -2t6 2z" />
    <glyph glyph-name=".null" horiz-adv-x="0" 
 />
    <glyph glyph-name="nonmarkingreturn" horiz-adv-x="333" 
 />
    <glyph glyph-name="space" unicode=" " horiz-adv-x="250" 
 />
    <glyph glyph-name="exclam" unicode="!" horiz-adv-x="134" 
d="M51 250l-20 446q0 4 -0.5 13.5t-0.5 14.5v46q0 4 0.5 12t0.5 11v9q7 10 19 10q11 0 13 -8v-45q0 -8 -0.5 -24t-0.5 -24q0 -104 4 -183l20 -372v-36q0 -9 -14 -9t-14 11v11q-5 46 -7 117zM54 32q0 7 6.5 13.5t14.5 6.5q12 0 20.5 -8.5t8.5 -20.5q0 -8 -8.5 -13t-15.5 -5
q-12 0 -19 8t-7 19z" />
    <glyph glyph-name="quotedbl" unicode="&#x22;" horiz-adv-x="168" 
d="M28 608q0 19 1 28q3 10 3 24q0 22 -3 45q-1 16 -1 47v37q2 17 20 17q16 0 16 -17v-4q0 -1 -0.5 -4t-0.5 -5l-7 -14h4q6 -42 6 -95l-1 -65q-7 -10 -18 -10q-8 0 -13.5 4.5t-5.5 11.5zM102 794l2 10h15q12 0 14 -8q0 -8 1 -14q0 -5 1 -8q0 -1 1 -3v-2v-118q3 -15 3 -30
q0 -16 -17 -16q-12 0 -15 5.5t-3 18.5v15q0 5 -0.5 23.5t-0.5 29.5q0 10 -0.5 28t-0.5 24v45z" />
    <glyph glyph-name="dollar" unicode="$" horiz-adv-x="345" 
d="M153 380q0 18 -1 30q0 1 -0.5 4.5t-0.5 5.5q-2 24 -2 41l-35 31q-29 25 -42 38t-27.5 39.5t-14.5 53.5v6q2 40 20.5 80t49.5 64q24 13 39 19q-1 20 -1 51v9q7 10 19 10q11 0 13 -8l1 -54q16 2 27 2q42 0 71 -18l20 40l26 -12l-50 -86l-20 8l9 18q-21 21 -63 21
q-6 0 -20 -2l1 -12q0 -8 -0.5 -24t-0.5 -24q0 -104 4 -183q0 -7 4 -47q0 -6 1 -9l40 -40l5 -10l15 -16q0 -2 3 -4l9 -16l20 -41q17 -34 21 -40q17 -45 17 -105v-17q-4 -64 -26 -99t-76 -60l3 -64q0 -9 -14 -9t-14 11v11q-4 37 -4 42q-15 -3 -47 -3q-24 0 -43 10l-2 -36
l-30 6l14 108l22 -14l-2 -31q17 -12 46 -12q21 0 39 6q-5 67 -5 105q-2 25 -7 77t-7 79l-2 18q-2 28 -2 29v23zM211 387q-1 1 -11 14t-17 21v-77l22 -282l16 11q41 26 54 70l1 2v2v2q1 2 1 3q2 16 2 24l1 7v10q0 33 -14 89q-2 1 -2 3l-20 40q-4 4 -4 8q-15 31 -29 53z
M138 512l9 -8q-7 173 -7 181v11q0 4 -0.5 13.5t-0.5 14.5v36q-34 -17 -55 -55t-23 -81v-4q0 -44 77 -108z" />
    <glyph glyph-name="quotesingle" unicode="'" horiz-adv-x="97" 
d="M30 608q0 19 1 28l-1 153q2 17 20 17q16 0 16 -17v-7v-5.5t-0.5 -12t-0.5 -17.5q0 -43 2 -145q-8 -10 -18 -10q-8 0 -13.5 4.5t-5.5 11.5z" />
    <glyph glyph-name="parenleft" unicode="(" horiz-adv-x="280" 
d="M31 296l-5 97q0 37 17 120q0 5 2 13l3 14q29 152 144 246q23 14 43 14q12 0 12 -12q0 -10 -9 -15q-8 -2 -18 -2q-3 -2 -5 -2l-5 -5q-80 -53 -131 -204l-6 -26q-18 -85 -18 -138q0 -141 46 -238q5 -9 10 -16l4 -7q13 -24 16 -33h-1l51 -47v1q7 -6 23 -13.5t24 -8.5h9
q15 0 15 -14q0 -20 -17 -20q-13 0 -37 12q-2 0 -4 2l-8 4l-2 1l-2 1q-12 6 -17 11l-8 8l-23 23l-2 -2q-36 30 -72 120q-3 7 -4 8q-1 2 -3 7t-3 7q-6 14 -10 45l-2 11q-4 26 -7 38z" />
    <glyph glyph-name="parenright" unicode=")" horiz-adv-x="280" 
d="M252 393l-5 -97q-3 -12 -7 -38l-2 -11q-4 -31 -10 -45q-1 -2 -3 -7t-3 -7l-4 -8q-36 -90 -72 -120l-2 2l-23 -23l-8 -8q-5 -5 -17 -11l-2 -1l-2 -1l-8 -4q-2 -2 -4 -2q-24 -12 -37 -12q-17 0 -17 20q0 14 15 14h9q8 1 24 8.5t23 13.5v-1l51 47h-1q3 9 16 33l4 7
q5 7 10 16q46 97 46 238q0 53 -18 138l-6 26q-51 151 -131 204l-5 5l-5 2q-10 0 -18 2q-9 5 -9 15q0 12 12 12q20 0 43 -14q115 -94 144 -246l3 -14q2 -8 2 -13q17 -83 17 -120z" />
    <glyph glyph-name="comma" unicode="," horiz-adv-x="112" 
d="M48 -52v48q-1 14 -8 23l-1 3q-11 11 -11 21q0 17 22 17q34 0 34 -18v-87q0 -6 -5.5 -11.5t-12.5 -5.5q-10 0 -18 10z" />
    <glyph glyph-name="hyphen" unicode="-" horiz-adv-x="384" 
d="M29 391q2 25 23 27l287 -1q4 0 9 -6.5t5 -8.5q0 -9 -2 -11l-6 -6q-1 -1 -16 -1l-234 -3q-22 -2 -37 -2h-13l-11 1q-5 6 -5 11z" />
    <glyph glyph-name="period" unicode="." horiz-adv-x="106" 
d="M28 30q0 7 6.5 13.5t14.5 6.5q12 0 20.5 -8.5t8.5 -20.5q0 -7 -8.5 -12.5t-15.5 -5.5q-12 0 -19 8t-7 19z" />
    <glyph glyph-name="slash" unicode="/" horiz-adv-x="217" 
d="M28 19l122 743q3 22 8 35q2 7 16 7q10 0 12 -2t2 -11q0 -13 -6 -28q0 -1 -0.5 -3t-0.5 -3l-9 -54q-60 -339 -112 -682q-2 -13 -16 -13q-16 0 -16 11z" />
    <glyph glyph-name="zero" unicode="0" horiz-adv-x="478" 
d="M30 380q0 9 1 28.5t1 30.5q4 53 12 82q10 36 18.5 61.5t27.5 67t38.5 68t50 46.5t64.5 20q45 0 81 -27t58.5 -69t38 -94.5t21.5 -99.5t6 -89q0 -97 -23 -179t-75.5 -138t-125.5 -56q-47 0 -82.5 23t-56 57.5t-33 83.5t-17 92t-5.5 92zM65 465q-6 -38 -6 -64
q0 -34 3 -71.5t13.5 -86.5t27 -86.5t46.5 -64t69 -26.5q37 0 65 13t49 42.5t31.5 50.5t28.5 64q22 71 22 159q0 161 -53 255q-58 103 -119 103q-43 0 -82.5 -49.5t-62.5 -113.5t-32 -125z" />
    <glyph glyph-name="one" unicode="1" horiz-adv-x="226" 
d="M70 18q0 18 14 18q8 0 14 -1q8 -2 13 -2h14q3 12 3 17v4l9 553q0 75 -4 111q-13 -10 -16 -15q-42 -40 -70 -74l-17 29l33 33q41 39 70 71q13 13 19 13q17 0 17 -25l-12 -712h11q10 0 14.5 -1t9 -6t4.5 -16q0 -12 -8 -12q-9 0 -13 1q-8 2 -14 2q-19 0 -28 -1
q-14 -2 -25 -2h-28q-10 6 -10 15z" />
    <glyph glyph-name="two" unicode="2" horiz-adv-x="365" 
d="M34 36v5l16 39q2 5 6 14t5 13q16 40 21 49l3 6q10 19 14 25q22 39 29 64l54 116q3 13 10 26q6 11 9 21q9 15 11 20q19 41 36 99t17 94q0 104 -89 104q-28 0 -50 -10.5t-35 -30t-19 -32.5t-12 -32q-5 -17 -12 -17h-7q-1 0 -3.5 -0.5t-3.5 -0.5h-6q0 64 44.5 110t106.5 46
q116 0 116 -140v-24q-28 -121 -55 -181q-19 -42 -31 -65l-12 -24l-1 -4l-1 -4l-7 -12q-59 -119 -98 -216q-5 -5 -5 -10q-13 -26 -13 -29l4 1q52 7 139 7q25 0 35 -1q6 0 19 -0.5t18 -0.5l11 1l3 48q0 26 19 26q15 0 15 -20v-6q-3 -6 -3 -16v-59q-2 -7 -14 -7q-42 0 -63 1
h-32q-7 0 -17.5 0.5t-13.5 0.5h-73l-54 -10q-6 -3 -9 -3h-6q-16 0 -16 19z" />
    <glyph glyph-name="three" unicode="3" horiz-adv-x="386" 
d="M29 201v4q0 1 0.5 4.5t0.5 5.5v11q2 11 16 11q18 0 18 -14q0 -11 -1 -16q-2 -10 -2 -16q0 -111 89 -111q44 0 72.5 14t60.5 48q40 42 40 133q0 93 -38 136q-35 44 -79 63l-11 3q-19 4 -19 17t9 21q5 -1 16 -1q30 0 59 19t46 46q12 26 12 37q0 67 -37 109t-104 42
q-22 0 -54.5 -15t-44.5 -31q-4 -4 -10 -16l-3 -5q-1 -1 -1 -7q-3 -16 -12 -16q-8 0 -13 6t-5 13q0 37 50.5 70.5t89.5 33.5q86 0 137 -61q38 -66 38 -108q0 -32 -12.5 -64t-35.5 -48q-31 -23 -54 -30l11 -8l11 -10l4 -4l5 -5t5 -4l2 -2l2 2q34 -33 51.5 -84.5t17.5 -100.5
q0 -137 -117 -205l-4 -2l-13 -5q-22 -11 -30 -11h-69q-12 0 -32 10l-3 1q-59 31 -59 140z" />
    <glyph glyph-name="five" unicode="5" horiz-adv-x="432" 
d="M60 185q0 16 17 16q16 0 18 -15v-8q0 -53 25.5 -99.5t70.5 -46.5q20 0 56 16l10 4q53 28 82.5 95.5t29.5 137.5q0 78 -10 137v-1q-1 2 -4 7t-4 8q-14 26 -22 39.5t-21.5 30t-29.5 26.5t-38 16h1q-4 1 -28 1t-26 -1q-7 0 -95 -17l-20 -9l-7 -3q-10 -4 -15 -4q-4 0 -9 6.5
t-5 12.5q0 9 1 12q2 6 2 8v75q0 55 -3 81l-5 51q-1 2 -1 4q-1 2 -1 7q0 7 13 20h18q44 0 85 3q37 3 81 3q10 0 24 -2q2 0 6 -0.5t6 -0.5q19 -3 37 -3q15 0 23 1q16 2 24 2h9l9 -10v-72q0 -10 -12 -10q-20 0 -22 46q0 7 -1 10h-12q-7 0 -37 2l-2 1h-3h-4q-24 3 -49 3
q-24 0 -66 -2q-2 0 -7 -0.5t-8 -0.5h-14q-59 -4 -62 -5v-9q0 -21 3 -33v-141l2 -7h2q1 0 3.5 -0.5t3.5 -0.5q28 0 66 7l13 2q27 5 52 5h10q33 0 46 -5q6 -2 48 -25q2 -3 4 -3q24 -24 47 -61t27 -63l10 -100v-26q0 -92 -31.5 -168t-99.5 -108q-40 -19 -75 -19q-33 0 -57.5 14
t-39 39t-22.5 52t-13 62q0 1 -1 3.5t-2 5.5l-1 2v5z" />
    <glyph glyph-name="six" unicode="6" horiz-adv-x="448" 
d="M39 175l-10 50v147q0 55 35 188q25 87 57.5 138.5t97.5 71.5q1 0 3 1q28 7 49 7q25 0 57 -19t32 -44q0 -5 -4 -8.5t-8 -3.5q-3 0 -23 16v-1q-32 27 -48 27q-79 0 -121.5 -55.5t-69.5 -156.5v1l-3 -12q-21 -86 -23 -126q-2 -2 -2 -6v-107q37 61 80 92.5t114 48.5h7
q71 0 115 -64.5t44 -145.5q0 -85 -55 -136t-135 -51q-73 0 -132 47q-31 26 -43 61l-9 33zM69 195q0 -10 7 -26q1 -2 3 -6.5t2 -5.5t0.5 -2t0.5 -2l2 -4v1q17 -44 56.5 -66t85.5 -22q73 0 116 37.5t43 115.5q0 73 -33 124t-96 51q-5 0 -13 -3l-7 -2h1q-12 -4 -21 -4h-3
l-61 -33q-29 -21 -56 -69.5t-27 -83.5z" />
    <glyph glyph-name="seven" unicode="7" horiz-adv-x="388" 
d="M161 14q0 10 7 10q5 -1 16 -1q9 0 14 2q3 20 11 63l12 66q0 17 3 26v-1l37 173q6 78 23 125q2 34 13 85l2 11q0 8 1 10q1 8 4 23.5t4 22.5q1 9 4 27.5t4 27.5l3 16v7q-64 7 -189 7q-50 0 -63 -2v-56q0 -6 -6.5 -12.5t-11.5 -6.5q-14 0 -17 8v16q0 26 -1 36q-2 22 -2 38
q0 17 21 17q46 0 90 -3q38 -3 84 -3h20q7 -2 23 -2h58q1 0 4 1q1 0 4 0.5t5 0.5q20 0 20 -22v-5l-17 -92v-5l-101 -534q-6 -32 -6 -55v-4q0 -1 0.5 -2.5t0.5 -2.5q3 -1 14 -1t16 1q2 0 4.5 -4t2.5 -5q0 -26 -38 -26q-2 0 -4.5 0.5t-3.5 0.5h-6q-1 0 -4 0.5t-5 0.5h-23
q-2 0 -6 0.5t-6 0.5h-6q-9 1 -9 14v8z" />
    <glyph glyph-name="eight" unicode="8" horiz-adv-x="465" 
d="M29 215q0 75 22 132.5t68 114.5q27 26 44 37l9 6q-56 51 -56 136q0 73 30 110.5t103 37.5h15l54 -21q17 -5 39 -32q34 -45 34 -106q0 -71 -60 -193v-3q98 -105 103 -267q-47 -166 -204 -166q-95 0 -148 58.5t-53 155.5zM59 220q0 -46 17.5 -91.5t53.5 -64.5
q53 -30 96 -30q73 0 125 47.5t52 118.5q0 46 -14 79l-43 88q-14 32 -83 73l-8 6l1 -1l-2 1q-1 1 -2 1l-5 4v-1l-6 3q-13 8 -29 19h1q-3 2 -5 3l-7 5q-32 -4 -73 -61.5t-53 -96.5v1q-8 -39 -16 -103zM149 650q0 -61 32 -99.5t94 -77.5q15 -8 27 -16q6 9 8 17q47 94 47 154
q0 34 -17.5 66.5t-46.5 47.5q-1 0 -2 0.5t-2 0.5q-29 13 -44 13q-49 0 -72.5 -28.5t-23.5 -77.5z" />
    <glyph glyph-name="nine" unicode="9" horiz-adv-x="449" 
d="M419 459v-26q0 -60 -36 -188q-24 -87 -56.5 -138.5t-97.5 -71.5q-1 0 -3 -1q-28 -7 -49 -7q-25 0 -57 19t-32 44q0 4 4 8t8 4q2 0 23 -15q31 -27 48 -27q79 0 121.5 55.5t69.5 155.5l3 12q21 86 23 126q2 2 2 6v107q-37 -61 -80 -92.5t-114 -48.5h-7q-71 0 -115 64.5
t-44 145.5q0 85 55 136t135 51q68 0 132 -47q16 -11 23.5 -20.5t20 -36.5t18 -80.5t5.5 -134.5zM379 610q0 10 -7 26q-1 2 -3 6.5t-2 5.5l-1 2v2l-2 3q-17 44 -56.5 66t-85.5 22q-73 0 -116 -37.5t-43 -115.5q0 -73 33 -124t96 -51q6 0 13 3l6 2q12 4 24 4l61 33
q29 21 56 69.5t27 83.5z" />
    <glyph glyph-name="colon" unicode=":" horiz-adv-x="110" 
d="M30 608q0 7 6.5 13.5t14.5 6.5q12 0 20.5 -8.5t8.5 -20.5q0 -7 -8.5 -12.5t-15.5 -5.5q-12 0 -19 8t-7 19zM28 30q0 7 6.5 13.5t14.5 6.5q12 0 20.5 -8.5t8.5 -20.5q0 -7 -8.5 -12.5t-15.5 -5.5q-12 0 -19 8t-7 19z" />
    <glyph glyph-name="semicolon" unicode=";" horiz-adv-x="110" 
d="M30 608q0 7 6.5 13.5t14.5 6.5q12 0 20.5 -8.5t8.5 -20.5q0 -7 -8.5 -12.5t-15.5 -5.5q-12 0 -19 8t-7 19zM48 -52v48q-1 14 -8 23l-1 3q-11 11 -11 21q0 17 22 17q34 0 34 -18v-87q0 -6 -5.5 -11.5t-12.5 -5.5q-10 0 -18 10z" />
    <glyph glyph-name="question" unicode="?" horiz-adv-x="335" 
d="M119 152v1q-3 17 -3 56v51q0 15 12 90q11 65 76 146q23 31 36 50t25.5 48.5t12.5 55.5q0 50 -25 81t-70 31q-23 0 -61 -18q-59 -42 -68 -144q-5 -8 -14 -8q-12 0 -12 26q0 81 44.5 126.5t118.5 45.5q63 0 100 -63q14 -23 14 -74q0 -42 -18 -76.5t-51 -77.5l-8 -11
q-16 -21 -39 -57q-46 -85 -46 -183q0 -15 2 -45q0 -3 0.5 -7t0.5 -7q0 -4 0.5 -13.5t0.5 -13.5q0 -18 -17 -18q-9 0 -11 8zM125 18q0 17 16 17q15 0 15 -19q0 -8 -1 -11q-4 -7 -12 -7t-13 6.5t-5 13.5z" />
    <glyph glyph-name="at" unicode="@" horiz-adv-x="655" 
d="M28 353q0 59 21.5 134t52.5 125q81 124 207 176q23 7 61 7h4q2 0 5 -0.5t4 -0.5h13q8 -3 33 -6q1 0 2 -0.5t2 -0.5h5q50 -15 105 -73q46 -49 62 -103t16 -130q0 -113 -34 -202q-22 -38 -47.5 -55.5t-64.5 -17.5q-22 0 -42 11t-28 31h1q-3 3 -3 6l-1 3q-1 3 -2 4
q-46 -52 -114 -52q-34 0 -56.5 19t-22.5 54v4q0 39 28 74t68 35h90q3 11 3 18q0 43 -18.5 63.5t-60.5 20.5q-38 0 -38 -14q0 -4 4 -12q3 -6 3 -14q0 -6 -5.5 -11.5t-11.5 -5.5q-11 0 -14 8l-8 15l-8 16h1q-2 2 -2 5q0 23 27.5 36t51.5 13l48 -9q21 -4 34.5 -17.5t19 -36.5
t7.5 -38t3 -41l5 -117q7 -13 22 -22.5t27 -9.5q34 0 57.5 27.5t33 72t13 78t3.5 66.5v38q0 41 -8 65q-28 73 -84.5 124t-126.5 51q-55 0 -107 -30q-84 -57 -103 -84q-2 -2 -6.5 -10t-4.5 -9l-10 -16l-7 -12q-66 -105 -70 -305q3 -15 3 -20l19 -86l8 -37q0 -3 4 -7
q9 -18 34 -46q56 -60 189 -60q132 0 203 57q24 20 36 43q5 9 9 28q4 17 6 24.5t9 17t17 9.5t10 -15v-7q0 -50 -34 -95q-43 -52 -116 -75t-150 -23q-67 0 -112 16.5t-96 60.5q-21 19 -35 48.5t-21.5 71t-10.5 65.5t-6 68l-1 2v2v13zM238 289q0 -44 54 -44q4 0 24 5h-1
q12 4 22 4q28 16 55 47h-1q5 5 5 8l-2 44l-10 8h-58q-2 0 -5 0.5t-4 0.5q-22 0 -50 -12q-29 -40 -29 -61z" />
    <glyph glyph-name="A" unicode="A" 
d="M28 18q0 14 16 16q6 2 10 6v-1l168 697v1q1 1 1 2t-10 3q-19 4 -19 18q0 12 11 12q33 0 66 -5q11 -6 11 -12q0 -16 -16 -18l-1 -1h-2l-3 -2v-1l144 -683q0 1 3 1q5 0 8 -0.5t5.5 -4.5t2.5 -11q0 -16 -11 -16h-48q-5 0 -8.5 5t-3.5 10q0 12 23 15v4l-54 235l-176 -6
l-61 -240v-1q-1 -1 -1 -3q0 -1 5 -4h-1q2 -2 4 -2q8 -5 8 -15q0 -8 -7 -10q-22 -3 -41 -3q-23 0 -23 14zM241 682l-89 -374l165 9q-1 0 -1 3z" />
    <glyph glyph-name="B" unicode="B" horiz-adv-x="403" 
d="M28 22q0 16 12 16h36q3 45 3 71v148q1 80 12 418l-3 76h-8q-26 0 -26 17q0 5 6 9.5t12 5.5h56q73 0 122.5 -15.5t81.5 -66.5q17 -29 17 -55q0 -68 -44 -105v1q-2 -2 -5.5 -4.5t-7.5 -5t-5 -3.5q-1 0 -9 -4l-7 -6q-13 -9 -15 -10q-17 -8 -57 -14q-3 -1 -11 -1h-1
q-1 -1 -2 -1q34 -12 59 -20l10 -5h-1q11 -2 21 -9q99 -78 99 -242q0 -65 -15.5 -103.5t-64.5 -66.5q-73 -41 -137 -41h-116q-12 0 -12 16zM106 40q0 -2 11 -2h31q48 0 95 15.5t73 47.5q28 34 28 110q0 93 -45 177q0 4 -5 9l-8 8q-11 12 -31 29q-24 13 -90 31q-31 7 -33 8
l-2 1h-2l-5 3v-1q-10 4 -12 4q-5 -82 -5 -193v-247zM123 748l-5 -104q-4 -90 -4 -107q-1 -4 -1 -26h5q1 0 3.5 0.5t5.5 0.5l25 6h-1q3 1 8 1q20 0 45 5q48 9 80.5 40.5t32.5 77.5q0 37 -33 66.5t-73 37.5q-20 3 -57 3h-16q-3 0 -7 -0.5t-5 -0.5h-3z" />
    <glyph glyph-name="C" unicode="C" horiz-adv-x="390" 
d="M322 100h22l16 -92l-24 -8l-5 31q-32 -17 -67 -17q-58 0 -101.5 26t-68 65.5t-40 94t-20 102t-4.5 99.5q0 40 4.5 81t18 90.5t34.5 86.5t58.5 62.5t85.5 25.5q40 0 79 -21l6 38l24 -6l-16 -96l-24 2l5 34q-41 23 -80 23q-44 0 -77 -33t-51 -86t-26.5 -107.5t-8.5 -107.5
q0 -44 4.5 -85.5t17.5 -89t34 -82.5t57.5 -58t84.5 -23q38 0 67 15z" />
    <glyph glyph-name="D" unicode="D" horiz-adv-x="413" 
d="M30 10q1 16 22 16q9 0 14 -1q2 20 2 22q0 6 0.5 18t1 35t1.5 48l23 621q0 1 -5 1q-19 2 -19 18q1 13 31 13q3 0 8 -0.5t6 -0.5h4q2 -1 7 -1l20 -1q99 -9 157.5 -81.5t68.5 -176.5q3 -14 5 -18l4 -18q2 -26 2 -96v-15l-10 -115q-10 -54 -18.5 -83.5t-25.5 -63t-44.5 -56.5
t-71.5 -45q-5 0 -5 -4l-68 -25q-23 -8 -57 -8q-14 0 -36 2q-17 2 -17 15zM121 665l-23 -605v-36q25 4 41 9q26 6 61 23l35 18q6 5 8 5l11 2l-3 1l32 30q30 32 41 78q18 72 25 142q3 36 3 75q0 98 -17 173l-4 13l-3 6l-5 18q-32 70 -78 108t-118 44q-1 0 -2 -5q-1 -11 -1 -34
v-17q0 -25 -3 -48z" />
    <glyph glyph-name="E" unicode="E" horiz-adv-x="330" 
d="M49 13q-10 1 -16 9v38q0 56 -1 84q-2 64 -2 96v10q0 10 1 15q0 12 2 18v412l-3 40v5q-2 28 -2 33q0 22 27 22q6 0 18 -2q6 -1 18 -1q19 0 51 2q54 3 95 3h6q20 0 26 -9q0 -15 1 -25q0 -16 2 -24q0 -7 -5 -12.5t-12 -5.5q-14 0 -16 17v4q0 1 -0.5 4t-0.5 5q-1 2 -1 8
q0 2 -0.5 3.5t-0.5 2.5l-2 1h-5q-4 0 -23.5 -0.5t-31.5 -0.5h-51q-18 -1 -62 -1q0 -36 1 -55v-30q0 -5 0.5 -15t0.5 -15q0 -20 -2 -58q-1 -17 -1 -57v-56q0 -3 0.5 -10t0.5 -11q2 -22 2 -33q0 -2 -0.5 -4.5t-0.5 -3.5q10 -1 61 -1q8 0 18 2q5 1 16 1q10 0 11.5 -2t1.5 -12
q0 -16 -10 -18h1q-4 -2 -23 -2q-16 -1 -69 -1h-6v-14q0 -3 0.5 -7.5t0.5 -6.5q0 -40 -4 -65v-83q0 -100 3 -159q25 -2 52 -7h155v51q0 7 14 11q11 0 15 -7q2 -13 2 -40v-19q0 -4 -2 -20l-9 -8h-22q-17 0 -51 2q-3 0 -12.5 0.5t-12.5 0.5q-46 2 -113 2q-20 0 -30 -1z" />
    <glyph glyph-name="F" unicode="F" horiz-adv-x="321" 
d="M28 -7q0 14 32 14l3 3v6q0 56 -4 166q0 8 -0.5 24t-0.5 24q-2 56 -2 90v122l-3 52q-7 144 -10 188q-5 24 -5 62q0 27 9 35t36 8h43q18 -1 44 -1q3 0 9 -0.5t9 -0.5h18q37 0 70 6l11 -10q0 -9 1 -16q0 -2 0.5 -6.5t0.5 -7.5q3 -12 3 -19q-1 -6 -6.5 -12.5t-12.5 -6.5
l-14 14l-7 30h-4q-3 0 -11 -0.5t-13 -0.5q-11 -1 -29 -1l-110 1q-1 0 -14 -5q-2 -6 -2 -9q-1 -5 -1 -14q0 -19 4 -51q4 -28 4 -46v-58q0 -26 1 -43q0 -5 0.5 -13t0.5 -11v-7q0 -10 2 -16h7q56 0 68 3q16 4 24 4q10 0 15 -8l1 -3q0 -19 -89 -27l-16 -2l-8 -2v-69q0 -29 2 -87
q0 -8 0.5 -22t0.5 -21q2 -58 2 -99v-58q0 -4 2 -32v-6l3 -40q5 0 23 -3q14 -2 14 -15q0 -11 -12 -16h-53q-4 0 -16 -3l1 1q-3 -3 -8 -3t-9 6.5t-4 11.5z" />
    <glyph glyph-name="G" unicode="G" horiz-adv-x="510" 
d="M237 311q3 15 19 17q1 -1 4 -1q1 0 5.5 0.5t18 1t34 1.5t60.5 2.5l91 3.5q4 0 7.5 -6.5t3.5 -8.5q0 -6 -2 -12q0 -1 -0.5 -2t-0.5 -2q-38 -263 -226 -263q-69 0 -131 65q-4 9 -9 15q-4 11 -7 14q0 3 -16 19q-19 27 -48 113q0 9 -2 25q-3 12 -3 28q-6 40 -6 61
q0 59 14 171l17 41l6 17l4 11q5 10 7 15q16 30 74 83l22 20l38 21l6 5h1q2 1 4 1l9 2q65 13 80 13t59 -22l5 -3q45 -41 63 -77l-28 -12q-17 34 -43 54q-31 25 -62 25q-78 0 -139 -52v1q-107 -106 -107 -306v-46q8 -42 19 -82q8 -8 15 -34l4 -14v1q11 -29 35.5 -65t47.5 -55
q42 -18 75 -18q45 0 80 19t56.5 52.5t34 71t19.5 83.5q-26 0 -78.5 -1t-78.5 -1q-8 -1 -28 -1h-19q-4 5 -4 11z" />
    <glyph glyph-name="H" unicode="H" horiz-adv-x="379" 
d="M36 4q0 13 9 13q6 0 18 2l16 3v7q-2 42 -2 65q0 6 -0.5 17.5t-0.5 16.5q-2 86 -9 165q-1 0 -6 2q-8 4 -8 13q0 7 11 15v6q0 1 0.5 5t0.5 5v15q0 40 -4 112q-4 74 -4 112v34q0 33 -5 133q0 3 -0.5 7.5t-0.5 5.5v5q-2 1 -2 2v-1q-3 0 -6 3q-15 2 -15 14q0 15 35 15h8
q6 -4 10 -5q1 0 3.5 -0.5t4.5 -0.5q5 -1 13 -1q5 -5 5 -11q0 -17 -7 -17h-18v-24q0 -15 1 -27q0 -4 0.5 -11t0.5 -8v-102q6 -199 11 -248l4 -18q2 0 6.5 -0.5t7.5 -0.5h17l159 2v23q0 101 -5 231q-4 110 -5 171q0 2 -6 5q-11 4 -11 16t11 15h13q7 0 31 -6t24 -8
q0 -24 -6 -24h-12q-1 0 -3 1h-3q-2 1 -4 1v-20q0 -7 -0.5 -27t-0.5 -32q-1 -36 -1 -84l4 -140l3 -92q0 -17 2 -51q2 -58 2 -92v-36q0 -91 8 -127h5q15 0 15 -16q0 -14 -7 -16l-65 -5q-14 0 -14 12q0 21 35 21l-10 242l-2 6q-33 0 -95 -1t-95 -1l13 -265q12 -10 12 -16
q0 -17 -24 -17q-7 0 -37 -5l-1 -1h-4q-20 0 -20 18z" />
    <glyph glyph-name="I" unicode="I" horiz-adv-x="176" 
d="M32 68l33 -1q0 49 1 77q2 62 2 97q0 79 -3 158q0 9 -0.5 26.5t-0.5 25.5q-2 64 -2 105q0 4 5 111l1 46l-34 1l-4 26l114 -2l2 -28l-50 2v-42q0 -2 -0.5 -5.5t-0.5 -4.5v-10q-5 -55 -5 -99q0 -55 2 -157q0 -13 0.5 -38.5t0.5 -37.5v-110q0 -76 2 -110l2 -31l35 -1l-4 -22
l-96 2v22z" />
    <glyph glyph-name="J" unicode="J" horiz-adv-x="216" 
d="M44 178q7 0 11.5 -4.5t4.5 -10.5v-8q0 -1 -0.5 -4t-0.5 -5q-1 -5 -1 -10q0 -35 2 -57q1 -17 3 -24t10 -11t24 -4q37 0 50 93q9 67 9 159q0 6 -0.5 17t-0.5 16v86q0 36 1 66v10q2 52 2 56v59q0 7 -0.5 22.5t-0.5 23.5q0 7 -0.5 20.5t-0.5 20.5q-1 12 -1 45q0 2 -9 2h-80
v-34q0 -4 -5.5 -8.5t-10.5 -4.5q-17 0 -17 32v5q0 45 19 45q8 0 16 -3h10q3 0 9.5 -0.5t9.5 -0.5q14 -1 33 -1h25q20 -4 23 -7l7 -7q2 -128 2 -182v-51q0 -9 -0.5 -37t-0.5 -45q-1 -48 -1 -107v-104q0 -9 -7 -83q-3 -27 -16.5 -67t-29.5 -53q-16 -10 -47 -10q-41 0 -52 33
q-5 15 -5 21v98q0 5 5 9t11 4z" />
    <glyph glyph-name="K" unicode="K" horiz-adv-x="385" 
d="M63 11q0 5 4 11t10 6h26q0 34 -6 104q0 10 -1 15q-4 36 -4 53v60q0 48 -5 93q-1 20 -1 61q0 38 -7 180q-2 21 -4 85q0 23 -5 58v1q-1 2 -1 3q-1 2 -1 5q-7 0 -11 1q-1 0 -5 0.5t-5 0.5q-19 2 -19 15q0 5 4.5 10t9.5 5h26q2 5 14 5q9 0 18.5 -6t9.5 -14q0 -13 -8 -19v-13
q0 -118 10 -263v-48q0 -23 1 -27q32 77 41 101l6 17q7 21 16 37q13 38 40 111l38 104q-13 4 -13 20q3 8 9 8h57q12 0 12 -12q0 -9 -5.5 -13.5t-10.5 -5.5t-16 -2h-2q-33 -90 -35 -96q-13 -38 -24 -58l-47 -126q-4 -8 -14 -33l-3 -8l-7 -21q-15 -36 -24 -51q1 -10 15 -24
l4 -6q2 -6 14 -23q15 -26 19 -29l21 -35l15 -27q2 -6 16 -28l9 -15q0 -4 7 -11l13 -19q33 -46 62 -93v-4h20q9 0 9 -18v-4q0 -7 -7 -9h-11q-19 0 -27 -1q-18 -2 -31 -2q-17 0 -17 15t27 19l-17 27q-5 6 -13.5 20l-12.5 21l-14 22q-33 52 -43 69l-3 6q-3 6 -3 7
q-1 2 -10.5 18t-11.5 19l-2 3v-1q-1 3 -5 9l-6 9q-20 33 -29 42v-18q7 -210 10 -220l7 -53h15q4 0 9 -8q0 -14 -10 -22q-30 -3 -52 -3h-10q-1 0 -4 0.5t-5 0.5q-5 0 -10.5 3.5t-5.5 8.5z" />
    <glyph glyph-name="L" unicode="L" horiz-adv-x="327" 
d="M64 51v1q0 3 0.5 7.5t0.5 6.5v13q0 1 -2 65q0 9 -2.5 56t-3.5 87q0 10 -1 17q0 2 -0.5 5.5t-0.5 4.5v4q0 43 3 121q2 86 4 123v98l-3 51q-2 40 -2 51q-3 1 -10 1q-19 0 -19 14q0 10 7 12q15 0 25 1q3 0 8.5 0.5t7.5 0.5h11q14 0 14 -12q0 -11 -8 -14v1l-4 -3v-33
q0 -19 2 -53q1 -15 1 -52q0 -50 -4 -146q-4 -90 -4 -144v-85q0 -35 12 -167h17q13 0 37 2q2 0 5 0.5t5 0.5q7 1 25 1q14 0 25 -1h6q10 -1 32 -1h5q1 0 5.5 0.5t6.5 0.5l3 1v22q0 6 5.5 10t11.5 4q4 0 8.5 -4.5t4.5 -9.5v-39q0 -14 -14 -14h-20q-23 0 -35 1q-24 2 -35 2h-10
q-2 0 -6 -0.5t-5 -0.5h-4l-10 -2q-10 -2 -14 -2l-24 -3q-20 -2 -41 -7q-12 0 -16 7z" />
    <glyph glyph-name="M" unicode="M" horiz-adv-x="642" 
d="M476 764v36h74v-36h-12l42 -719l1 -12h27q5 0 5 -10q0 -22 -35 -22h-20q-4 -1 -11 -1h-19q-4 0 -4 4v6q0 14 22 18l5 -1v8q0 1 1 3v1q-3 21 -9 127l-30 485q-1 1 -1 2v8l-2 21h-2l-126 -334l-89 -238l-28 4l-147 569h-2l3 -623h21v-38h-61q-17 0 -35 3q-12 2 -12 12
q0 9 2 13t14.5 9t38.5 5v715q-8 3 -13 3q-14 2 -14 12q0 14 11 14q65 0 65 -19l-7 -7q-2 -2 -2 -7l156 -623l219 612h-26z" />
    <glyph glyph-name="N" unicode="N" horiz-adv-x="495" 
d="M382 43l-272 657q-1 -8 -1 -25v-16q-4 -148 -7 -222q-8 -226 -8 -348q0 -5 1 -9q0 -2 0.5 -3t0.5 -2h2q20 0 20 -20v-1l-1 -2v-4q-9 -9 -72 -9q-16 0 -16 14q0 16 22 16q9 0 14 7q0 16 1 21q0 4 0.5 12.5t0.5 11.5q12 336 12 506q0 84 -1 127l3 15q0 3 14 10l8 3
q14 0 36 -69l248 -617q1 8 1 22q0 2 -0.5 4t-0.5 3v6q0 3 2 17v18q0 71 6 217l12 321q-2 0 -3 1l-2 1l-2 1q-5 2 -7 10q0 15 10 18l3 1h4q33 6 39 6q4 0 8 -4t6 -8t2 -5q0 -16 -26 -21q-3 -15 -13 -357l-6 -190v-10q0 -2 0.5 -7t0.5 -8q0 -54 -5 -89q-2 -6 -7 -8h-9
q-13 0 -18 8z" />
    <glyph glyph-name="O" unicode="O" horiz-adv-x="515" 
d="M41 268v1l-3 24q-3 12 -3 28q-6 40 -6 61q0 59 14 171l17 41l6 17l4 11q5 10 7 15q16 30 74 83l22 20l38 21l6 5h1q2 1 4 1l9 2q65 13 80 13t59 -22l5 -3q57 -52 76.5 -105.5t28.5 -143.5q0 -7 2 -19q3 -30 3 -60q0 -52 -4.5 -99.5t-20 -102t-40 -94t-68 -65.5
t-101.5 -26q-69 0 -131 65q-4 9 -9 15q-4 11 -7 14q0 3 -16 19q-21 30 -47 113zM180 95q36 -18 75 -18q48 0 84.5 23t57.5 58t34 82.5t17.5 89t4.5 85.5q0 64 -3.5 110.5t-24 107t-58.5 89.5q-31 25 -62 25q-78 0 -139 -52v1q-107 -106 -107 -306v-46q8 -42 19 -82
q8 -8 15 -34l4 -14v1q12 -31 36 -66.5t47 -53.5z" />
    <glyph glyph-name="P" unicode="P" horiz-adv-x="408" 
d="M77 27q0 13 16 13h6v37q0 131 -6 259q0 4 -2 50v9q-2 40 -2 42v7l-7 126q-9 179 -9 185q-7 0 -11 1q-2 0 -5 0.5t-5 0.5h-5q-19 2 -19 18q0 11 15 14h6q1 0 4 0.5t5 0.5q50 4 80 4q44 0 73 -3t61 -13.5t54.5 -34t36.5 -60.5q15 -47 15 -79q0 -78 -40.5 -120t-118.5 -64
l-20 -6q-32 -9 -78 -11q-1 -1 -1 -5q0 -15 2 -39q2 -14 2 -25q2 -28 2 -49v-25q0 -4 0.5 -14t0.5 -15q0 -112 5 -167v-14h43v-4q3 0 6 -3l1 -1v-3q1 -2 1 -7q0 -13 -11 -14h-5h-3l-1 1q-12 0 -34 -6l-12 -3h1q-10 -3 -23 -3q-7 0 -12.5 6t-5.5 14zM108 753q0 -181 10 -307
l2 -7v1q2 -6 2 -7q18 0 54 6h-1l2 1l23 5q71 17 107.5 53t36.5 107q0 45 -24 88t-65 56q-33 11 -108 11h-15q-15 0 -24 -3v-4z" />
    <glyph glyph-name="Q" unicode="Q" horiz-adv-x="543" 
d="M29 402q0 74 19 146l17 49l44 74q11 20 49.5 52t60.5 36q21 5 67 5q61 0 108.5 -28.5t71.5 -83.5l8 -23q0 -1 0.5 -2t0.5 -2q3 -10 4 -13q34 -88 34 -215q0 -201 -75 -303l-21 -21l16 -8q1 0 3 -1q17 -6 26 -21q0 -5 -6 -13t-10 -8q-8 0 -38 19l-15 8q-49 -27 -107 -27
q-60 0 -87 13q-21 10 -44 38h1l-13 12q-58 58 -86 142t-28 175zM196 75v1q34 -22 91 -22h19q11 3 17 5q32 5 40 13l-4 2v-1q-18 15 -18 28q0 14 16 14h8l14 -16l4 -3q6 -6 10 -6q3 0 13 10h-1q66 98 75 204v2q0 2 0.5 5.5t0.5 7.5q0 12 2 32q0 3 0.5 12t0.5 12v46
q0 63 -28 166q-18 75 -55 105q-49 41 -112 41q-13 0 -29 -2q-6 -1 -34 -1q-72 -39 -119.5 -126.5t-47.5 -172.5q0 -126 27.5 -204t109.5 -152z" />
    <glyph glyph-name="R" unicode="R" horiz-adv-x="434" 
d="M69 14q0 12 25 18v2q1 1 1 2v14q0 2 -0.5 4.5t-0.5 3.5v4q-1 35 -4 164v23q-4 236 -13 355l-11 149v1h-26q-1 0 -10 9l-2 7l16 14q17 0 47 4l13 2q38 8 63 8q79 0 129 -42.5t50 -116.5q0 -45 -24 -85.5t-63 -63.5l-16 -10h-1q-16 -10 -29 -10q-7 0 -13 -2q-6 0 -13 -7
q-9 -3 -35 -5q-13 0 -14 -1q0 -1 1 -3l2 -4l1 -2l16 -28l7 -13q86 -172 151 -282q0 -3 3 -7l4 -7l12 -19q1 -1 4 -5.5t5 -6.5l21 -33h5q34 -2 34 -21q0 -15 -28 -15h-13q-1 0 -3 1l-2 -2h-40q-8 2 -8 16q0 7 12 11q9 2 9 4q0 12 -46 73l-113 208q-11 15 -23 43l-2 5v-1
q-21 48 -33 60v-157q0 -151 10 -234q3 -5 11 -7q18 -2 18 -18q0 -12 -17 -12h-53q-1 0 -7.5 6t-6.5 9zM114 482h5q29 0 71 11l31 8q4 0 8 4q87 52 87 125q0 63 -38 100t-105 37h-7q-23 0 -43 -5q-23 0 -23 -5q0 -6 2 -14t2 -18l3 -110q0 -2 0.5 -8.5t0.5 -9.5q2 -26 2 -45
q2 -46 4 -70z" />
    <glyph glyph-name="S" unicode="S" horiz-adv-x="345" 
d="M93 86l-2 -31q17 -12 46 -12q39 0 68 20l16 11q41 26 54 70l1 2v2v2q1 2 1 3q2 16 2 24l1 7v10q0 33 -14 89q-2 1 -2 3l-20 40q-4 4 -4 8q-15 31 -29 53q-37 51 -61 73l-36 32q-29 25 -42 38t-27.5 39.5t-14.5 53.5v6q2 40 20.5 80t49.5 64q55 29 98 29q42 0 71 -18
l20 40l26 -12l-50 -86l-20 8l9 18q-21 21 -63 21q-56 0 -91.5 -45t-38.5 -104v-4q0 -44 77 -108q4 -3 11.5 -10t11.5 -10l59 -60l5 -10l15 -16q0 -2 3 -4l9 -16l20 -41q17 -34 21 -40q17 -45 17 -105v-17q-4 -64 -27.5 -96.5t-82.5 -58.5q-38 -16 -68 -16q-24 0 -43 10
l-2 -36l-30 6l14 108z" />
    <glyph glyph-name="T" unicode="T" horiz-adv-x="364" 
d="M30 772l302 4l2 -102h-22v66l-114 -1q0 -3 0.5 -7.5t0.5 -6.5l10 -318l5 -76q1 -19 4 -94v-13q0 -34 2 -96l4 -80l3 -7h5q1 0 3 0.5t3 0.5q20 0 20 -14q0 -8 -12 -20h-15q-3 0 -8.5 -2t-8.5 -3q-24 -8 -38 -8h-11q-7 2 -7 14t12.5 14.5t15.5 5.5l9 2v12q0 59 -6 183
q-3 42 -3 91v13q0 12 -1 26t-2.5 31.5t-2.5 26.5q-9 186 -9 222v86q0 1 -0.5 6.5t-0.5 10.5l-116 -1l2 -66h-22z" />
    <glyph glyph-name="U" unicode="U" horiz-adv-x="447" 
d="M60 450l-2 52q-5 107 -5 201v42q-25 3 -25 18q0 12 24 15q36 3 53 3q7 0 12 -6t5 -13q0 -14 -16 -14h-7q-1 0 -3 0.5t-3 0.5h-4l-4 -1h1q-2 -4 -2 -11v-24q0 -48 1 -72q1 -23 1 -68v-28q3 -15 3 -19v-70q5 -146 11 -238v1q5 -10 5 -27v-8l6 -26l4 -17l10 -42l4 -10h-1
q2 -1 4 -12v-1l1 -2v-10q0 -3 1 -3l8 -8q25 -35 76 -35q29 0 50.5 10.5t35 32.5t20.5 40.5t16 50.5q2 6 6 20.5t6 20.5q2 4 2 24v86q7 33 7 121q0 27 1 39q5 93 5 179q0 4 -0.5 11t-0.5 10v22q-1 10 -1 38h-25q-12 0 -12 15q0 13 12 18h30q47 0 47 -20q0 -11 -21 -18
q-2 -10 -2 -17v-25q0 -4 -0.5 -14.5t-0.5 -15.5q-2 -56 -2 -82q0 -8 2 -22q1 -6 1 -21q0 -9 -1 -14q0 -3 -1 -13t-1 -13q-2 -32 -2 -35l-1 -88q-3 -5 -3 -24v-23q-4 -22 -4 -31q0 -23 1 -34v-17q0 -3 0.5 -8.5t0.5 -7.5q0 -17 -9 -55l-7 -22v1q-19 -74 -50 -111.5t-98 -37.5
q-66 0 -97 37q-20 25 -32 88q-7 33 -15 93q-6 42 -10 62q-3 16 -3 49z" />
    <glyph glyph-name="V" unicode="V" horiz-adv-x="465" 
d="M243 9l-177 724l-1 11l-1 1q-3 0 -4 3h-5q-16 0 -23 6q-1 2 -2 6v6q0 8 1 10q25 3 44 3q12 0 34 -5q5 -2 5 -12v-2q0 -10 -14 -12q-5 -2 -5 -5q1 -5 3.5 -15.5t3.5 -16.5l3 -10l151 -626l125 647l3 25l-4 2q-16 2 -17 15v2q0 14 19 14h4q47 0 48 -22v-2q0 -9 -13 -13
l-4 -2q0 -4 -1.5 -12.5t-1.5 -12.5l-141 -708q0 -3 -13 -3q-14 0 -17 4z" />
    <glyph glyph-name="W" unicode="W" horiz-adv-x="640" 
d="M123 30l-17 187q-4 32 -4 64l-33 412v-1q-3 6 -3 12q-2 22 -2 50q-4 0 -18 4q-3 1 -6 1q-11 4 -11 13q0 5 4.5 9.5t9.5 4.5h40q4 -3 9 -3q13 -2 13 -14q0 -13 -10 -18v-21q0 -46 5 -99l7 -76q0 -1 0.5 -3.5t0.5 -3.5t-0.5 -3.5t-0.5 -5.5l36 -425q0 -4 -1 -4l2 -3l59 239
q10 30 28 94q1 5 4 15t4 15q28 104 44 147q3 4 13 4q18 0 24 -63q2 -20 4 -24l25 -143v1q5 -8 9 -38l2 -7l6 -33l5 -23l1 -5q1 -2 1 -9v-4l13 -54q0 -15 4 -21l25 -100v1q2 -4 2 -7l4 17q7 44 9 58l62 278v8q2 12 7.5 34t7.5 32q17 75 26 118q11 50 13 52l1 5q0 3 2 11
q0 2 0.5 5t0.5 6l1 2h-4q-22 0 -22 17l9 12h58q6 0 11 -6.5t5 -14.5q0 -11 -7 -11h-18l-7 -14h2l-1 -2l-2 -13l-3 -11q0 -3 -3 -9v1l-116 -536q-8 -110 -38 -110q-11 0 -13 5q-11 56 -23 89l-38 176q-3 19 -9 44l-6 26q-1 4 -12 62l-24 123l-11 -40l-6 -20q-11 -40 -11 -41
l-8 -27l-4 -16q-9 -43 -24 -76v1q-18 -72 -29 -120l-5 -27q-2 -5 -9 -33l-4 -16l-13 -55l-9 -29l-5 -14q-1 -1 -1 -5q-3 -12 -15 -12q-13 0 -13 14z" />
    <glyph glyph-name="X" unicode="X" horiz-adv-x="484" 
d="M331 18q0 13 20 17q-36 95 -63 155l-11 29l-8 21q-33 93 -38 98l-15 -28l-104 -232q-4 -4 -4 -9h2q8 -3 8 -12q0 -16 -12 -19l-31 -4q-15 -3 -28 -3h-5q-13 0 -13 12q0 9 7 15l13 2h1l2 1q21 5 23 10l47 95l9 25q19 38 26 59l16 36q18 40 28 60q0 1 3 4l1 2l1 2
q8 12 9 22l-38 91l-4 11.5t-5 11.5q-22 54 -34 80q-7 22 -20 43q-6 11 -14 29q-12 25 -32 77l-2 5v1q-1 1 -1 2v-1q-2 4 -4 4q-1 0 -5 -2q-2 -1 -9 -1q-9 0 -12 7l-3 6q0 14 23 18q10 2 12 4h18q23 0 23 -12q0 -9 -5 -14t-5 -10q7 -17 36 -78l17 -36l7 -15l50 -117l-4 -2
l16 -30l2 -5v1l13 -29l75 157l74 159q5 5 5 10q-2 0 -4 1q-12 5 -12 13q0 19 43 19h4q10 0 24 -4h1q1 -1 2 -1q6 -2 6 -10v-4q0 -17 -26 -17h-3q-3 -6 -8.5 -18t-12 -24.5t-7.5 -13.5q-4 -4 -6 -11q-3 -5 -3 -6l-79 -169q-3 -13 -7 -15l-27 -51l-23 -35h4l-2 -9q-3 -4 -3 -6
l27 -70l19 -48q5 -13 8 -26t12 -32l21 -42l18 -43q23 -69 29 -78q30 0 30 -14q0 -16 -7 -18q-11 0 -25 -2q-6 0 -9 -1q2 2 -11 2h-12v-4q-19 0 -19 14zM371 6q-1 0 -3 -0.5t-3 -0.5q1 0 3 0.5t3 0.5z" />
    <glyph glyph-name="Y" unicode="Y" horiz-adv-x="502" 
d="M211 -1q1 17 20 20q1 18 1 53q0 51 -3 100q0 14 -2 40q-2 40 -2 59q0 16 1 27q-1 6 -1 25q0 31 -4 63l-3 8l-39 90l-4 10q-1 4 -8 20q-5 15 -22 46l-20 40q-6 10 -13 29l-12 31q-9 20 -44 78h1l-3 5q1 -1 -9 4q-15 2 -15 16q0 15 26 15h10q1 0 2.5 -0.5t2.5 -0.5h4
q7 0 14 -5.5t7 -13.5l-4 -8q-2 -2 -2 -4l12 -23q16 -30 23 -45l13 -29q9 -22 31 -64l15 -33l9 -23q2 -4 7 -13t7 -14l6 -17l9 -22q13 -34 17 -38q14 23 25 48q2 2 4 11l4 7l10 20q60 123 96 191q5 10 8 13l7 10h-1q16 22 17 31l-2 4h1q-2 2 -2 6l2 8q1 2 5.5 5t5.5 3l44 -2
q8 -2 8 -11v-5q0 -3 -2 -6.5t-4 -6t-3 -2.5l-22 1q-5 0 -52 -97q-7 -9 -8 -13l-79 -157l-5 -7l1 1l-1 -2q-1 -1 -1 -2q-2 -8 -2 -11l-37 -75q0 -3 -0.5 -9t-0.5 -8q-1 -14 -1 -43t1 -42l1 -43l-1 -12q0 -48 3 -72l5 -136q19 -8 19 -18q-1 -20 -58 -20q-13 0 -13 15z" />
    <glyph glyph-name="Z" unicode="Z" horiz-adv-x="401" 
d="M28 -18v8q11 21 19 43v-1q2 10 4 13l6 16l23 57l8 22l34 89l38 74q2 2 2 5v2l1 2l71 181q3 4 5 13q0 4 2 6l5 15q20 48 25 61l11 25l28 71l6 15q9 18 9 29q0 1 -11 4q-35 0 -47 1q-4 0 -16.5 0.5t-16.5 0.5h-93q-39 0 -68 -5v-5q0 -15 -3 -42q-1 -7 -12 -7t-15 11
q-2 4 -2 28q-1 9 -1 27v4q0 8 6 16t14 8q10 0 18 -4q6 -3 11 -3q44 0 67 1q38 2 66 2h11q4 0 13.5 -0.5t15.5 -0.5h37q32 -6 44 -7q2 0 5 1q1 0 3.5 0.5t3.5 0.5h4q9 0 12 -14q-9 -18 -25 -60v1l-6 -16l-32 -80q-12 -30 -27 -60l-76 -191q-3 -9 -10.5 -25.5t-9.5 -22.5
l-7 -16q-12 -22 -20 -41q-44 -97 -88 -229h1q1 0 3.5 -0.5t5.5 -0.5q16 0 40 4q20 4 34 4h8q2 0 7 0.5t7 0.5q10 1 57.5 4t70.5 5l34 3v34q0 1 6 7t9 7q15 0 15 -23v-5q0 -15 -1 -23q0 -2 -0.5 -7.5t-0.5 -7.5v-6q-2 -12 -13 -12q-5 1 -8 2q-3 0 -5 2v1l-110 -9
q-70 -6 -105 -8q-42 -10 -85 -10q-12 0 -12 15z" />
    <glyph glyph-name="underscore" unicode="_" horiz-adv-x="499" 
d="M30 10q2 25 23 27l402 -2q4 0 9 -6.5t5 -8.5q0 -9 -2 -11l-6 -6q-1 -1 -16 -1l-349 -2q-22 -2 -37 -2h-13l-11 1q-5 6 -5 11z" />
    <glyph glyph-name="a" unicode="a" horiz-adv-x="403" 
d="M29 7q0 5 1 7q0 16 8 16l24 -2l-2 9v2q2 8 2 13q0 1 0.5 3.5t0.5 4.5l115 718q-6 0 -16 2l-15 3q-4 1 -8 6.5t-4 10.5v4q0 8 8 11q14 -2 22 -2q6 0 24 2h5q8 1 28 1q10 0 24 -2q20 -2 21 -18q0 -11 -9 -14h-6q-1 0 -4.5 -0.5t-5.5 -0.5h-16l-2 -1l138 -733v-4
q10 -10 11 -16v-4q0 -9 -9 -13q-2 0 -6 -0.5t-5 -0.5h-25q-12 0 -17 1q-4 0 -13 3q-7 4 -7 13q0 18 32 18l7 2q0 1 -0.5 2.5t-0.5 3.5l-32 186h-175q-5 -33 -16 -99.5t-16 -99.5q0 -1 -0.5 -2t-0.5 -2l1 -3h24q11 -2 11 -18q0 -19 -53 -19q-2 0 -5 0.5t-5 0.5h-14
q-6 3 -13 3l-3 3l-1 3zM204 749l-79 -483h162z" />
    <glyph glyph-name="b" unicode="b" horiz-adv-x="370" 
d="M28 12q0 13 13 17q11 5 11 9q0 1 -1 3v337q0 52 3 105q0 5 1 18.5t1 18.5q5 87 5 160l-1 51h-17q-10 0 -10 13q0 9 13 17q30 5 34 5h29q90 0 119 -34q3 -4 10 -20.5t8 -21.5v-18q0 -40 -13 -61q-13 -22 -69 -41l-9 -2q45 -27 76 -42q57 -34 83 -107t26 -150
q0 -109 -48 -174q-16 -20 -28 -28q-4 -4 -17 -10l-10 -5q-2 -1 -7 -4t-8 -4v1l-7 -6q-30 -19 -44 -21q-29 -7 -49 -9q-10 -1 -30 -5l-16 -3q-1 0 -5 -2q-12 -3 -26 -3q-5 0 -11 5.5t-6 10.5zM82 391v-356q59 0 105 25l58 29v-1q64 57 64 181q0 53 -12 97q-4 4 -6 15
q0 1 -0.5 3t-0.5 4q0 1 -1.5 4.5t-2.5 5.5q-12 35 -25 51q-21 31 -75.5 66.5t-90.5 35.5q-1 0 -2 -0.5t-2 -0.5h-2l-3 -67v-13q-2 -56 -4 -79zM92 719l3 -136q0 1 1 1h9q26 0 68 19.5t42 40.5v40q-3 3 -3 4q-16 27 -40 36t-61 9h-17q0 -2 -0.5 -4t-0.5 -3q-1 -3 -1 -7z" />
    <glyph glyph-name="c" unicode="c" horiz-adv-x="398" 
d="M300 186l16 22l52 -74l-18 -24l-10 14q-46 -99 -122 -99q-36 0 -55 16l-46 39q-8 7 -14 20l-5 9q-1 3 -7 15q-4 4 -8 12l-23 62q-22 78 -29 180q-1 12 -1 40q0 46 5 91.5t19 96t35.5 88.5t58 63t82.5 25q23 0 60 -37q18 -20 25 -31l19 36l22 -10l-44 -94l-26 12l14 27
q-17 31 -46 57q-12 10 -20 10q-51 0 -79 -24t-49 -74q-49 -118 -49 -258v-20q1 -6 3 -19t2 -19q17 -130 48 -186l27 -48q42 -49 79 -49q25 0 49.5 17.5t35.5 40.5l4 7l8 22l5 16z" />
    <glyph glyph-name="d" unicode="d" horiz-adv-x="371" 
d="M48 22q0 12 11 14l9 732q-2 21 -15 21q-1 0 -4 0.5t-4 0.5t-4 -0.5t-4 -0.5q-7 11 -7 17q1 13 33 13l34 -1q75 -5 138.5 -61.5t86.5 -132.5q12 -39 14 -67q0 -3 1 -13t1 -11l1 -3q1 -2 1 -9q0 -3 0.5 -16t0.5 -21q0 -9 -0.5 -21t-0.5 -13l-3 -43q-5 -81 -23 -139
q-24 -78 -94 -151.5t-148 -110.5h-6q-7 0 -12.5 4.5t-5.5 11.5zM276 666q-30 50 -76.5 82t-100.5 36q-1 -3 -1 -7q0 -5 1 -7v-18q0 -2 -8 -701q49 18 110 90l19 19q26 31 30 37l9 20l15 27q0 1 1 3t1 3l6 13q0 3 1 3q23 83 23 148q2 30 2 44q0 80 -18 157q-1 1 -1 5z" />
    <glyph glyph-name="e" unicode="e" horiz-adv-x="302" 
d="M236 40v6h-23q-8 0 -38 -2q-8 -1 -30 -1q-44 -2 -67 -2h-9l-12 11v346q-27 0 -27 16q0 17 13 17h14l15 330q-2 2 -2 5q0 4 2 12q2 6 2 10l115 1q36 -2 51 -2v13h32v-86h-32v43q-12 5 -31 5q-7 0 -41 -2q-15 -1 -32 -1q-13 0 -34 -3l-6 -163q-4 -109 -5 -162l137 -3v32h28
v-98h-28v32q-31 0 -51 1q-5 0 -18.5 0.5t-17.5 0.5h-50l-4 -27v-267l3 -27h146v65h30v-100h-30z" />
    <glyph glyph-name="f" unicode="f" horiz-adv-x="284" 
d="M53 25q0 11 22 19q2 1 3 2v10l-22 370v68q0 5 -2 37q-1 15 -1 31q0 4 0.5 12t0.5 12v67q0 48 -5 84l-6 4q-15 2 -15 14q0 11 15 14q16 0 24 1q94 7 137 7h27q7 0 15.5 -5.5t8.5 -11.5q0 -16 -6.5 -39t-17.5 -23q-9 0 -11 6q0 12 -1 20q0 3 -0.5 7.5t-0.5 5.5v3
q-4 7 -12 7h-11q-1 0 -4 -0.5t-5 -0.5q-6 0 -11 -1q-1 0 -3.5 -0.5t-4.5 -0.5q-84 -6 -87 -6q0 -1 -1 -1v-8q0 -24 3 -43l4 -238h65q16 0 41 0.5t30 0.5v-11q0 -6 -0.5 -8.5t-2.5 -4t-7 -2.5h-31q-1 0 -31 -2q-44 -4 -61 -4l13 -301l7 -64q5 0 8 1h5q1 0 3.5 0.5t3.5 0.5
q14 0 14 -16q0 -11 -3.5 -13.5t-12.5 -2.5h-3q-2 -1 -4 -1q-8 0 -33 -7q-5 0 -15 -5q-5 0 -12 6t-7 10z" />
    <glyph glyph-name="g" unicode="g" horiz-adv-x="419" 
d="M182 307q1 15 25 17q1 -1 6 -1q2 0 16.5 0.5l57 2l102.5 3.5l-11 -107q2 1 -2 -5q-1 -2 -1 -3t-0.5 -3t-0.5 -4q-9 -32 -14.5 -49t-20 -49t-29 -49.5t-38.5 -32t-52 -14.5q-37 0 -56 16q-40 33 -56 58t-44 90l-4 10q-23 78 -30 179q-1 12 -1 43q0 59 8.5 116t29 115.5
t61.5 94t98 35.5q25 0 61 -36q40 -41 62 -100l-25 -22q-29 83 -73 118q-15 10 -20 10q-51 0 -78 -24t-49 -74q-49 -119 -49 -252q0 -156 72 -281l9 -17q47 -49 81 -49q25 0 49.5 17.5t35.5 40.5l3 7l7 19q11 30 12 31l1 4q23 48 25 74l4 48q0 9 1 14q-17 0 -53 -0.5
t-53 -0.5q-22 -2 -37 -2h-13l-11 1q-6 6 -6 11zM136 92h1q0 -1 -1 0z" />
    <glyph glyph-name="h" unicode="h" horiz-adv-x="379" 
d="M41 12v1q0 16 32 16h2v24q0 12 -2 38q0 3 -0.5 8.5t-0.5 8.5q-2 22 -2 40q0 5 -0.5 15t-0.5 14v26q-2 64 -2 109q0 41 1 67l-2 1q-3 1 -3 2q-14 2 -14 13q0 10 10 14q6 2 6 6q0 3 -0.5 7.5t-0.5 6.5v11q-1 8 -1 28v32q-3 218 -8 285q0 3 -2 7h-2q-1 0 -3 -0.5t-3 -0.5
q-17 0 -17 15q0 3 8 7t22 7t29 3h12q7 -2 7 -11q0 -16 -19 -19v-55q0 -23 1 -41q0 -5 0.5 -13t0.5 -11v-149q0 -67 6 -109h2q1 0 2.5 -0.5t2.5 -0.5h20q2 0 5.5 0.5t4.5 0.5h4q33 0 60 1q9 0 22 0.5t16 0.5h6q13 0 37 4q1 0 2.5 0.5t3.5 0.5h1l2 1h4v3q1 3 1 6v30
q-7 178 -7 334h-1q-1 -1 -6 -1q-11 0 -11 12q0 6 4.5 10t11 6l22.5 7l9 2q24 -4 24 -20q0 -12 -24 -14q-4 -13 -4 -30v-24q0 -2 0.5 -4t0.5 -3v-13q4 -34 4 -181q4 -213 11 -349q2 -24 2 -46v-13q2 -60 8 -88v1q3 -5 5 -5q9 -5 9 -17q0 -5 -24.5 -12.5t-34.5 -7.5t-10 14
t15 17q11 7 11 9q0 7 -2 23v5q0 1 -0.5 3t-0.5 4v8q-5 86 -14 302q-4 2 -8 2q-21 0 -54 -3l-30 -2q-30 -3 -54 -3q-36 0 -48 -2v-3q0 -2 -0.5 -8t-0.5 -9v-16q0 -112 8 -243v-10q0 -7 1 -20.5t1 -23.5l1 -9l4 -7q17 -2 17 -17q0 -11 -7 -15q-29 -5 -55 -5h-13q-6 4 -10 15z
" />
    <glyph glyph-name="i" unicode="i" horiz-adv-x="182" 
d="M38 0h-2q-10 2 -10 13q0 15 12 15l29 2v10q0 13 -1 18l22 526q0 43 2 75q0 3 0.5 12.5t0.5 12.5q2 30 2 49q0 1 -0.5 2t-0.5 2v8h-2q-3 -3 -5 -3t-5 3l-13 15q0 6 14 20h6q1 0 3 0.5t4 0.5q5 1 16 1q5 0 9 -2h23q12 0 12 -16q0 -5 -3.5 -10.5t-8.5 -5.5h-21l-4 -53
q0 -4 -1 -12t-1 -12q-5 -63 -5 -114v-27q0 -2 0.5 -4t0.5 -4l-10 -276v-18q0 -1 0.5 -3t0.5 -4q0 -35 -3 -68q0 -3 -0.5 -11t-0.5 -10q-2 -32 -2 -48v-56q0 1 4 1q19 -2 19 -18q0 -14 -18 -14h-8q-25 0 -55 3z" />
    <glyph glyph-name="j" unicode="j" horiz-adv-x="234" 
d="M27 146v9q0 14 22 14q11 0 11 -11v-17q0 -1 -0.5 -3t-0.5 -4q0 -83 37 -100q6 -3 25 -3q32 0 47 50v-1q11 103 11 162q0 32 -1 49l-12 230q-3 159 -3 182q0 8 -0.5 24.5t-1.5 30.5l-1 13l-4 4q0 1 -31 3h-43v-46q0 -12 -17 -12q-11 0 -15 10v33q0 1 -0.5 3.5t-0.5 4.5
q0 31 15 36h29q15 0 29 -2q9 -1 30 -1q3 0 9 2q3 1 12 1q16 0 19 -30q10 -138 10 -372q0 -53 4 -78v-174q0 -11 -7 -71q-4 -29 -25.5 -54.5t-54.5 -25.5l-19 3l-1 1h-2q-18 2 -28 9q-20 15 -29.5 40t-11 42.5t-1.5 48.5zM82 778v1v-1z" />
    <glyph glyph-name="k" unicode="k" horiz-adv-x="383" 
d="M77 14v7q0 10 5.5 13t17.5 4l-16 212q0 13 -1 20q0 2 -0.5 5t-0.5 4v10l-7 118q-2 27 -7 123q-5 28 -7 71q0 1 -0.5 4.5t-0.5 5.5v11v2l-1 2v24q-6 87 -9 95v2q-21 2 -21 15q0 20 41 20l8 -2q16 -4 16 -19q0 -11 -10 -11q1 0 0 -1l-3 -3l-1 -1v-2v-5q0 -29 4 -71
q6 -50 6 -73v-12q4 -59 7 -92l7 -81q13 32 38 85l14 32q22 53 103 226v-1l4 12h-2q-11 0 -11 12q0 19 50 19h2q2 -1 4 -1h9q7 -7 7 -11q0 -8 -15 -16l-5 -2l-3 -2h1q-13 -10 -31 -52l-136 -302l-5 -15q-6 -16 -6 -21q0 -1 4 -7l2 -5l10 -12l18 -26q20 -29 34 -55l71 -106
l23 -44l4 -7l17 -29l18 -25l30 -4v-22l-7 -7h-15q-1 0 -4 0.5t-5 0.5t-5 -0.5t-4 -0.5h-17l-2 -1h-3q-4 -1 -11 -1q-5 0 -9 4.5t-4 9.5q0 11 19 19l-3 6l-4 6l-16 36l2 2l-16 16h1l-6 7q-1 1 -4 10q-12 20 -42.5 66l-45.5 70q-6 4 -21 31q-20 30 -23 32v-5q0 -1 -0.5 -5
t-0.5 -6v-8q0 -35 3 -65v-5q1 -4 2 -10.5t1 -11.5q4 -26 4 -35l6 -68q4 -45 5 -63q0 -2 2 -8l3 -9q9 -7 9 -14q0 -16 -30 -16h-9q-18 0 -26 7z" />
    <glyph glyph-name="l" unicode="l" horiz-adv-x="307" 
d="M48 30v50q0 90 4 266q4 180 4 266v23q0 8 -0.5 29t-0.5 32v85q-6 5 -13 7q-16 2 -16 15q0 15 27 15h1q2 -1 3 -1h14q7 0 21 4q10 3 23 3q12 0 12 -14q0 -12 -7 -14q-12 -1 -35 -10q-2 -42 -2 -110v-11q0 -3 -0.5 -11.5t-0.5 -12.5v-17q0 -30 1 -44v-5q2 -24 2 -36
q0 -82 -3 -166q0 -8 -1 -28.5t-1 -28.5q-5 -122 -5 -220v-39q0 1 2 1q18 0 56 2q2 0 7.5 0.5t8.5 0.5q12 1 39 1h51q1 -1 5 -1q0 4 2 16q1 4 1 13q0 11 2 37q5 9 14 9q5 0 9.5 -6.5t4.5 -11.5v-76q0 -5 -5.5 -9.5t-10.5 -4.5q-1 0 -3 0.5t-4 0.5h-5q-19 0 -23 4h-5
q-3 0 -10 0.5t-11 0.5h-34q-4 0 -11 -0.5t-10 -0.5h-7q-22 0 -45 -5l-21 -4q-3 -3 -9 -3q-9 0 -15 9z" />
    <glyph glyph-name="m" unicode="m" horiz-adv-x="595" 
d="M30 -1q0 16 9 17l29 4l9 753l-14 3q-5 1 -9.5 4.5t-4.5 7.5q0 9 9 15q30 5 40 5l3 1q14 0 14 -16q0 -5 -2 -11q-1 -3 -1 -6q0 -8 40 -152v1q0 -9 101 -377q1 -10 3 -11l194 515l-4 3q-7 2 -7 10q0 19 46 19h5q12 0 12 -15t-19 -20q0 -13 2 -36t2 -29l37 -639l1 -2l3 -6
q8 0 11 1q8 2 12 2q14 0 14 -19v-4q0 -8 -8 -11q-4 1 -12 1q-15 0 -30 -6q-10 -5 -15 -5q-4 -3 -8 -3q-14 0 -14 17q0 11 10 13l3 3h1q4 2 4 6l-39 663q-1 -8 -4 -17l-160 -429l-9 -29q-3 -11 -8 -25q0 -1 -0.5 -2t-0.5 -2q-4 -13 -17 -13t-19 9l-134 498l-9 -661l1 -2
q1 -3 2 -3l6 -4q7 -9 7 -11q0 -9 -11 -13q-1 0 -11.5 -1t-21.5 -2.5t-14 -1.5l-2 -1q-3 -1 -9 -1q-13 0 -13 15zM154 615q-1 4 -1 7q0 -3 1 -4v-3zM155 614l-1 1zM153 622l-1 2q1 -1 1 -2z" />
    <glyph glyph-name="n" unicode="n" horiz-adv-x="428" 
d="M28 33q0 14 9 14h12q0 2 0.5 5t0.5 4v26q0 16 -2 26q-5 116 -5 282q0 64 1 97q-3 23 -3 78v69q-5 17 -5 55v28v2q-1 2 -1 3q0 24 13 24q12 0 17 -16q1 -2 4 -5q13 -29 31 -78l8 -21q14 -37 32 -75l25 -56q12 -33 41 -94l14 -31q21 -45 26 -69q21 -54 31 -70q1 -4 7 -16
q23 -57 41 -83q2 36 2 53v22l15 277q0 9 2 25v6q3 39 3 76v47q0 4 -0.5 11.5t-0.5 11.5v21h-5h-1l-2 -1l-9 -1q-5 0 -9.5 4t-4.5 9t5 11t9 6h47q7 0 14.5 -5t7.5 -11q0 -11 -13 -13q-6 -3 -7 -4q0 -10 -1 -12q0 -1 -0.5 -5t-0.5 -5q-3 -41 -4 -103q0 -12 -1 -37t-1 -37
q0 -2 -0.5 -9t-0.5 -11v-10q-2 -48 -6 -97q-2 -20 -4 -58q-3 -69 -3 -149v-44q0 -4 0.5 -12t0.5 -12v-20q-4 -12 -12 -12q-11 0 -22 20t-15 35l-42.5 90.5l-39.5 83.5q-10 20 -18 44l-3 8l-15 39q-2 6 -8 18q-9 20 -19 49l-4 10l-12 27q-2 5 -19 39q-18 34 -25 51l-15 39
q-14 42 -25 64q0 -19 2 -33q4 -91 6 -276q2 -151 7 -275q0 -19 2 -28q12 -1 18 -4.5t6 -15.5t-8 -12h-56q-4 0 -8 6t-4 10z" />
    <glyph glyph-name="o" unicode="o" horiz-adv-x="421" 
d="M30 378q-1 12 -1 40q0 46 5 91.5t19 96t35.5 88.5t58 63t82.5 25q23 0 60 -37q27 -27 46.5 -69.5t27 -73.5t16.5 -82l5 -26q4 -23 6 -60l1 -17q0 -42 -2 -47l1 1l-13 -137q2 1 -2 -5q-1 -2 -1 -3t-0.5 -3t-0.5 -4q-11 -38 -20 -62t-28 -59.5t-46.5 -54t-61.5 -18.5
q-36 0 -55 16l-46 39q-8 7 -14 20l-5 9q-3 8 -8 15h1q-4 4 -8 12l-12 19l-11 43q-22 78 -29 180zM136 104h-1q44 -49 80 -49q25 0 49.5 17.5t35.5 40.5l4 7l8 22q1 3 2.5 6.5t2 6t1.5 5t2 3.5q3 9 3 11q22 42 26 74l4 48q0 15 1 20q0 3 0.5 11t0.5 11l1 3v-1q4 41 4 96
q-3 52 -11 85l-3 16q-9 46 -17 76t-28 68t-48 61q-12 10 -20 10q-51 0 -79 -24t-49 -74q-49 -118 -49 -258v-20q0 -6 2 -19t3 -19q17 -130 48 -186z" />
    <glyph glyph-name="p" unicode="p" horiz-adv-x="363" 
d="M70 3q0 15 14 15h2q2 -1 4 -1h3v21q0 3 -0.5 8.5t-0.5 7.5v11l-2 13l-33 678h-1l-2 -1h-14q-13 0 -13 11q0 19 30 23q8 0 36 4q23 3 34 3h15q53 0 96 -14q15 -7 38 -30l3 -3v1q12 -10 20 -23q5 -15 26 -56q8 -19 8 -62q0 -33 -22 -81q-47 -98 -204 -133l3 -108
q2 -66 2 -107q2 -14 2 -30l12 -129h23q6 0 6 -12v-9q0 -7 -3 -8q-4 0 -7 -1q-6 -2 -8 -2q-1 0 -3 -1h1q-14 -4 -22 -4q-43 0 -43 19zM90 746l9 -193q0 -83 5 -123h5q61 0 130 53v-1l12 11q7 4 16 13h-1l5 8q2 2 4 10q28 54 28 77q0 71 -35 117q-38 49 -126 49h-6
q-26 0 -46 -7v-14z" />
    <glyph glyph-name="q" unicode="q" horiz-adv-x="440" 
d="M28 417v14q0 2 0.5 4.5t0.5 3.5v4q18 137 36 193q14 42 28 77q10 24 34.5 53.5t44.5 37.5q25 8 71 8h10q79 -5 124 -148l5 -29q13 -61 15 -78q0 -10 1 -17q0 -14 2 -16l5 -30q5 -20 5 -40q0 -115 -15.5 -204.5t-58.5 -172.5l21 -21q0 -17 -15 -17q-7 0 -15 6q-7 5 -10 5
q-5 0 -19 -11l-1 -2l-1 -1v-3q-39 -32 -82 -32h-10q-37 5 -63 21q-12 9 -14 15h1q-4 4 -12.5 13.5l-14 15.5t-6.5 7q-11 22 -18 45q-1 2 -1 3l-6 18q-42 126 -42 278zM55 430v-21l13 -134l6 -28l3 -17q9 -44 24 -85q21 -51 47 -80.5t69 -29.5q41 0 74 31q-1 3 -6 5
q-2 0 -6 5v-1q-20 13 -20 30q0 15 17 15q11 0 18 -10h-1l4 -6q3 -9 13 -10q45 81 51 131q0 4 1 6q0 1 0.5 2.5t0.5 2.5q14 92 14 141q0 26 -1 37q5 11 5 31q0 16 -6 46l-2 9q-4 12 -4 22l-3 31q-9 78 -25 117l-33 72q-27 44 -69 44q-6 0 -18 -6q-12 -5 -22 -5l-7 1
q-2 0 -3 1l-5 1q-7 0 -12 -5q-92 -84 -114 -332q-3 -4 -3 -11z" />
    <glyph glyph-name="r" unicode="r" horiz-adv-x="414" 
d="M71 -7l-10 8q0 6 8 12.5t14 7.5l2 -1h4h10l-15 427l1 12l-7 174q0 7 1 9l-7 44q-3 13 -7 43l-25 -4q-4 0 -8 5.5t-4 7.5q0 15 27 19l11 3q4 0 8 4h2q2 1 5 1t11 -2t10 -2l17 2h33q112 0 156 -47q35 -41 42 -87q1 -4 1 -15q0 -33 -13.5 -69t-36.5 -56q-42 -37 -113 -52
l-33 -3h-13q11 -37 53 -95l20 -28q18 -31 47 -89l8.5 -17.5t9.5 -17.5q0 -1 5 -8l4 -7l16 -33q1 -1 2.5 -3.5l3 -5t2.5 -3.5h-1l5 -7l7 -11l-3 -1q7 -7 10 -13q15 -32 24 -34q6 -2 9 -2q19 0 20 -13v-4q0 -9 -9 -12q-19 -4 -39 -4q-19 0 -27 -1q-9 3 -9 15q0 10 17 16
q-9 20 -25 44l-15 27l-50 97q-4 4 -4 8l-13 27l-33 50q-13 19 -32 50q-18 30 -24 48h1l-10 10v-6l-1 1q3 -6 3 -7l15 -366l2 -18q13 -5 16 -17q0 -12 -14 -14q-6 -1 -20 -1q-26 0 -42 4zM111 460q2 -5 14 -5q133 19 174 78q20 42 20 67q0 7 -2 21q-4 31 -14 49.5t-21 26.5
t-44 28h1q-40 10 -81 10q-24 0 -46 -3l-14 -3q0 -13 1 -14q0 -23 6 -89q3 -27 3 -46l1 -4v-8q0 -2 0.5 -4.5t0.5 -3.5v-7q0 -3 -0.5 -9t-0.5 -8v-40q0 -23 2 -36z" />
    <glyph glyph-name="s" unicode="s" horiz-adv-x="333" 
d="M82 100l-10 -32q32 -24 86 -24q113 0 115 129q0 1 -0.5 2.5t-0.5 2.5v8q-16 85 -40 125q-6 7 -28 36q-4 5 -10.5 15.5t-9.5 14.5h1q-4 4 -8 6l-34 41q-7 9 -15 18l-7 8h1l-8 7h1q-40 42 -62.5 77t-22.5 74v9q0 1 0.5 4.5t0.5 6.5q22 65 56.5 98t96.5 33h20q5 0 13 -4
q2 -1 4 -1l25 -10l8 26l24 -6l-30 -100l-24 6l13 44q-23 16 -57 16q-33 0 -51 -10.5t-43 -39.5q-26 -35 -26 -70q0 -20 10.5 -41.5t20 -34t28.5 -35.5l18 -22q9 -12 93 -108q73 -106 73 -201q0 -73 -39 -113t-111 -40q-55 0 -90 22l-7 -23l-20 10l28 88z" />
    <glyph glyph-name="t" unicode="t" horiz-adv-x="350" 
d="M149 18l5 9l3 3l25 6l-13 688q0 1 -3 43l-110 -4l4 -87h-28l-2 116l282 8l2 -10l6 -96h-20l-6 77l-97 -3l10 -646q0 -17 1 -31q2 -28 2 -29q1 -27 11 -27l2 1h3q10 0 10 -14q0 -11 -10 -17q-14 0 -49 -5h-1l-2 -1l-8 -1q-6 0 -11.5 7t-5.5 13z" />
    <glyph glyph-name="u" unicode="u" horiz-adv-x="435" 
d="M89 101q-29 78 -32 130l-12 196v28q0 77 3 150q4 102 4 152l-2 16q-22 5 -22 18q0 10 14 17h5q3 -3 6 -3h5q24 3 32 3q15 0 15 -19q0 -15 -14 -15h-6l-12 -303q2 -32 2 -64q1 -46 2 -73.5t5 -75.5t13.5 -78.5t24.5 -62.5t39.5 -48t57.5 -16h14q26 0 39 5q67 23 90 161
q15 106 15 219q0 110 -8 197l-10 100v9h-16q-10 0 -10 14q0 19 44 19h13q6 0 11.5 -4.5t5.5 -10.5q0 -14 -15 -20v-16q0 -15 2 -39l3 -40q4 -86 5 -87l5 -37v-174q0 -16 -15 -133q-29 -193 -173 -193q-83 0 -128 78z" />
    <glyph glyph-name="v" unicode="v" horiz-adv-x="496" 
d="M248 72l-39 119q-15 48 -24 108l-10 51q-3 13 -18 56l-6 17l-7 18q-3 11 -10 43l-2 9q-10 32 -13 39l-26 123q-15 35 -20 60l-9 14h-5l-2 -1h-3q-26 0 -26 18q0 8 7 10q16 3 18 3q28 5 65 14q15 0 15 -26q0 -9 -6 -11h-10h-1l-2 1q-7 0 -15 -4q14 -45 20 -55
q21 -109 57 -233q10 -19 11 -36q0 -1 0.5 -2.5t0.5 -2.5q4 -17 12 -29q18 -126 75 -288l2 10l7 46q6 32 8 51q17 121 26 174h4q0 9 3 27l9 36q2 16 5 27l7 35q2 7 4 9q1 7 21 85l21 86l3 10q14 33 14 48h-2q-33 0 -33 21q0 5 4 10.5t10 5.5q5 0 9 -2q2 -1 3 -1q17 0 25 1
q12 2 20 2q6 0 12.5 -4.5t6.5 -10.5q0 -14 -16 -18l-5 -2l1 1l-7 -5l-67 -260l-18 -89l-8 -27l-38 -264q-4 -74 -28 -74q-10 0 -18.5 21t-11.5 36z" />
    <glyph glyph-name="w" unicode="w" horiz-adv-x="619" 
d="M112 45l-15 139v6q-5 90 -10 143l-25 322q1 1 1 3l-1 2v2l-9 107q-24 2 -24 19q0 7 11 18h7q1 0 3.5 0.5t4.5 0.5q4 0 12 -2t13 -2q1 0 3 -0.5t3 -0.5q12 -4 22 -4q8 -2 8 -15q0 -15 -10 -15h-22q0 -2 -1 -3v-4q7 -101 13 -171q0 -3 1 -6q0 -1 0.5 -4t0.5 -5l27 -388v1
q6 -15 8 -64q0 -4 1 -16t1 -17q5 13 11 34l13 62q1 7 5 23.5t6 25.5q5 27 10 39h-2v8l39 153l1 2v2q1 4 1 9l2 10q8 45 23 92q0 4 1 5v-1q0 1 0.5 2.5t0.5 2.5q11 50 31 50q13 0 24 -51l12 -54l3 -17q7 -35 10 -37q13 -23 26 -92l22 -85q25 -105 50 -178v1q14 68 19 101
l86 567q-2 0 -4 -1h-3l-3 -1h-4q-7 0 -14 7t-7 14q0 10 9 16h13q19 0 28 1h13q3 0 8 0.5t7 0.5q1 0 5 -3t7.5 -8.5t3.5 -10.5q0 -10 -24 -17l-1 2q-1 -7 -5 -22.5l-6 -23.5l-101 -646q-3 -3 -3 -8l-11 -36q-1 -9 -12 -9q-13 0 -16 7q-1 3 -1 6q-16 62 -22 79l-51 206
q-2 1 -2 4q-1 1 -1 3l-6 22q-4 12 -5 22l-17 58l-14 48v-1q-16 55 -18 61v2q0 -1 -0.5 -1t-0.5 -1q-3 -6 -3 -9l-26 -118q-11 -27 -14 -43q-5 -27 -11 -42v1l-69 -320q-5 -10 -15 -10q-15 0 -20 42q0 1 -0.5 3.5t-0.5 5.5z" />
    <glyph glyph-name="x" unicode="x" horiz-adv-x="497" 
d="M45 11v6q3 7 22 10q4 0 4 1l14 31q0 1 2.5 6l3.5 7q13 33 19 44q4 11 23 44l7 12l5 7h-1q8 10 23 41q14 47 28 69l13 24l5 10q23 44 23 49t-15 32.5t-20 33.5q-25 63 -78 171l-59 125h-2q-33 3 -34 20q0 17 25 17h12l4 3h6q5 0 13 -5l1 1q1 0 2 1q5 1 9 1q6 0 11 -6
t5 -15q0 -12 -16 -16h-4l1 -3q0 -1 0.5 -2.5t0.5 -2.5l39 -80q7 -10 16 -31l2 -7v1q8 -25 17 -38l72 -152h-1l5 -7l3 -6q11 33 45 101l3 7l13 30q33 89 73 161l4 6v-1q0 1 1 2t1 2q11 15 11 27l-4 2q-10 4 -10 14q0 16 13 16q10 0 20 -5h34q10 0 10 -14q0 -13 -7 -18
q-6 -1 -10 -2l-15 -4l-3 -1h1q-39 -60 -115 -247l-43 -110q3 -21 17 -48l2 -5v1q9 -16 12 -30v1l80 -165q11 -38 27 -73h-1q0 -1 6 -1q15 0 16 -19q0 -17 -11 -17h-10q-1 0 -3 -0.5t-3 -0.5h-5q-39 0 -39 20q0 14 17 14q-1 4 -4.5 14l-4.5 13l-3 9l-2 9l-2 5v-1
q-14 35 -40 86l-13 26l-33 74q-20 40 -23 48q-5 -11 -6 -13l-11 -20l-16 -28l-12 -27q-2 -5 -6 -14t-5 -12q-2 -5 -5.5 -13t-5.5 -13t-3 -7l-25 -48q-31 -57 -44 -92v1l-4 -13q15 -6 16 -20q0 -6 -7 -13l-1 -1h-3q-27 -5 -52 -5q-17 0 -18 16z" />
    <glyph glyph-name="y" unicode="y" horiz-adv-x="525" 
d="M183 -6q0 16 30 16l1 1v2v1l1 2q0 1 0.5 3.5t0.5 3.5q3 10 3 20q0 1 -2 7q-1 3 -1 12q0 86 1 128q2 80 2 131v26q0 6 -0.5 16t-0.5 14v9l-2 12l-22 55l-8 27q-60 150 -98 223l-6 16q-3 7 -4 9l-10 22q-40 3 -40 25q0 12 15 12h6q24 0 36 -1q1 0 6.5 -0.5t8.5 -0.5
q23 -2 23 -20q0 -11 -18 -16q7 -17 13 -27l13 -28q23 -46 31 -66q9 -19 20 -52l12 -34q22 -64 43 -109q0 -3 2 -5q6 11 41 69l12 19q32 54 44 78l10 22q18 40 22 47q8 18 18 30q35 58 40 84l-3 4q-7 5 -8 13q0 2 10 12h19l4 2h-1q2 1 5 1q5 0 23 -10.5t18 -15.5
q0 -9 -12 -17h-5q-2 0 -4.5 0.5t-3.5 0.5q-12 0 -16 -4h1q-9 -27 -30 -69l-5 -7q-17 -27 -39 -75l-9 -18l-18 -35q-15 -26 -34 -56l-34 -57.5t-23.5 -53.5t-12.5 -62v-316q12 -2 18 -7v-6l1 -2q0 -18 -10 -19q-27 -3 -47 -3q-27 0 -27 17z" />
    <glyph glyph-name="z" unicode="z" horiz-adv-x="457" 
d="M45 25v1q5 16 11 29q4 4 7 10q0 1 2 3h-1l9 21q5 17 13 30q25 40 56 107q9 18 10 21q2 6 9 20.5l8 16.5l12 18q2 4 3 7l26 50l15 29q29 58 37 83q70 143 98 250l-53 7q-73 11 -130 11h-34q-2 0 -8 -0.5t-9 -0.5l-59 -1l-4 -3l1 -1v-2q1 -9 5 -27q4 -19 5 -25v-4
q0 -13 -16 -13q-8 0 -10 6l-9 33q-9 28 -11 56q0 12 16 14h10q2 0 5 0.5t4 0.5h4q111 0 193 -8l37 -5q42 -7 79 -7h14q1 0 3 0.5t3 0.5q11 -5 12 -14q0 -11 -1 -13l-9 -14q-25 -45 -53 -136l-80 -176q-14 -25 -27 -56l-3 -8l-19 -38l-13 -22q-29 -49 -42 -90
q-33 -55 -57 -103l-2 -6q-3 -6 -6.5 -15t-5.5 -13h8q31 0 57 2h8l42 3q26 1 79 1q70 0 106 4q0 12 -2 44q0 2 -0.5 4.5t-0.5 3.5v6q0 12 15 12q12 0 16 -10l5 -37l3 -49q-2 -11 -16 -11h-7q-80 0 -125 3q-15 -3 -19 -3h-43q-22 -1 -66 -5l-70 -6l-2 -1h-4q-6 -2 -14 -2
q-6 0 -10.5 5.5t-4.5 11.5z" />
    <glyph glyph-name="exclamdown" unicode="&#xa1;" horiz-adv-x="134" 
d="M83 567l20 -446q0 -4 0.5 -13.5t0.5 -14.5v-46q0 -4 -0.5 -12t-0.5 -11v-9q-7 -10 -19 -10q-11 0 -13 8v45q0 8 0.5 24t0.5 24q0 104 -4 183l-20 372v36q0 9 14 9t14 -11v-11q5 -46 7 -117zM80 785q0 -7 -6.5 -13.5t-14.5 -6.5q-12 0 -20.5 8.5t-8.5 20.5q0 8 8.5 13
t15.5 5q12 0 19 -8t7 -19z" />
    <glyph glyph-name="ordfeminine" unicode="&#xaa;" horiz-adv-x="309" 
d="M263 498q-18 0 -29.5 16t-13.5 35q-10 -4 -25 -16l-6 -5q-2 -1 -6 -4t-7 -5t-5 -3q-18 -7 -63 -7q-32 0 -57 21.5t-25 51.5q10 68 46 87t112 19l12 -2l27 -4q0 13 -10 30l-4 7l-6 15q-11 28 -67 28q-13 0 -18 -6q-1 -11 -7 -23.5t-15 -12.5q-18 0 -18 49q0 15 10 22h9
q5 0 23 2q2 0 4.5 0.5t3.5 0.5q8 2 15 2h15q37 -11 45 -14q27 -13 39.5 -45.5t12.5 -65.5q0 -18 -1 -27q-2 -18 -2 -28q0 -41 3 -71q1 -2 10 -11q14 -4 14 -19q0 -10 -3 -13.5t-13 -3.5zM57 588q0 -21 14.5 -33t36.5 -12q3 0 9 2q3 1 11 1q4 0 8 -2l3 -1q15 0 45 18t34 32
v-1q2 12 2 34v14q-12 22 -69 22q-31 0 -62.5 -21.5t-31.5 -52.5z" />
    <glyph glyph-name="guillemotleft" unicode="&#xab;" horiz-adv-x="386" 
d="M123 238l-55 79l-30 30q-8 8 -8 16v7l26 39q0 1 0.5 1t0.5 1q36 56 43 64q4 6 17.5 23.5t19.5 27.5q46 61 75 103q4 8 15 8q15 0 15 -21q0 -7 -31 -48q-46 -58 -135 -188q-8 -8 -8 -16q21 -20 52 -62l33 -50l13 -15q11 -15 28 -35l18 -19l30 -34v-8q0 -7 -4.5 -13.5
t-10.5 -6.5q-4 0 -22 18l-66 82zM237 242l-55 79l-30 30q-8 8 -8 16v7l26 39q0 1 0.5 1t0.5 1q36 56 43 64q4 6 17.5 23.5t19.5 27.5q46 61 75 103q4 8 15 8q15 0 15 -21q0 -7 -31 -48q-46 -58 -135 -188q-8 -8 -8 -16q21 -20 52 -62l33 -50l13 -15q11 -15 28 -35l18 -19
l30 -34v-8q0 -7 -4.5 -13.5t-10.5 -6.5q-4 0 -22 18l-66 82z" />
    <glyph glyph-name="ordmasculine" unicode="&#xba;" horiz-adv-x="273" 
d="M26 663l1 8q19 104 91 125h19q28 0 43 -3q0 -1 13 -8q52 -38 52 -140q0 -53 -31 -85.5t-84 -32.5q-32 0 -61.5 21.5t-34.5 51.5l-3 23l-2 11q-3 14 -3 29zM59 666q0 -105 71 -105q48 0 65.5 24t17.5 75q0 107 -85 107q-28 0 -48.5 -36.5t-20.5 -64.5z" />
    <glyph glyph-name="guillemotright" unicode="&#xbb;" horiz-adv-x="386" 
d="M204 321l-55 -79l-16 -17l-66 -82q-18 -18 -22 -18q-6 0 -10.5 6.5t-4.5 13.5v8l30 34l18 19q17 20 28 35l13 15l33 50q31 42 52 62q0 8 -8 16q-89 130 -135 188q-31 41 -31 48q0 21 15 21q11 0 15 -8q29 -42 75 -103q6 -10 19.5 -27.5t17.5 -23.5q7 -8 43 -64
q0 -1 0.5 -1t0.5 -1l26 -39v-7q0 -8 -8 -16zM318 317l-55 -79l-16 -17l-66 -82q-18 -18 -22 -18q-6 0 -10.5 6.5t-4.5 13.5v8l30 34l18 19q17 20 28 35l13 15l33 50q31 42 52 62q0 8 -8 16q-89 130 -135 188q-31 41 -31 48q0 21 15 21q11 0 15 -8q29 -42 75 -103
q6 -10 19.5 -27.5t17.5 -23.5q7 -8 43 -64q0 -1 0.5 -1t0.5 -1l26 -39v-7q0 -8 -8 -16z" />
    <glyph glyph-name="questiondown" unicode="&#xbf;" horiz-adv-x="335" 
d="M214 636v-1q3 -17 3 -56v-51q0 -15 -12 -90q-11 -65 -76 -146q-23 -31 -36 -50t-25.5 -48.5t-12.5 -55.5q0 -50 25 -81t70 -31q23 0 61 18q59 42 68 144q5 8 14 8q12 0 12 -26q0 -81 -44.5 -126.5t-118.5 -45.5q-63 0 -100 63q-14 23 -14 74q0 42 18 76.5t51 77.5l8 11
q16 21 39 57q46 85 46 183q0 15 -2 45q0 3 -0.5 7t-0.5 7q0 4 -0.5 13.5t-0.5 13.5q0 18 17 18q9 0 11 -8zM208 770q0 -17 -16 -17q-15 0 -15 19q0 8 1 11q4 7 12 7t13 -6.5t5 -13.5z" />
    <glyph glyph-name="Agrave" unicode="&#xc0;" 
d="M28 18q0 14 16 16q6 2 10 6v-1l168 697v1q1 1 1 2t-10 3q-19 4 -19 18q0 12 11 12q33 0 66 -5q11 -6 11 -12q0 -16 -16 -18l-1 -1h-2l-3 -2v-1l144 -683q0 1 3 1q5 0 8 -0.5t5.5 -4.5t2.5 -11q0 -16 -11 -16h-48q-5 0 -8.5 5t-3.5 10q0 12 23 15v4l-54 235l-176 -6
l-61 -240v-1q-1 -1 -1 -3q0 -1 5 -4h-1q2 -2 4 -2q8 -5 8 -15q0 -8 -7 -10q-22 -3 -41 -3q-23 0 -23 14zM241 682l-89 -374l165 9q-1 0 -1 3zM185 910l24 16l58 -70l-18 -22z" />
    <glyph glyph-name="Aacute" unicode="&#xc1;" 
d="M28 18q0 14 16 16q6 2 10 6v-1l168 697v1q1 1 1 2t-10 3q-19 4 -19 18q0 12 11 12q33 0 66 -5q11 -6 11 -12q0 -16 -16 -18l-1 -1h-2l-3 -2v-1l144 -683q0 1 3 1q5 0 8 -0.5t5.5 -4.5t2.5 -11q0 -16 -11 -16h-48q-5 0 -8.5 5t-3.5 10q0 12 23 15v4l-54 235l-176 -6
l-61 -240v-1q-1 -1 -1 -3q0 -1 5 -4h-1q2 -2 4 -2q8 -5 8 -15q0 -8 -7 -10q-22 -3 -41 -3q-23 0 -23 14zM241 682l-89 -374l165 9q-1 0 -1 3zM243 926l24 -16l-64 -76l-18 22z" />
    <glyph glyph-name="Acircumflex" unicode="&#xc2;" 
d="M28 18q0 14 16 16q6 2 10 6v-1l168 697v1q1 1 1 2t-10 3q-19 4 -19 18q0 12 11 12q33 0 66 -5q11 -6 11 -12q0 -16 -16 -18l-1 -1h-2l-3 -2v-1l144 -683q0 1 3 1q5 0 8 -0.5t5.5 -4.5t2.5 -11q0 -16 -11 -16h-48q-5 0 -8.5 5t-3.5 10q0 12 23 15v4l-54 235l-176 -6
l-61 -240v-1q-1 -1 -1 -3q0 -1 5 -4h-1q2 -2 4 -2q8 -5 8 -15q0 -8 -7 -10q-22 -3 -41 -3q-23 0 -23 14zM241 682l-89 -374l165 9q-1 0 -1 3zM125 849q3 13 27 37l52 72q0 2 2 4q14 20 25 20t16 -9l28 -43q5 -7 12 -14l5 -6q35 -35 35 -56v-9q-2 -6 -10 -6q-17 0 -35 34
l-3 6l-38 47l-2 4q-3 9 -9 9q-9 -14 -12 -18l-11 -14q-31 -42 -61 -72l-3 -1q-6 0 -12 4.5t-6 10.5z" />
    <glyph glyph-name="Atilde" unicode="&#xc3;" 
d="M28 18q0 14 16 16q6 2 10 6v-1l168 697v1q1 1 1 2t-10 3q-19 4 -19 18q0 12 11 12q33 0 66 -5q11 -6 11 -12q0 -16 -16 -18l-1 -1h-2l-3 -2v-1l144 -683q0 1 3 1q5 0 8 -0.5t5.5 -4.5t2.5 -11q0 -16 -11 -16h-48q-5 0 -8.5 5t-3.5 10q0 12 23 15v4l-54 235l-176 -6
l-61 -240v-1q-1 -1 -1 -3q0 -1 5 -4h-1q2 -2 4 -2q8 -5 8 -15q0 -8 -7 -10q-22 -3 -41 -3q-23 0 -23 14zM241 682l-89 -374l165 9q-1 0 -1 3zM209 891q-10 10 -32 10q-32 0 -37 -40q-3 -21 -13 -21q-16 0 -16 18q0 28 17 49t47 21q41 0 70 -42l5 -6q13 -15 23 -15
q45 0 42 55q1 9 14 9t13 -9v-36q0 -16 -21 -31t-40 -15q-35 0 -46 16l-18 24z" />
    <glyph glyph-name="Adieresis" unicode="&#xc4;" 
d="M28 18q0 14 16 16q6 2 10 6v-1l168 697v1q1 1 1 2t-10 3q-19 4 -19 18q0 12 11 12q33 0 66 -5q11 -6 11 -12q0 -16 -16 -18l-1 -1h-2l-3 -2v-1l144 -683q0 1 3 1q5 0 8 -0.5t5.5 -4.5t2.5 -11q0 -16 -11 -16h-48q-5 0 -8.5 5t-3.5 10q0 12 23 15v4l-54 235l-176 -6
l-61 -240v-1q-1 -1 -1 -3q0 -1 5 -4h-1q2 -2 4 -2q8 -5 8 -15q0 -8 -7 -10q-22 -3 -41 -3q-23 0 -23 14zM241 682l-89 -374l165 9q-1 0 -1 3zM276 892q23 0 23 -21q0 -7 -4.5 -14t-11.5 -7q-6 0 -12.5 4.5t-6.5 8.5v22q0 7 12 7zM153 857q0 21 16 21q18 0 18 -20
q0 -21 -17 -21t-17 20z" />
    <glyph glyph-name="Aring" unicode="&#xc5;" 
d="M169 789q0 43 23.5 68t55.5 25q29 0 50 -22t21 -63q0 -28 -16 -49t-40 -30l141 -668q0 1 3 1q5 0 8 -0.5t5.5 -4.5t2.5 -11q0 -16 -11 -16h-48q-5 0 -8.5 5t-3.5 10q0 12 23 15v4l-54 235l-176 -6l-61 -240v-1q-1 -1 -1 -3l4 -4q2 -2 4 -2q8 -5 8 -15q0 -8 -7 -10
q-22 -3 -41 -3q-23 0 -23 14t16 16q1 0 3.5 1.5t4.5 2.5l2 1l163 679l-8 5l-6 3q-34 18 -34 63zM241 682l-89 -374l164 12zM197 786q0 -17 13.5 -28.5t30.5 -11.5q34 0 46 51v5q0 26 -12 40.5t-30 14.5q-19 0 -33.5 -18.5t-14.5 -52.5z" />
    <glyph glyph-name="AE" unicode="&#xc6;" horiz-adv-x="595" 
d="M357 101l-5 176q-174 0 -174 1v-2q-1 -2 -1 -3q-1 -10 -2 -15l-56 -159q-1 -5 -4 -14t-4 -13v-6q3 1 12 1q1 0 5 -3t4 -6v-22l-7 -2q-5 0 -41 -3q-6 0 -14 -2h1q-4 -2 -8 -2q-1 0 -2 -0.5t-2 -0.5q-5 -1 -15 -1q-15 0 -15 17t32 19q11 0 13 1q7 35 36 107q21 50 31 86
l72 217v-1q8 52 40 138l27 71q1 4 4.5 13.5t4.5 13.5l12 41l13 42q2 10 11 10h83q5 0 20.5 -0.5t24.5 -0.5q27 -1 62 -1q17 -2 17 -48q0 -16 -15 -16t-19 26l-2 7h-140q0 -35 5 -80l2 -20l2 -21q2 -20 4 -78q0 -4 0.5 -11t0.5 -10q0 -26 3 -83l3 -32v-6q0 -1 0.5 -2.5
t0.5 -2.5q4 -52 6 -106h12q57 0 105 3q2 0 5 1h6q1 0 3.5 0.5t3.5 0.5q6 0 11.5 -5.5t5.5 -11.5q0 -11 -8 -13l-29 -5h-86q-16 0 -29 -6v-62l3 -71q0 -8 1 -22t1.5 -25t0.5 -21q2 -24 2 -30v-10l2 -19h122l14 2q1 2 1 15q0 42 19 42q12 0 16 -20q-6 -30 -6 -48q0 -2 0.5 -4
t0.5 -3v-6l-9 -10h-184q-5 7 -5 10q-3 17 -3 55q0 33 -2 49zM194 325q-3 -7 -3 -15h16q3 0 11 -0.5t12 -0.5q14 -1 42 -1h12q32 0 56 2h4l8 2v16q0 9 -2 27q0 2 -0.5 6.5t-0.5 6.5t-0.5 5t-0.5 5q-2 16 -2 27t1 15l-16 261q0 4 -2 22t-4 27q-1 -4 -5 -30q-38 -98 -57 -162
q-6 -16 -14 -48q-13 -46 -24 -77q-12 -25 -31 -88z" />
    <glyph glyph-name="Ccedilla" unicode="&#xc7;" horiz-adv-x="390" 
d="M118 -108q0 5 4.5 9.5t10.5 4.5t17 -13q16 -23 34 -23q16 0 36 16t20 31v36q0 10 -22.5 16.5t-39.5 6.5h-4q-10 7 -10 18q0 12 1 19q1 6 1 19v5q-136 75 -136 364q0 30 3 60q2 12 2 19q4 43 11 77.5t22 71.5t35 61.5t53 40.5t75 16q40 0 79 -21l6 38l24 -6l-16 -96l-24 2
l5 34q-41 23 -80 23q-44 0 -77 -33t-51 -86t-26.5 -107.5t-8.5 -107.5q0 -44 4.5 -85.5t17.5 -89t34 -82.5t57.5 -58t84.5 -23q38 0 67 15l-5 36h22l16 -92l-24 -8l-5 31q-32 -17 -67 -17q-38 0 -67 10l-1 -20h1q1 -1 2 -1q39 -8 56 -22.5t17 -47.5q0 -34 -25.5 -61
t-63.5 -27q-21 0 -43 14.5t-22 32.5z" />
    <glyph glyph-name="Egrave" unicode="&#xc8;" horiz-adv-x="330" 
d="M49 13q-10 1 -16 9v38q0 56 -1 84q-2 64 -2 96v10q0 10 1 15q0 12 2 18v412l-3 40v5q-2 28 -2 33q0 22 27 22q6 0 18 -2q6 -1 18 -1q19 0 51 2q54 3 95 3h6q20 0 26 -9q0 -15 1 -25q0 -16 2 -24q0 -7 -5 -12.5t-12 -5.5q-14 0 -16 17v4q0 1 -0.5 4t-0.5 5q-1 2 -1 8
q0 2 -0.5 3.5t-0.5 2.5l-2 1h-5q-4 0 -23.5 -0.5t-31.5 -0.5h-51q-18 -1 -62 -1q0 -36 1 -55v-30q0 -5 0.5 -15t0.5 -15q0 -20 -2 -58q-1 -17 -1 -57v-56q0 -3 0.5 -10t0.5 -11q2 -22 2 -33q0 -2 -0.5 -4.5t-0.5 -3.5q10 -1 61 -1q8 0 18 2q5 1 16 1q10 0 11.5 -2t1.5 -12
q0 -16 -10 -18h1q-4 -2 -23 -2q-16 -1 -69 -1h-6v-14q0 -3 0.5 -7.5t0.5 -6.5q0 -40 -4 -65v-83q0 -100 3 -159q25 -2 52 -7h155v51q0 7 14 11q11 0 15 -7q2 -13 2 -40v-19q0 -4 -2 -20l-9 -8h-22q-17 0 -51 2q-3 0 -12.5 0.5t-12.5 0.5q-46 2 -113 2q-20 0 -30 -1zM124 910
l24 16l58 -70l-18 -22z" />
    <glyph glyph-name="Eacute" unicode="&#xc9;" horiz-adv-x="330" 
d="M49 13q-10 1 -16 9v38q0 56 -1 84q-2 64 -2 96v10q0 10 1 15q0 12 2 18v412l-3 40v5q-2 28 -2 33q0 22 27 22q6 0 18 -2q6 -1 18 -1q19 0 51 2q54 3 95 3h6q20 0 26 -9q0 -15 1 -25q0 -16 2 -24q0 -7 -5 -12.5t-12 -5.5q-14 0 -16 17v4q0 1 -0.5 4t-0.5 5q-1 2 -1 8
q0 2 -0.5 3.5t-0.5 2.5l-2 1h-5q-4 0 -23.5 -0.5t-31.5 -0.5h-51q-18 -1 -62 -1q0 -36 1 -55v-30q0 -5 0.5 -15t0.5 -15q0 -20 -2 -58q-1 -17 -1 -57v-56q0 -3 0.5 -10t0.5 -11q2 -22 2 -33q0 -2 -0.5 -4.5t-0.5 -3.5q10 -1 61 -1q8 0 18 2q5 1 16 1q10 0 11.5 -2t1.5 -12
q0 -16 -10 -18h1q-4 -2 -23 -2q-16 -1 -69 -1h-6v-14q0 -3 0.5 -7.5t0.5 -6.5q0 -40 -4 -65v-83q0 -100 3 -159q25 -2 52 -7h155v51q0 7 14 11q11 0 15 -7q2 -13 2 -40v-19q0 -4 -2 -20l-9 -8h-22q-17 0 -51 2q-3 0 -12.5 0.5t-12.5 0.5q-46 2 -113 2q-20 0 -30 -1zM182 926
l24 -16l-64 -76l-18 22z" />
    <glyph glyph-name="Ecircumflex" unicode="&#xca;" horiz-adv-x="330" 
d="M49 13q-10 1 -16 9v38q0 56 -1 84q-2 64 -2 96v10q0 10 1 15q0 12 2 18v412l-3 40v5q-2 28 -2 33q0 22 27 22q6 0 18 -2q6 -1 18 -1q19 0 51 2q54 3 95 3h6q20 0 26 -9q0 -15 1 -25q0 -16 2 -24q0 -7 -5 -12.5t-12 -5.5q-14 0 -16 17v4q0 1 -0.5 4t-0.5 5q-1 2 -1 8
q0 2 -0.5 3.5t-0.5 2.5l-2 1h-5q-4 0 -23.5 -0.5t-31.5 -0.5h-51q-18 -1 -62 -1q0 -36 1 -55v-30q0 -5 0.5 -15t0.5 -15q0 -20 -2 -58q-1 -17 -1 -57v-56q0 -3 0.5 -10t0.5 -11q2 -22 2 -33q0 -2 -0.5 -4.5t-0.5 -3.5q10 -1 61 -1q8 0 18 2q5 1 16 1q10 0 11.5 -2t1.5 -12
q0 -16 -10 -18h1q-4 -2 -23 -2q-16 -1 -69 -1h-6v-14q0 -3 0.5 -7.5t0.5 -6.5q0 -40 -4 -65v-83q0 -100 3 -159q25 -2 52 -7h155v51q0 7 14 11q11 0 15 -7q2 -13 2 -40v-19q0 -4 -2 -20l-9 -8h-22q-17 0 -51 2q-3 0 -12.5 0.5t-12.5 0.5q-46 2 -113 2q-20 0 -30 -1zM64 849
q3 13 27 37l52 72q0 2 2 4q14 20 25 20q12 0 16 -9l28 -43q5 -7 12 -14l5 -6q35 -35 35 -56v-9q-2 -6 -10 -6q-17 0 -35 34l-3 6l-38 47l-2 4q-3 9 -9 9q-9 -14 -12 -18l-11 -14q-31 -42 -61 -72l-3 -1q-6 0 -12 4.5t-6 10.5z" />
    <glyph glyph-name="Edieresis" unicode="&#xcb;" horiz-adv-x="330" 
d="M49 13q-10 1 -16 9v38q0 56 -1 84q-2 64 -2 96v10q0 10 1 15q0 12 2 18v412l-3 40v5q-2 28 -2 33q0 22 27 22q6 0 18 -2q6 -1 18 -1q19 0 51 2q54 3 95 3h6q20 0 26 -9q0 -15 1 -25q0 -16 2 -24q0 -7 -5 -12.5t-12 -5.5q-14 0 -16 17v4q0 1 -0.5 4t-0.5 5q-1 2 -1 8
q0 2 -0.5 3.5t-0.5 2.5l-2 1h-5q-4 0 -23.5 -0.5t-31.5 -0.5h-51q-18 -1 -62 -1q0 -36 1 -55v-30q0 -5 0.5 -15t0.5 -15q0 -20 -2 -58q-1 -17 -1 -57v-56q0 -3 0.5 -10t0.5 -11q2 -22 2 -33q0 -2 -0.5 -4.5t-0.5 -3.5q10 -1 61 -1q8 0 18 2q5 1 16 1q10 0 11.5 -2t1.5 -12
q0 -16 -10 -18h1q-4 -2 -23 -2q-16 -1 -69 -1h-6v-14q0 -3 0.5 -7.5t0.5 -6.5q0 -40 -4 -65v-83q0 -100 3 -159q25 -2 52 -7h155v51q0 7 14 11q11 0 15 -7q2 -13 2 -40v-19q0 -4 -2 -20l-9 -8h-22q-17 0 -51 2q-3 0 -12.5 0.5t-12.5 0.5q-46 2 -113 2q-20 0 -30 -1zM92 857
q0 21 16 21q18 0 18 -20q0 -21 -17 -21t-17 20zM215 892q23 0 23 -21q0 -7 -4.5 -14t-11.5 -7q-6 0 -12.5 4.5t-6.5 8.5v22q0 7 12 7z" />
    <glyph glyph-name="Igrave" unicode="&#xcc;" horiz-adv-x="176" 
d="M32 68l33 -1q0 49 1 77q2 62 2 97q0 79 -3 158q0 9 -0.5 26.5t-0.5 25.5q-2 64 -2 105q0 4 5 111l1 46l-34 1l-4 26l114 -2l2 -28l-50 2v-42q0 -2 -0.5 -5.5t-0.5 -4.5v-10q-5 -55 -5 -99q0 -55 2 -157q0 -13 0.5 -38.5t0.5 -37.5v-110q0 -76 2 -110l2 -31l35 -1l-4 -22
l-96 2v22zM47 910l24 16l58 -70l-18 -22z" />
    <glyph glyph-name="Iacute" unicode="&#xcd;" horiz-adv-x="176" 
d="M32 68l33 -1q0 49 1 77q2 62 2 97q0 79 -3 158q0 9 -0.5 26.5t-0.5 25.5q-2 64 -2 105q0 4 5 111l1 46l-34 1l-4 26l114 -2l2 -28l-50 2v-42q0 -2 -0.5 -5.5t-0.5 -4.5v-10q-5 -55 -5 -99q0 -55 2 -157q0 -13 0.5 -38.5t0.5 -37.5v-110q0 -76 2 -110l2 -31l35 -1l-4 -22
l-96 2v22zM105 926l24 -16l-64 -76l-18 22z" />
    <glyph glyph-name="Icircumflex" unicode="&#xce;" horiz-adv-x="143" 
d="M37 23q-9 6 -9 16q0 4 4.5 8.5t9.5 4.5h21q0 59 1 92q2 62 2 97q0 79 -3 158q0 9 -0.5 26.5t-0.5 25.5q-2 64 -2 105q0 4 5 111l3 67q-23 0 -23 20q5 10 10 10h35l6 -3q4 -3 7 -3q12 -6 12 -18t-18 -14q-3 -13 -3 -36v-20q0 -2 -0.5 -5.5t-0.5 -4.5v-10q-5 -55 -5 -99
q0 -55 2 -157q0 -13 0.5 -38.5t0.5 -37.5v-110q0 -76 2 -110l4 -52q8 -5 8 -11q0 -11 -7 -15h-13q-19 0 -41 3h-7zM-29 849q3 13 27 37l52 72q0 2 2 4q14 20 25 20t16 -9l28 -43q5 -7 12 -14l5 -6q35 -35 35 -56v-9q-2 -6 -10 -6q-17 0 -35 34l-3 6l-38 47l-2 4q-3 9 -9 9
q-9 -14 -12 -18l-11 -14q-31 -42 -61 -72l-3 -1q-6 0 -12 4.5t-6 10.5z" />
    <glyph glyph-name="Idieresis" unicode="&#xcf;" horiz-adv-x="143" 
d="M37 23q-9 6 -9 16q0 4 4.5 8.5t9.5 4.5h21q0 59 1 92q2 62 2 97q0 79 -3 158q0 9 -0.5 26.5t-0.5 25.5q-2 64 -2 105q0 4 5 111l3 67q-23 0 -23 20q5 10 10 10h35l6 -3q4 -3 7 -3q12 -6 12 -18t-18 -14q-3 -13 -3 -36v-20q0 -2 -0.5 -5.5t-0.5 -4.5v-10q-5 -55 -5 -99
q0 -55 2 -157q0 -13 0.5 -38.5t0.5 -37.5v-110q0 -76 2 -110l4 -52q8 -5 8 -11q0 -11 -7 -15h-13q-19 0 -41 3h-7zM-1 857q0 21 16 21q18 0 18 -20q0 -21 -17 -21t-17 20zM122 892q23 0 23 -21q0 -7 -4.5 -14t-11.5 -7q-6 0 -12.5 4.5t-6.5 8.5v22q0 7 12 7z" />
    <glyph glyph-name="Ntilde" unicode="&#xd1;" horiz-adv-x="495" 
d="M382 43l-272 657q-1 -8 -1 -25v-16q-4 -148 -7 -222q-8 -226 -8 -348q0 -5 1 -9q0 -2 0.5 -3t0.5 -2h2q20 0 20 -20v-1l-1 -2v-4q-9 -9 -72 -9q-16 0 -16 14q0 16 22 16q9 0 14 7q0 16 1 21q0 4 0.5 12.5t0.5 11.5q12 336 12 506q0 84 -1 127l3 15q0 3 14 10l8 3
q14 0 36 -69l248 -617q1 8 1 22q0 2 -0.5 4t-0.5 3v6q0 3 2 17v18q0 71 6 217l12 321q-2 0 -3 1l-2 1l-2 1q-5 2 -7 10q0 15 10 18l3 1h4q33 6 39 6q4 0 8 -4t6 -8t2 -5q0 -16 -26 -21q-3 -15 -13 -357l-6 -190v-10q0 -2 0.5 -7t0.5 -8q0 -54 -5 -89q-2 -6 -7 -8h-9
q-13 0 -18 8zM230 891q-10 10 -32 10q-32 0 -37 -40q-3 -21 -13 -21q-16 0 -16 18q0 28 17 49t47 21q41 0 70 -42l5 -6q13 -15 23 -15q45 0 42 55q1 9 14 9t13 -9v-36q0 -16 -21 -31t-40 -15q-35 0 -46 16l-18 24z" />
    <glyph glyph-name="Ograve" unicode="&#xd2;" horiz-adv-x="515" 
d="M41 268v1l-3 24q-3 12 -3 28q-6 40 -6 61q0 59 14 171l17 41l6 17l4 11q5 10 7 15q16 30 74 83l22 20l38 21l6 5h1q2 1 4 1l9 2q65 13 80 13t59 -22l5 -3q57 -52 76.5 -105.5t28.5 -143.5q0 -7 2 -19q3 -30 3 -60q0 -52 -4.5 -99.5t-20 -102t-40 -94t-68 -65.5
t-101.5 -26q-69 0 -131 65q-4 9 -9 15q-4 11 -7 14q0 3 -16 19q-21 30 -47 113zM180 95q36 -18 75 -18q48 0 84.5 23t57.5 58t34 82.5t17.5 89t4.5 85.5q0 64 -3.5 110.5t-24 107t-58.5 89.5q-31 25 -62 25q-78 0 -139 -52v1q-107 -106 -107 -306v-46q8 -42 19 -82
q8 -8 15 -34l4 -14v1q12 -31 36 -66.5t47 -53.5zM216 910l24 16l58 -70l-18 -22z" />
    <glyph glyph-name="Oacute" unicode="&#xd3;" horiz-adv-x="515" 
d="M41 268v1l-3 24q-3 12 -3 28q-6 40 -6 61q0 59 14 171l17 41l6 17l4 11q5 10 7 15q16 30 74 83l22 20l38 21l6 5h1q2 1 4 1l9 2q65 13 80 13t59 -22l5 -3q57 -52 76.5 -105.5t28.5 -143.5q0 -7 2 -19q3 -30 3 -60q0 -52 -4.5 -99.5t-20 -102t-40 -94t-68 -65.5
t-101.5 -26q-69 0 -131 65q-4 9 -9 15q-4 11 -7 14q0 3 -16 19q-21 30 -47 113zM180 95q36 -18 75 -18q48 0 84.5 23t57.5 58t34 82.5t17.5 89t4.5 85.5q0 64 -3.5 110.5t-24 107t-58.5 89.5q-31 25 -62 25q-78 0 -139 -52v1q-107 -106 -107 -306v-46q8 -42 19 -82
q8 -8 15 -34l4 -14v1q12 -31 36 -66.5t47 -53.5zM274 926l24 -16l-64 -76l-18 22z" />
    <glyph glyph-name="Ocircumflex" unicode="&#xd4;" horiz-adv-x="515" 
d="M41 268v1l-3 24q-3 12 -3 28q-6 40 -6 61q0 59 14 171l17 41l6 17l4 11q5 10 7 15q16 30 74 83l22 20l38 21l6 5h1q2 1 4 1l9 2q65 13 80 13t59 -22l5 -3q57 -52 76.5 -105.5t28.5 -143.5q0 -7 2 -19q3 -30 3 -60q0 -52 -4.5 -99.5t-20 -102t-40 -94t-68 -65.5
t-101.5 -26q-69 0 -131 65q-4 9 -9 15q-4 11 -7 14q0 3 -16 19q-21 30 -47 113zM180 95q36 -18 75 -18q48 0 84.5 23t57.5 58t34 82.5t17.5 89t4.5 85.5q0 64 -3.5 110.5t-24 107t-58.5 89.5q-31 25 -62 25q-78 0 -139 -52v1q-107 -106 -107 -306v-46q8 -42 19 -82
q8 -8 15 -34l4 -14v1q12 -31 36 -66.5t47 -53.5zM156 849q3 13 27 37l52 72q0 2 2 4q14 20 25 20q12 0 16 -9l28 -43q5 -7 12 -14l5 -6q35 -35 35 -56v-9q-2 -6 -10 -6q-17 0 -35 34l-3 6l-38 47l-2 4q-3 9 -9 9q-9 -14 -12 -18l-11 -14q-31 -42 -61 -72l-3 -1q-6 0 -12 4.5
t-6 10.5z" />
    <glyph glyph-name="Otilde" unicode="&#xd5;" horiz-adv-x="515" 
d="M41 268v1l-3 24q-3 12 -3 28q-6 40 -6 61q0 59 14 171l17 41l6 17l4 11q5 10 7 15q16 30 74 83l22 20l38 21l6 5h1q2 1 4 1l9 2q65 13 80 13t59 -22l5 -3q57 -52 76.5 -105.5t28.5 -143.5q0 -7 2 -19q3 -30 3 -60q0 -52 -4.5 -99.5t-20 -102t-40 -94t-68 -65.5
t-101.5 -26q-69 0 -131 65q-4 9 -9 15q-4 11 -7 14q0 3 -16 19q-21 30 -47 113zM180 95q36 -18 75 -18q48 0 84.5 23t57.5 58t34 82.5t17.5 89t4.5 85.5q0 64 -3.5 110.5t-24 107t-58.5 89.5q-31 25 -62 25q-78 0 -139 -52v1q-107 -106 -107 -306v-46q8 -42 19 -82
q8 -8 15 -34l4 -14v1q12 -31 36 -66.5t47 -53.5zM240 891q-10 10 -32 10q-32 0 -37 -40q-3 -21 -13 -21q-16 0 -16 18q0 28 17 49t47 21q41 0 70 -42l5 -6q13 -15 23 -15q45 0 42 55q1 9 14 9t13 -9v-36q0 -16 -21 -31t-40 -15q-35 0 -46 16l-18 24z" />
    <glyph glyph-name="Odieresis" unicode="&#xd6;" horiz-adv-x="515" 
d="M41 268v1l-3 24q-3 12 -3 28q-6 40 -6 61q0 59 14 171l17 41l6 17l4 11q5 10 7 15q16 30 74 83l22 20l38 21l6 5h1q2 1 4 1l9 2q65 13 80 13t59 -22l5 -3q57 -52 76.5 -105.5t28.5 -143.5q0 -7 2 -19q3 -30 3 -60q0 -52 -4.5 -99.5t-20 -102t-40 -94t-68 -65.5
t-101.5 -26q-69 0 -131 65q-4 9 -9 15q-4 11 -7 14q0 3 -16 19q-21 30 -47 113zM180 95q36 -18 75 -18q48 0 84.5 23t57.5 58t34 82.5t17.5 89t4.5 85.5q0 64 -3.5 110.5t-24 107t-58.5 89.5q-31 25 -62 25q-78 0 -139 -52v1q-107 -106 -107 -306v-46q8 -42 19 -82
q8 -8 15 -34l4 -14v1q12 -31 36 -66.5t47 -53.5zM184 857q0 21 16 21q18 0 18 -20q0 -21 -17 -21t-17 20zM307 892q23 0 23 -21q0 -7 -4.5 -14t-11.5 -7q-6 0 -12.5 4.5t-6.5 8.5v22q0 7 12 7z" />
    <glyph glyph-name="Oslash" unicode="&#xd8;" 
d="M216 -22h-1q-12 4 -12 9v27q-58 4 -86 41q-31 40 -39 56q-13 25 -24 64l-10 31q-16 101 -16 190q0 185 74 309l15 19l7 9q25 30 33 36q41 30 69 30q5 0 9 -2q1 0 2 -0.5t2 -0.5q3 -1 8 -1q6 0 9 1q1 0 2.5 0.5t2.5 0.5q6 2 10 2h9l9 -3q0 1 1.5 5t2.5 6q0 1 1 3
q4 29 22 29q12 0 12 -15l-3 -19q-2 -12 -2 -18q0 -4 12 -16q14 -14 18 -22q26 -60 46 -125v-6q0 -13 6 -39l5 -17q13 -86 13 -159q0 -91 -32 -228q-5 -21 -19 -49q-1 -1 -3 -5t-3 -5q-44 -77 -128 -100v1q-2 -2 -2 -13q-2 -26 -20 -26zM60 397q0 -118 18 -191
q13 -56 45.5 -107.5t76.5 -51.5q10 0 11 10l17 149v9l22 190q-3 -5 0 5q1 2 2 8q2 4 2 5t0.5 3l0.5 2l19 175v17l13 134v13q0 1 -55 1q-39 0 -69 -36q-103 -125 -103 -335zM240 51h1q3 0 5 2l8 3q34 13 44 23q92 81 92 321v40q0 44 -9 107v-1q-5 11 -10 47l-2 15
q-22 83 -47 129l-5 9q0 -2 -1 -10.5t-2 -19.5t-1 -15v-4q0 -1 -0.5 -2.5t-0.5 -2.5v-2l-1 -2q-4 -22 -4 -33q0 -1 0.5 -3t0.5 -4l-43 -372v-13z" />
    <glyph glyph-name="Ugrave" unicode="&#xd9;" horiz-adv-x="447" 
d="M60 450l-2 52q-5 107 -5 201v42q-25 3 -25 18q0 12 24 15q36 3 53 3q7 0 12 -6t5 -13q0 -14 -16 -14h-7q-1 0 -3 0.5t-3 0.5h-4l-4 -1h1q-2 -4 -2 -11v-24q0 -48 1 -72q1 -23 1 -68v-28q3 -15 3 -19v-70q5 -146 11 -238v1q5 -10 5 -27v-8l6 -26l4 -17l10 -42l4 -10h-1
q2 -1 4 -12v-1l1 -2v-10q0 -3 1 -3l8 -8q25 -35 76 -35q29 0 50.5 10.5t35 32.5t20.5 40.5t16 50.5q2 6 6 20.5t6 20.5q2 4 2 24v86q7 33 7 121q0 27 1 39q5 93 5 179q0 4 -0.5 11t-0.5 10v22q-1 10 -1 38h-25q-12 0 -12 15q0 13 12 18h30q47 0 47 -20q0 -11 -21 -18
q-2 -10 -2 -17v-25q0 -4 -0.5 -14.5t-0.5 -15.5q-2 -56 -2 -82q0 -8 2 -22q1 -6 1 -21q0 -9 -1 -14q0 -3 -1 -13t-1 -13q-2 -32 -2 -35l-1 -88q-3 -5 -3 -24v-23q-4 -22 -4 -31q0 -23 1 -34v-17q0 -3 0.5 -8.5t0.5 -7.5q0 -17 -9 -55l-7 -22v1q-19 -74 -50 -111.5t-98 -37.5
q-66 0 -97 37q-20 25 -32 88q-7 33 -15 93q-6 42 -10 62q-3 16 -3 49zM182 910l24 16l58 -70l-18 -22z" />
    <glyph glyph-name="Uacute" unicode="&#xda;" horiz-adv-x="447" 
d="M60 450l-2 52q-5 107 -5 201v42q-25 3 -25 18q0 12 24 15q36 3 53 3q7 0 12 -6t5 -13q0 -14 -16 -14h-7q-1 0 -3 0.5t-3 0.5h-4l-4 -1h1q-2 -4 -2 -11v-24q0 -48 1 -72q1 -23 1 -68v-28q3 -15 3 -19v-70q5 -146 11 -238v1q5 -10 5 -27v-8l6 -26l4 -17l10 -42l4 -10h-1
q2 -1 4 -12v-1l1 -2v-10q0 -3 1 -3l8 -8q25 -35 76 -35q29 0 50.5 10.5t35 32.5t20.5 40.5t16 50.5q2 6 6 20.5t6 20.5q2 4 2 24v86q7 33 7 121q0 27 1 39q5 93 5 179q0 4 -0.5 11t-0.5 10v22q-1 10 -1 38h-25q-12 0 -12 15q0 13 12 18h30q47 0 47 -20q0 -11 -21 -18
q-2 -10 -2 -17v-25q0 -4 -0.5 -14.5t-0.5 -15.5q-2 -56 -2 -82q0 -8 2 -22q1 -6 1 -21q0 -9 -1 -14q0 -3 -1 -13t-1 -13q-2 -32 -2 -35l-1 -88q-3 -5 -3 -24v-23q-4 -22 -4 -31q0 -23 1 -34v-17q0 -3 0.5 -8.5t0.5 -7.5q0 -17 -9 -55l-7 -22v1q-19 -74 -50 -111.5t-98 -37.5
q-66 0 -97 37q-20 25 -32 88q-7 33 -15 93q-6 42 -10 62q-3 16 -3 49zM240 926l24 -16l-64 -76l-18 22z" />
    <glyph glyph-name="Ucircumflex" unicode="&#xdb;" horiz-adv-x="447" 
d="M60 450l-2 52q-5 107 -5 201v42q-25 3 -25 18q0 12 24 15q36 3 53 3q7 0 12 -6t5 -13q0 -14 -16 -14h-7q-1 0 -3 0.5t-3 0.5h-4l-4 -1h1q-2 -4 -2 -11v-24q0 -48 1 -72q1 -23 1 -68v-28q3 -15 3 -19v-70q5 -146 11 -238v1q5 -10 5 -27v-8l6 -26l4 -17l10 -42l4 -10h-1
q2 -1 4 -12v-1l1 -2v-10q0 -3 1 -3l8 -8q25 -35 76 -35q29 0 50.5 10.5t35 32.5t20.5 40.5t16 50.5q2 6 6 20.5t6 20.5q2 4 2 24v86q7 33 7 121q0 27 1 39q5 93 5 179q0 4 -0.5 11t-0.5 10v22q-1 10 -1 38h-25q-12 0 -12 15q0 13 12 18h30q47 0 47 -20q0 -11 -21 -18
q-2 -10 -2 -17v-25q0 -4 -0.5 -14.5t-0.5 -15.5q-2 -56 -2 -82q0 -8 2 -22q1 -6 1 -21q0 -9 -1 -14q0 -3 -1 -13t-1 -13q-2 -32 -2 -35l-1 -88q-3 -5 -3 -24v-23q-4 -22 -4 -31q0 -23 1 -34v-17q0 -3 0.5 -8.5t0.5 -7.5q0 -17 -9 -55l-7 -22v1q-19 -74 -50 -111.5t-98 -37.5
q-66 0 -97 37q-20 25 -32 88q-7 33 -15 93q-6 42 -10 62q-3 16 -3 49zM122 849q3 13 27 37l52 72q0 2 2 4q14 20 25 20q12 0 16 -9l28 -43q5 -7 12 -14l5 -6q35 -35 35 -56v-9q-2 -6 -10 -6q-17 0 -35 34l-3 6l-38 47l-2 4q-3 9 -9 9q-9 -14 -12 -18l-11 -14
q-31 -42 -61 -72l-3 -1q-6 0 -12 4.5t-6 10.5z" />
    <glyph glyph-name="Udieresis" unicode="&#xdc;" horiz-adv-x="447" 
d="M60 450l-2 52q-5 107 -5 201v42q-25 3 -25 18q0 12 24 15q36 3 53 3q7 0 12 -6t5 -13q0 -14 -16 -14h-7q-1 0 -3 0.5t-3 0.5h-4l-4 -1h1q-2 -4 -2 -11v-24q0 -48 1 -72q1 -23 1 -68v-28q3 -15 3 -19v-70q5 -146 11 -238v1q5 -10 5 -27v-8l6 -26l4 -17l10 -42l4 -10h-1
q2 -1 4 -12v-1l1 -2v-10q0 -3 1 -3l8 -8q25 -35 76 -35q29 0 50.5 10.5t35 32.5t20.5 40.5t16 50.5q2 6 6 20.5t6 20.5q2 4 2 24v86q7 33 7 121q0 27 1 39q5 93 5 179q0 4 -0.5 11t-0.5 10v22q-1 10 -1 38h-25q-12 0 -12 15q0 13 12 18h30q47 0 47 -20q0 -11 -21 -18
q-2 -10 -2 -17v-25q0 -4 -0.5 -14.5t-0.5 -15.5q-2 -56 -2 -82q0 -8 2 -22q1 -6 1 -21q0 -9 -1 -14q0 -3 -1 -13t-1 -13q-2 -32 -2 -35l-1 -88q-3 -5 -3 -24v-23q-4 -22 -4 -31q0 -23 1 -34v-17q0 -3 0.5 -8.5t0.5 -7.5q0 -17 -9 -55l-7 -22v1q-19 -74 -50 -111.5t-98 -37.5
q-66 0 -97 37q-20 25 -32 88q-7 33 -15 93q-6 42 -10 62q-3 16 -3 49zM150 857q0 21 16 21q18 0 18 -20q0 -21 -17 -21t-17 20zM273 892q23 0 23 -21q0 -7 -4.5 -14t-11.5 -7q-6 0 -12.5 4.5t-6.5 8.5v22q0 7 12 7z" />
    <glyph glyph-name="Yacute" unicode="&#xdd;" horiz-adv-x="502" 
d="M211 -1q1 17 20 20q1 18 1 53q0 51 -3 100q0 14 -2 40q-2 40 -2 59q0 16 1 27q-1 6 -1 25q0 31 -4 63l-3 8l-39 90l-4 10q-1 4 -8 20q-5 15 -22 46l-20 40q-6 10 -13 29l-12 31q-9 20 -44 78h1l-3 5q1 -1 -9 4q-15 2 -15 16q0 15 26 15h10q1 0 2.5 -0.5t2.5 -0.5h4
q7 0 14 -5.5t7 -13.5l-4 -8q-2 -2 -2 -4l12 -23q16 -30 23 -45l13 -29q9 -22 31 -64l15 -33l9 -23q2 -4 7 -13t7 -14l6 -17l9 -22q13 -34 17 -38q14 23 25 48q2 2 4 11l4 7l10 20q60 123 96 191q5 10 8 13l7 10h-1q16 22 17 31l-2 4h1q-2 2 -2 6l2 8q1 2 5.5 5t5.5 3l44 -2
q8 -2 8 -11v-5q0 -3 -2 -6.5t-4 -6t-3 -2.5l-22 1q-5 0 -52 -97q-7 -9 -8 -13l-79 -157l-5 -7l1 1l-1 -2q-1 -1 -1 -2q-2 -8 -2 -11l-37 -75q0 -3 -0.5 -9t-0.5 -8q-1 -14 -1 -43t1 -42l1 -43l-1 -12q0 -48 3 -72l5 -136q19 -8 19 -18q-1 -20 -58 -20q-13 0 -13 15zM268 926
l24 -16l-64 -76l-18 22z" />
    <glyph glyph-name="germandbls" unicode="&#xdf;" horiz-adv-x="488" 
d="M30 8q0 8 11 17q4 -2 7 -2h8q2 0 3 1h3v19q0 22 -2 68q-1 20 -1 69v50l5 43v320q0 33 11 61q22 63 58 97.5t99 34.5q36 0 65.5 -29t29.5 -65q0 -26 -23 -74q-2 -2 -2 -4v-2l-1 -2q-20 -40 -20 -63q4 -33 11 -55q19 -38 60 -77l22 -22q49 -52 66 -92.5t17 -110.5
q0 -84 -37 -123t-122 -39q-20 0 -46.5 8t-26.5 24v3q0 51 22 51q13 0 13 -9v-32q0 -4 16 -11h32q65 0 91.5 30.5t26.5 96.5q0 71 -18 108q-19 40 -75 94q-27 24 -42.5 41.5t-29 48t-13.5 64.5t25 88l3 6l5 13q15 26 15 41q0 23 -21.5 41.5t-45.5 18.5q-51 0 -78 -28t-45 -82
v1q-12 -47 -12 -100v-284q-6 -28 -6 -71v-49q0 -51 6 -111h7q24 0 24 -18q0 -13 -12 -16q-1 0 -3 -0.5l-2 -0.5h-4q-16 -3 -45 -3h-8q-7 0 -12 3q-9 5 -9 14z" />
    <glyph glyph-name="agrave" unicode="&#xe0;" horiz-adv-x="403" 
d="M29 7q0 5 1 7q0 16 8 16l24 -2l-2 9v2q2 8 2 13q0 1 0.5 3.5t0.5 4.5l115 718q-6 0 -16 2l-15 3q-4 1 -8 6.5t-4 10.5v4q0 8 8 11q14 -2 22 -2q6 0 24 2h5q8 1 28 1q10 0 24 -2q20 -2 21 -18q0 -11 -9 -14h-6q-1 0 -4.5 -0.5t-5.5 -0.5h-16l-2 -1l138 -733v-4
q10 -10 11 -16v-4q0 -9 -9 -13q-2 0 -6 -0.5t-5 -0.5h-25q-12 0 -17 1q-4 0 -13 3q-7 4 -7 13q0 18 32 18l7 2q0 1 -0.5 2.5t-0.5 3.5l-32 186h-175q-5 -33 -16 -99.5t-16 -99.5q0 -1 -0.5 -2t-0.5 -2l1 -3h24q11 -2 11 -18q0 -19 -53 -19q-2 0 -5 0.5t-5 0.5h-14
q-6 3 -13 3l-3 3l-1 3zM204 749l-79 -483h162zM160 922l24 16l58 -70l-18 -22z" />
    <glyph glyph-name="aacute" unicode="&#xe1;" horiz-adv-x="403" 
d="M29 7q0 5 1 7q0 16 8 16l24 -2l-2 9v2q2 8 2 13q0 1 0.5 3.5t0.5 4.5l115 718q-6 0 -16 2l-15 3q-4 1 -8 6.5t-4 10.5v4q0 8 8 11q14 -2 22 -2q6 0 24 2h5q8 1 28 1q10 0 24 -2q20 -2 21 -18q0 -11 -9 -14h-6q-1 0 -4.5 -0.5t-5.5 -0.5h-16l-2 -1l138 -733v-4
q10 -10 11 -16v-4q0 -9 -9 -13q-2 0 -6 -0.5t-5 -0.5h-25q-12 0 -17 1q-4 0 -13 3q-7 4 -7 13q0 18 32 18l7 2q0 1 -0.5 2.5t-0.5 3.5l-32 186h-175q-5 -33 -16 -99.5t-16 -99.5q0 -1 -0.5 -2t-0.5 -2l1 -3h24q11 -2 11 -18q0 -19 -53 -19q-2 0 -5 0.5t-5 0.5h-14
q-6 3 -13 3l-3 3l-1 3zM204 749l-79 -483h162zM218 938l24 -16l-64 -76l-18 22z" />
    <glyph glyph-name="acircumflex" unicode="&#xe2;" horiz-adv-x="403" 
d="M29 7q0 5 1 7q0 16 8 16l24 -2l-2 9v2q2 8 2 13q0 1 0.5 3.5t0.5 4.5l115 718q-6 0 -16 2l-15 3q-4 1 -8 6.5t-4 10.5v4q0 8 8 11q14 -2 22 -2q6 0 24 2h5q8 1 28 1q10 0 24 -2q20 -2 21 -18q0 -11 -9 -14h-6q-1 0 -4.5 -0.5t-5.5 -0.5h-16l-2 -1l138 -733v-4
q10 -10 11 -16v-4q0 -9 -9 -13q-2 0 -6 -0.5t-5 -0.5h-25q-12 0 -17 1q-4 0 -13 3q-7 4 -7 13q0 18 32 18l7 2q0 1 -0.5 2.5t-0.5 3.5l-32 186h-175q-5 -33 -16 -99.5t-16 -99.5q0 -1 -0.5 -2t-0.5 -2l1 -3h24q11 -2 11 -18q0 -19 -53 -19q-2 0 -5 0.5t-5 0.5h-14
q-6 3 -13 3l-3 3l-1 3zM204 749l-79 -483h162zM100 861q3 13 27 37l52 72q0 2 2 4q14 20 25 20q12 0 16 -9l28 -43q5 -7 12 -14l5 -6q35 -35 35 -56v-9q-2 -6 -10 -6q-17 0 -35 34l-3 6l-38 47l-2 4q-3 9 -9 9q-9 -14 -12 -18l-11 -14q-31 -42 -61 -72l-3 -1q-6 0 -12 4.5
t-6 10.5z" />
    <glyph glyph-name="atilde" unicode="&#xe3;" horiz-adv-x="403" 
d="M29 7q0 5 1 7q0 16 8 16l24 -2l-2 9v2q2 8 2 13q0 1 0.5 3.5t0.5 4.5l115 718q-6 0 -16 2l-15 3q-4 1 -8 6.5t-4 10.5v4q0 8 8 11q14 -2 22 -2q6 0 24 2h5q8 1 28 1q10 0 24 -2q20 -2 21 -18q0 -11 -9 -14h-6q-1 0 -4.5 -0.5t-5.5 -0.5h-16l-2 -1l138 -733v-4
q10 -10 11 -16v-4q0 -9 -9 -13q-2 0 -6 -0.5t-5 -0.5h-25q-12 0 -17 1q-4 0 -13 3q-7 4 -7 13q0 18 32 18l7 2q0 1 -0.5 2.5t-0.5 3.5l-32 186h-175q-5 -33 -16 -99.5t-16 -99.5q0 -1 -0.5 -2t-0.5 -2l1 -3h24q11 -2 11 -18q0 -19 -53 -19q-2 0 -5 0.5t-5 0.5h-14
q-6 3 -13 3l-3 3l-1 3zM204 749l-79 -483h162zM184 903q-10 10 -32 10q-32 0 -37 -40q-3 -21 -13 -21q-16 0 -16 18q0 28 17 49t47 21q41 0 70 -42l5 -6q13 -15 23 -15q45 0 42 55q1 9 14 9t13 -9v-36q0 -16 -21 -31t-40 -15q-35 0 -46 16l-18 24z" />
    <glyph glyph-name="adieresis" unicode="&#xe4;" horiz-adv-x="403" 
d="M29 7q0 5 1 7q0 16 8 16l24 -2l-2 9v2q2 8 2 13q0 1 0.5 3.5t0.5 4.5l115 718q-6 0 -16 2l-15 3q-4 1 -8 6.5t-4 10.5v4q0 8 8 11q14 -2 22 -2q6 0 24 2h5q8 1 28 1q10 0 24 -2q20 -2 21 -18q0 -11 -9 -14h-6q-1 0 -4.5 -0.5t-5.5 -0.5h-16l-2 -1l138 -733v-4
q10 -10 11 -16v-4q0 -9 -9 -13q-2 0 -6 -0.5t-5 -0.5h-25q-12 0 -17 1q-4 0 -13 3q-7 4 -7 13q0 18 32 18l7 2q0 1 -0.5 2.5t-0.5 3.5l-32 186h-175q-5 -33 -16 -99.5t-16 -99.5q0 -1 -0.5 -2t-0.5 -2l1 -3h24q11 -2 11 -18q0 -19 -53 -19q-2 0 -5 0.5t-5 0.5h-14
q-6 3 -13 3l-3 3l-1 3zM204 749l-79 -483h162zM251 904q23 0 23 -21q0 -7 -4.5 -14t-11.5 -7q-6 0 -12.5 4.5t-6.5 8.5v22q0 7 12 7zM128 869q0 21 16 21q18 0 18 -20q0 -21 -17 -21t-17 20z" />
    <glyph glyph-name="aring" unicode="&#xe5;" horiz-adv-x="403" 
d="M132 819q0 43 23.5 68t55.5 25q29 0 50 -22t21 -63q0 -26 -15 -47t-38 -30l133 -703v-4q10 -10 11 -16v-4q0 -9 -9 -13q-2 0 -6 -0.5t-5 -0.5h-25q-12 0 -17 1q-4 0 -13 3q-7 4 -7 13q0 18 32 18l7 2q0 1 -0.5 2.5t-0.5 3.5l-32 186h-175q-5 -33 -16 -99.5t-16 -99.5
q0 -1 -0.5 -2t-0.5 -2l1 -3h24q11 -2 11 -18q0 -19 -53 -19q-2 0 -5 0.5t-5 0.5h-14q-6 3 -13 3q-1 1 -2.5 3.5t-3.5 4.5q0 5 1 7q0 16 8 16l24 -2l-2 9v2q2 8 2 13q0 1 0.5 3.5t0.5 4.5l110 692q-6 3 -7 4q-34 18 -34 63zM287 266l-84 480l-78 -480h162zM160 816
q0 -17 13.5 -28.5t30.5 -11.5q34 0 46 51v5q0 22 -13.5 35.5t-30.5 13.5q-19 0 -32.5 -16.5t-13.5 -48.5z" />
    <glyph glyph-name="ae" unicode="&#xe6;" horiz-adv-x="619" 
d="M29 -16v34h44q4 31 10 45v-1l56 264q13 88 26 144q0 3 2 9q0 1 1 4q1 2 1 3l14 56l3 23t2 22q3 21 8 32l5 11l9 41.5t10 49.5l4 10q1 2 1 4l3 7q2 7 5.5 21.5t5.5 21.5v6q0 19 11 23h65q52 0 79 -1q26 -1 85 -1h35l8 -8l2 -10l4 -17q0 -4 3 -22q0 -21 -19 -21h-4
q-8 0 -8 7q-1 16 -8 40h-27q-51 0 -76 1q-24 1 -71 1h-37l-3 -1v-25q4 -83 5 -87l47 -348v1l3 -9h3q2 -1 3 -1q7 -1 26 -1h16q43 0 64 1q4 0 11 0.5t10 0.5q4 0 12 2h2q2 1 4 1q10 2 18 2q16 0 26 -7v-8q0 -14 -7 -19h-9q-2 0 -6 0.5t-6 0.5q-24 0 -39 -3h-124l4 -51l11 -60
q20 -105 25 -135h62q52 0 85 2q5 0 11 2q4 1 11 1h2q0 5 2 17q0 14 3 23q2 16 17 16q18 0 18 -20q-5 -45 -5 -63q-3 -8 -18 -8q-5 0 -8 1h1q-8 2 -11 2q-12 0 -15 -3q-38 -3 -76 -3q-23 0 -65 -2q-3 0 -13 -4q-6 -3 -15 -3q-15 0 -17 27l-30 182v1q-1 1 -1 2t-1 4v3
q-3 21 -4 35l-4 33q-2 0 -4 1q-52 -4 -54 -4q-21 -1 -66 -5h-6q-11 0 -19 -2l-54 -251l19 -5q11 -2 11 -14q0 -18 -23 -18h-81zM164 309v-2q18 0 40 3l34 2h35q11 0 28 5l-1 4q0 10 -7 31l-5 45l-2 14q-4 20 -4 26q-1 3 -1 7q-1 2 -1 8q0 7 -2 20t-3 19q-8 52 -8 60v6
q-2 27 -9 82l-2 9q-2 6 -2 9q0 11 -5 46l-26 -104l-7 -21v1l-6 -30q0 -1 -0.5 -4.5t-0.5 -4.5q-9 -59 -21 -96v1z" />
    <glyph glyph-name="ccedilla" unicode="&#xe7;" horiz-adv-x="398" 
d="M126 -106q0 5 4.5 9.5t10.5 4.5t17 -13q16 -23 34 -23q16 0 36 16t20 31v36q0 10 -22.5 16.5t-39.5 6.5h-4q-10 7 -10 18q0 12 1 19q1 6 1 19q-8 4 -11 7l-46 39q-8 7 -14 20l-5 9q-1 3 -7 15q-4 4 -8 12l-23 62q-22 78 -29 180q-1 12 -1 40q0 46 5 91.5t19 96t35.5 88.5
t58 63t82.5 25q23 0 60 -37q18 -20 25 -31l19 36l22 -10l-44 -94l-26 12l14 27q-17 31 -46 57q-12 10 -20 10q-51 0 -79 -24t-49 -74q-49 -118 -49 -258v-20q1 -6 3 -19t2 -19q17 -130 48 -186l27 -48q42 -49 79 -49q25 0 49.5 17.5t35.5 40.5l4 7l8 22l5 16l-18 28l16 22
l52 -74l-18 -24l-10 14q-46 -99 -122 -99q-8 0 -13 1l-1 -20h1q1 -1 2 -1q39 -8 56 -22.5t17 -47.5q0 -34 -25.5 -61t-63.5 -27q-21 0 -43 14.5t-22 32.5z" />
    <glyph glyph-name="egrave" unicode="&#xe8;" horiz-adv-x="327" 
d="M234 40v6h-23q-8 0 -38 -2q-8 -1 -30 -1q-44 -2 -67 -2h-9l-12 11v346q-27 0 -27 16q0 17 13 17h14l15 330q-2 2 -2 5q0 4 2 12q2 6 2 10l115 1q36 -2 51 -2v13h32v-86h-32v43q-12 5 -31 5q-7 0 -41 -2q-15 -1 -32 -1q-13 0 -34 -3l-6 -163q-4 -109 -5 -162l137 -3v32h28
v-98h-28v32q-31 0 -51 1q-5 0 -18.5 0.5t-17.5 0.5h-50l-4 -27v-267l3 -27h146v65h30v-100h-30zM122 922l24 16l58 -70l-18 -22z" />
    <glyph glyph-name="eacute" unicode="&#xe9;" horiz-adv-x="327" 
d="M234 40v6h-23q-8 0 -38 -2q-8 -1 -30 -1q-44 -2 -67 -2h-9l-12 11v346q-27 0 -27 16q0 17 13 17h14l15 330q-2 2 -2 5q0 4 2 12q2 6 2 10l115 1q36 -2 51 -2v13h32v-86h-32v43q-12 5 -31 5q-7 0 -41 -2q-15 -1 -32 -1q-13 0 -34 -3l-6 -163q-4 -109 -5 -162l137 -3v32h28
v-98h-28v32q-31 0 -51 1q-5 0 -18.5 0.5t-17.5 0.5h-50l-4 -27v-267l3 -27h146v65h30v-100h-30zM180 938l24 -16l-64 -76l-18 22z" />
    <glyph glyph-name="ecircumflex" unicode="&#xea;" horiz-adv-x="327" 
d="M267 46h-56q-8 0 -38 -2q-8 -1 -30 -1q-44 -2 -67 -2h-9l-12 11v346q-27 0 -27 16q0 17 13 17h14l15 330q-2 2 -2 5q0 4 2 12q2 6 2 10l115 1q58 -2 74 -2l4 1q9 2 14 2q8 0 10 -6v-10q0 -11 -2 -27q0 -1 -0.5 -4t-0.5 -4q-2 -12 -2 -22l-6 -8h-7q-22 0 -24 45
q-18 8 -40 8q-7 0 -41 -2q-15 -1 -32 -1q-13 0 -34 -3l-6 -163q-4 -109 -5 -162l142 -3q18 0 18 -19q0 -15 -16 -15q-35 0 -58 1q-5 0 -18.5 0.5t-17.5 0.5h-50l-4 -27v-267l3 -27h152q7 0 12 1q4 0 8 2q2 4 2 12q0 32 18 32q15 0 15 -21q0 -1 -0.5 -3t-0.5 -3v-10
q3 -18 3 -30v-4q0 -13 -13 -13q-11 0 -17 8zM62 861q3 13 27 37l52 72q0 2 2 4q14 20 25 20q12 0 16 -9l28 -43l12 -14l5 -6q35 -35 35 -56v-9q-2 -6 -10 -6q-17 0 -35 34l-3 6l-38 47l-2 4q-3 9 -9 9q-9 -14 -12 -18l-11 -14q-31 -42 -61 -72l-3 -1q-6 0 -12 4.5t-6 10.5z
" />
    <glyph glyph-name="edieresis" unicode="&#xeb;" horiz-adv-x="327" 
d="M267 46h-56q-8 0 -38 -2q-8 -1 -30 -1q-44 -2 -67 -2h-9l-12 11v346q-27 0 -27 16q0 17 13 17h14l15 330q-2 2 -2 5q0 4 2 12q2 6 2 10l115 1q58 -2 74 -2l4 1q9 2 14 2q8 0 10 -6v-10q0 -11 -2 -27q0 -1 -0.5 -4t-0.5 -4q-2 -12 -2 -22l-6 -8h-7q-22 0 -24 45
q-18 8 -40 8q-7 0 -41 -2q-15 -1 -32 -1q-13 0 -34 -3l-6 -163q-4 -109 -5 -162l142 -3q18 0 18 -19q0 -15 -16 -15q-35 0 -58 1q-5 0 -18.5 0.5t-17.5 0.5h-50l-4 -27v-267l3 -27h152q7 0 12 1q4 0 8 2q2 4 2 12q0 32 18 32q15 0 15 -21q0 -1 -0.5 -3t-0.5 -3v-10
q3 -18 3 -30v-4q0 -13 -13 -13q-11 0 -17 8zM90 869q0 21 16 21q18 0 18 -20q0 -21 -17 -21t-17 20zM213 904q23 0 23 -21q0 -7 -4.5 -14t-11.5 -7q-6 0 -12.5 4.5t-6.5 8.5v22q0 7 12 7z" />
    <glyph glyph-name="igrave" unicode="&#xec;" horiz-adv-x="182" 
d="M38 0h-2q-10 2 -10 13q0 15 12 15l29 2v10q0 13 -1 18l22 526q0 43 2 75q0 3 0.5 12.5t0.5 12.5q2 30 2 49q0 1 -0.5 2t-0.5 2v8h-2q-3 -3 -5 -3t-5 3l-13 15q0 6 14 20h6q1 0 3 0.5t4 0.5q5 1 16 1q5 0 9 -2h23q12 0 12 -16q0 -5 -3.5 -10.5t-8.5 -5.5h-21l-4 -53
q0 -4 -1 -12t-1 -12q-5 -63 -5 -114v-27q0 -2 0.5 -4t0.5 -4l-10 -276v-18q0 -1 0.5 -3t0.5 -4q0 -35 -3 -68q0 -3 -0.5 -11t-0.5 -10q-2 -32 -2 -48v-56q0 1 4 1q19 -2 19 -18q0 -14 -18 -14h-8q-25 0 -55 3zM50 922l24 16l58 -70l-18 -22z" />
    <glyph glyph-name="iacute" unicode="&#xed;" horiz-adv-x="182" 
d="M38 0h-2q-10 2 -10 13q0 15 12 15l29 2v10q0 13 -1 18l22 526q0 43 2 75q0 3 0.5 12.5t0.5 12.5q2 30 2 49q0 1 -0.5 2t-0.5 2v8h-2q-3 -3 -5 -3t-5 3l-13 15q0 6 14 20h6q1 0 3 0.5t4 0.5q5 1 16 1q5 0 9 -2h23q12 0 12 -16q0 -5 -3.5 -10.5t-8.5 -5.5h-21l-4 -53
q0 -4 -1 -12t-1 -12q-5 -63 -5 -114v-27q0 -2 0.5 -4t0.5 -4l-10 -276v-18q0 -1 0.5 -3t0.5 -4q0 -35 -3 -68q0 -3 -0.5 -11t-0.5 -10q-2 -32 -2 -48v-56q0 1 4 1q19 -2 19 -18q0 -14 -18 -14h-8q-25 0 -55 3zM108 938l24 -16l-64 -76l-18 22z" />
    <glyph glyph-name="icircumflex" unicode="&#xee;" horiz-adv-x="182" 
d="M38 0h-2q-10 2 -10 13q0 15 12 15l29 2v10q0 13 -1 18l22 526q0 43 2 75q0 3 0.5 12.5t0.5 12.5q2 30 2 49q0 1 -0.5 2t-0.5 2v8h-2q-3 -3 -5 -3t-5 3l-13 15q0 6 14 20h6q1 0 3 0.5t4 0.5q5 1 16 1q5 0 9 -2h23q12 0 12 -16q0 -5 -3.5 -10.5t-8.5 -5.5h-21l-4 -53
q0 -4 -1 -12t-1 -12q-5 -63 -5 -114v-27q0 -2 0.5 -4t0.5 -4l-10 -276v-18q0 -1 0.5 -3t0.5 -4q0 -35 -3 -68q0 -3 -0.5 -11t-0.5 -10q-2 -32 -2 -48v-56q0 1 4 1q19 -2 19 -18q0 -14 -18 -14h-8q-25 0 -55 3zM-10 861q3 13 27 37l52 72q0 2 2 4q14 20 25 20q12 0 16 -9
l28 -43q5 -7 12 -14l5 -6q35 -35 35 -56v-9q-2 -6 -10 -6q-17 0 -35 34l-3 6l-38 47l-2 4q-3 9 -9 9q-9 -14 -12 -18l-11 -14q-31 -42 -61 -72l-3 -1q-6 0 -12 4.5t-6 10.5z" />
    <glyph glyph-name="idieresis" unicode="&#xef;" horiz-adv-x="182" 
d="M38 0h-2q-10 2 -10 13q0 15 12 15l29 2v10q0 13 -1 18l22 526q0 43 2 75q0 3 0.5 12.5t0.5 12.5q2 30 2 49q0 1 -0.5 2t-0.5 2v8h-2q-3 -3 -5 -3t-5 3l-13 15q0 6 14 20h6q1 0 3 0.5t4 0.5q5 1 16 1q5 0 9 -2h23q12 0 12 -16q0 -5 -3.5 -10.5t-8.5 -5.5h-21l-4 -53
q0 -4 -1 -12t-1 -12q-5 -63 -5 -114v-27q0 -2 0.5 -4t0.5 -4l-10 -276v-18q0 -1 0.5 -3t0.5 -4q0 -35 -3 -68q0 -3 -0.5 -11t-0.5 -10q-2 -32 -2 -48v-56q0 1 4 1q19 -2 19 -18q0 -14 -18 -14h-8q-25 0 -55 3zM18 869q0 21 16 21q18 0 18 -20q0 -21 -17 -21t-17 20zM141 904
q23 0 23 -21q0 -7 -4.5 -14t-11.5 -7q-6 0 -12.5 4.5t-6.5 8.5v22q0 7 12 7z" />
    <glyph glyph-name="ntilde" unicode="&#xf1;" horiz-adv-x="428" 
d="M28 33q0 14 9 14h12q0 2 0.5 5t0.5 4v26q0 16 -2 26q-5 116 -5 282q0 64 1 97q-3 23 -3 78v69q-5 17 -5 55v28v2q-1 2 -1 3q0 24 13 24q12 0 17 -16q1 -2 4 -5q13 -29 31 -78l8 -21q14 -37 32 -75l25 -56q12 -33 41 -94l14 -31q21 -45 26 -69q21 -54 31 -70q1 -4 7 -16
q23 -57 41 -83q2 36 2 53v22l15 277q0 9 2 25v6q3 39 3 76v47q0 4 -0.5 11.5t-0.5 11.5v21h-5h-1l-2 -1l-9 -1q-5 0 -9.5 4t-4.5 9t5 11t9 6h47q7 0 14.5 -5t7.5 -11q0 -11 -13 -13q-6 -3 -7 -4q0 -10 -1 -12q0 -1 -0.5 -5t-0.5 -5q-3 -41 -4 -103q0 -12 -1 -37t-1 -37
q0 -2 -0.5 -9t-0.5 -11v-10q-2 -48 -6 -97q-2 -20 -4 -58q-3 -69 -3 -149v-44q0 -4 0.5 -12t0.5 -12v-20q-4 -12 -12 -12q-11 0 -22 20t-15 35l-42.5 90.5l-39.5 83.5q-10 20 -18 44l-3 8l-15 39q-2 6 -8 18q-9 20 -19 49l-4 10l-12 27q-2 5 -19 39q-18 34 -25 51l-15 39
q-14 42 -25 64q0 -19 2 -33q4 -91 6 -276q2 -151 7 -275q0 -19 2 -28q12 -1 18 -4.5t6 -15.5t-8 -12h-56q-4 0 -8 6t-4 10zM190 839q-10 10 -32 10q-32 0 -37 -40q-3 -21 -13 -21q-16 0 -16 18q0 28 17 49t47 21q41 0 70 -42l5 -6q13 -15 23 -15q45 0 42 55q1 9 14 9t13 -9
v-36q0 -16 -21 -31t-40 -15q-35 0 -46 16l-18 24z" />
    <glyph glyph-name="ograve" unicode="&#xf2;" horiz-adv-x="421" 
d="M30 378q-1 12 -1 40q0 46 5 91.5t19 96t35.5 88.5t58 63t82.5 25q23 0 60 -37q27 -27 46.5 -69.5t27 -73.5t16.5 -82l5 -26q4 -23 6 -60l1 -17q0 -42 -2 -47l1 1l-13 -137q2 1 -2 -5q-1 -2 -1 -3t-0.5 -3t-0.5 -4q-11 -38 -20 -62t-28 -59.5t-46.5 -54t-61.5 -18.5
q-36 0 -55 16l-46 39q-8 7 -14 20l-5 9q-3 8 -8 15h1q-4 4 -8 12l-12 19l-11 43q-22 78 -29 180zM136 104h-1q44 -49 80 -49q25 0 49.5 17.5t35.5 40.5l4 7l8 22q1 3 2.5 6.5t2 6t1.5 5t2 3.5q3 9 3 11q22 42 26 74l4 48q0 15 1 20q0 3 0.5 11t0.5 11l1 3v-1q4 41 4 96
q-3 52 -11 85l-3 16q-9 46 -17 76t-28 68t-48 61q-12 10 -20 10q-51 0 -79 -24t-49 -74q-49 -118 -49 -258v-20q0 -6 2 -19t3 -19q17 -130 48 -186zM169 922l24 16l58 -70l-18 -22z" />
    <glyph glyph-name="oacute" unicode="&#xf3;" horiz-adv-x="421" 
d="M30 378q-1 12 -1 40q0 46 5 91.5t19 96t35.5 88.5t58 63t82.5 25q23 0 60 -37q27 -27 46.5 -69.5t27 -73.5t16.5 -82l5 -26q4 -23 6 -60l1 -17q0 -42 -2 -47l1 1l-13 -137q2 1 -2 -5q-1 -2 -1 -3t-0.5 -3t-0.5 -4q-11 -38 -20 -62t-28 -59.5t-46.5 -54t-61.5 -18.5
q-36 0 -55 16l-46 39q-8 7 -14 20l-5 9q-3 8 -8 15h1q-4 4 -8 12l-12 19l-11 43q-22 78 -29 180zM136 104h-1q44 -49 80 -49q25 0 49.5 17.5t35.5 40.5l4 7l8 22q1 3 2.5 6.5t2 6t1.5 5t2 3.5q3 9 3 11q22 42 26 74l4 48q0 15 1 20q0 3 0.5 11t0.5 11l1 3v-1q4 41 4 96
q-3 52 -11 85l-3 16q-9 46 -17 76t-28 68t-48 61q-12 10 -20 10q-51 0 -79 -24t-49 -74q-49 -118 -49 -258v-20q0 -6 2 -19t3 -19q17 -130 48 -186zM227 938l24 -16l-64 -76l-18 22z" />
    <glyph glyph-name="ocircumflex" unicode="&#xf4;" horiz-adv-x="421" 
d="M30 378q-1 12 -1 40q0 46 5 91.5t19 96t35.5 88.5t58 63t82.5 25q23 0 60 -37q27 -27 46.5 -69.5t27 -73.5t16.5 -82l5 -26q4 -23 6 -60l1 -17q0 -42 -2 -47l1 1l-13 -137q2 1 -2 -5q-1 -2 -1 -3t-0.5 -3t-0.5 -4q-11 -38 -20 -62t-28 -59.5t-46.5 -54t-61.5 -18.5
q-36 0 -55 16l-46 39q-8 7 -14 20l-5 9q-3 8 -8 15h1q-4 4 -8 12l-12 19l-11 43q-22 78 -29 180zM136 104h-1q44 -49 80 -49q25 0 49.5 17.5t35.5 40.5l4 7l8 22q1 3 2.5 6.5t2 6t1.5 5t2 3.5q3 9 3 11q22 42 26 74l4 48q0 15 1 20q0 3 0.5 11t0.5 11l1 3v-1q4 41 4 96
q-3 52 -11 85l-3 16q-9 46 -17 76t-28 68t-48 61q-12 10 -20 10q-51 0 -79 -24t-49 -74q-49 -118 -49 -258v-20q0 -6 2 -19t3 -19q17 -130 48 -186zM109 861q3 13 27 37l52 72q0 2 2 4q14 20 25 20t16 -9l28 -43l12 -14l5 -6q35 -35 35 -56v-9q-2 -6 -10 -6q-17 0 -35 34
l-3 6l-38 47l-2 4q-3 9 -9 9q-9 -14 -12 -18l-11 -14q-31 -42 -61 -72l-3 -1q-6 0 -12 4.5t-6 10.5z" />
    <glyph glyph-name="otilde" unicode="&#xf5;" horiz-adv-x="421" 
d="M30 378q-1 12 -1 40q0 46 5 91.5t19 96t35.5 88.5t58 63t82.5 25q23 0 60 -37q27 -27 46.5 -69.5t27 -73.5t16.5 -82l5 -26q4 -23 6 -60l1 -17q0 -42 -2 -47l1 1l-13 -137q2 1 -2 -5q-1 -2 -1 -3t-0.5 -3t-0.5 -4q-11 -38 -20 -62t-28 -59.5t-46.5 -54t-61.5 -18.5
q-36 0 -55 16l-46 39q-8 7 -14 20l-5 9q-3 8 -8 15h1q-4 4 -8 12l-12 19l-11 43q-22 78 -29 180zM136 104h-1q44 -49 80 -49q25 0 49.5 17.5t35.5 40.5l4 7l8 22q1 3 2.5 6.5t2 6t1.5 5t2 3.5q3 9 3 11q22 42 26 74l4 48q0 15 1 20q0 3 0.5 11t0.5 11l1 3v-1q4 41 4 96
q-3 52 -11 85l-3 16q-9 46 -17 76t-28 68t-48 61q-12 10 -20 10q-51 0 -79 -24t-49 -74q-49 -118 -49 -258v-20q0 -6 2 -19t3 -19q17 -130 48 -186zM193 903q-10 10 -32 10q-32 0 -37 -40q-3 -21 -13 -21q-16 0 -16 18q0 28 17 49t47 21q41 0 70 -42l5 -6q13 -15 23 -15
q45 0 42 55q1 9 14 9t13 -9v-36q0 -16 -21 -31t-40 -15q-35 0 -46 16l-18 24z" />
    <glyph glyph-name="odieresis" unicode="&#xf6;" horiz-adv-x="421" 
d="M30 378q-1 12 -1 40q0 46 5 91.5t19 96t35.5 88.5t58 63t82.5 25q23 0 60 -37q27 -27 46.5 -69.5t27 -73.5t16.5 -82l5 -26q4 -23 6 -60l1 -17q0 -42 -2 -47l1 1l-13 -137q2 1 -2 -5q-1 -2 -1 -3t-0.5 -3t-0.5 -4q-11 -38 -20 -62t-28 -59.5t-46.5 -54t-61.5 -18.5
q-36 0 -55 16l-46 39q-8 7 -14 20l-5 9q-3 8 -8 15h1q-4 4 -8 12l-12 19l-11 43q-22 78 -29 180zM136 104h-1q44 -49 80 -49q25 0 49.5 17.5t35.5 40.5l4 7l8 22q1 3 2.5 6.5t2 6t1.5 5t2 3.5q3 9 3 11q22 42 26 74l4 48q0 15 1 20q0 3 0.5 11t0.5 11l1 3v-1q4 41 4 96
q-3 52 -11 85l-3 16q-9 46 -17 76t-28 68t-48 61q-12 10 -20 10q-51 0 -79 -24t-49 -74q-49 -118 -49 -258v-20q0 -6 2 -19t3 -19q17 -130 48 -186zM137 869q0 21 16 21q18 0 18 -20q0 -21 -17 -21t-17 20zM260 904q23 0 23 -21q0 -7 -4.5 -14t-11.5 -7q-6 0 -12.5 4.5
t-6.5 8.5v22q0 7 12 7z" />
    <glyph glyph-name="oslash" unicode="&#xf8;" horiz-adv-x="434" 
d="M170 2q0 11 1 19q0 3 0.5 7t0.5 6v8q-3 0 -11 5l-7 4q-30 15 -35 20v-1q-6 4 -16 14.5t-11 13.5q-1 1 -4.5 5.5t-4.5 6.5l-9 16q-45 107 -45 267q0 106 51 252v1l1 2l13 22q0 2 2 5t3 4l23 40.5t26.5 32t40.5 28.5l5 2l8 2l9 -1l4 2h30q7 16 7 30q6 9 20 9q12 0 12 -15
q0 -7 -1 -11q-2 -10 -2 -15v-8q0 -1 0.5 -2.5t0.5 -2.5q33 -20 54 -56l5 -8q63 -98 63 -235q0 -176 -39 -314l-3 -8q-13 -28 -21.5 -42.5t-25 -33.5t-35.5 -28q-24 -12 -29 -12l-47 -3v-2v-2l-1 -2v-26q-4 -10 -18 -10q-15 0 -15 14zM62 295l13 -52q9 -39 17 -64.5t26 -54.5
t43 -42q2 -2 4 -2l4 -2q3 -3 5 -3q9 31 9 65q0 1 -0.5 5t-0.5 6v11l60 559v31q0 1 -35 1q-12 0 -26 -10.5t-20 -23.5l-47 -70l-4 1v-13l-1 -2q-23 -79 -33 -105l-3 -8q-2 -2 -5 -17.5t-3 -21.5q-1 -6 -5 -94v-7q0 -26 1 -36q1 -11 1 -51zM208 78v-12q4 -1 8 -1
q101 0 133 152q24 118 24 215q0 96 -18.5 169t-68.5 130l-10 4q-25 -233 -43 -344v-7q-10 -86 -14 -128q-1 -34 -5 -90z" />
    <glyph glyph-name="ugrave" unicode="&#xf9;" horiz-adv-x="435" 
d="M89 101q-29 78 -32 130l-12 196v28q0 77 3 150q4 102 4 152l-2 16q-22 5 -22 18q0 10 14 17h5q3 -3 6 -3h5q24 3 32 3q15 0 15 -19q0 -15 -14 -15h-6l-12 -303q2 -32 2 -64q1 -46 2 -73.5t5 -75.5t13.5 -78.5t24.5 -62.5t39.5 -48t57.5 -16h14q26 0 39 5q67 23 90 161
q15 106 15 219q0 110 -8 197l-10 100v9h-16q-10 0 -10 14q0 19 44 19h13q6 0 11.5 -4.5t5.5 -10.5q0 -14 -15 -20v-16q0 -15 2 -39l3 -40q4 -86 5 -87l5 -37v-174q0 -16 -15 -133q-29 -193 -173 -193q-83 0 -128 78zM176 922l24 16l58 -70l-18 -22z" />
    <glyph glyph-name="uacute" unicode="&#xfa;" horiz-adv-x="435" 
d="M89 101q-29 78 -32 130l-12 196v28q0 77 3 150q4 102 4 152l-2 16q-22 5 -22 18q0 10 14 17h5q3 -3 6 -3h5q24 3 32 3q15 0 15 -19q0 -15 -14 -15h-6l-12 -303q2 -32 2 -64q1 -46 2 -73.5t5 -75.5t13.5 -78.5t24.5 -62.5t39.5 -48t57.5 -16h14q26 0 39 5q67 23 90 161
q15 106 15 219q0 110 -8 197l-10 100v9h-16q-10 0 -10 14q0 19 44 19h13q6 0 11.5 -4.5t5.5 -10.5q0 -14 -15 -20v-16q0 -15 2 -39l3 -40q4 -86 5 -87l5 -37v-174q0 -16 -15 -133q-29 -193 -173 -193q-83 0 -128 78zM234 938l24 -16l-64 -76l-18 22z" />
    <glyph glyph-name="ucircumflex" unicode="&#xfb;" horiz-adv-x="435" 
d="M89 101q-29 78 -32 130l-12 196v28q0 77 3 150q4 102 4 152l-2 16q-22 5 -22 18q0 10 14 17h5q3 -3 6 -3h5q24 3 32 3q15 0 15 -19q0 -15 -14 -15h-6l-12 -303q2 -32 2 -64q1 -46 2 -73.5t5 -75.5t13.5 -78.5t24.5 -62.5t39.5 -48t57.5 -16h14q26 0 39 5q67 23 90 161
q15 106 15 219q0 110 -8 197l-10 100v9h-16q-10 0 -10 14q0 19 44 19h13q6 0 11.5 -4.5t5.5 -10.5q0 -14 -15 -20v-16q0 -15 2 -39l3 -40q4 -86 5 -87l5 -37v-174q0 -16 -15 -133q-29 -193 -173 -193q-83 0 -128 78zM116 861q3 13 27 37l52 72q0 2 2 4q14 20 25 20
q12 0 16 -9l28 -43l12 -14l5 -6q35 -35 35 -56v-9q-2 -6 -10 -6q-17 0 -35 34l-3 6l-38 47l-2 4q-3 9 -9 9q-9 -14 -12 -18l-11 -14q-31 -42 -61 -72l-3 -1q-6 0 -12 4.5t-6 10.5z" />
    <glyph glyph-name="udieresis" unicode="&#xfc;" horiz-adv-x="435" 
d="M89 101q-29 78 -32 130l-12 196v28q0 77 3 150q4 102 4 152l-2 16q-22 5 -22 18q0 10 14 17h5q3 -3 6 -3h5q24 3 32 3q15 0 15 -19q0 -15 -14 -15h-6l-12 -303q2 -32 2 -64q1 -46 2 -73.5t5 -75.5t13.5 -78.5t24.5 -62.5t39.5 -48t57.5 -16h14q26 0 39 5q67 23 90 161
q15 106 15 219q0 110 -8 197l-10 100v9h-16q-10 0 -10 14q0 19 44 19h13q6 0 11.5 -4.5t5.5 -10.5q0 -14 -15 -20v-16q0 -15 2 -39l3 -40q4 -86 5 -87l5 -37v-174q0 -16 -15 -133q-29 -193 -173 -193q-83 0 -128 78zM144 869q0 21 16 21q18 0 18 -20q0 -21 -17 -21t-17 20z
M267 904q23 0 23 -21q0 -7 -4.5 -14t-11.5 -7q-6 0 -12.5 4.5t-6.5 8.5v22q0 7 12 7z" />
    <glyph glyph-name="yacute" unicode="&#xfd;" horiz-adv-x="525" 
d="M183 -6q0 16 30 16l1 1v2v1l1 2q0 1 0.5 3.5t0.5 3.5q3 10 3 20q0 1 -2 7q-1 3 -1 12q0 86 1 128q2 80 2 131v26q0 6 -0.5 16t-0.5 14v9l-2 12l-22 55l-8 27q-60 150 -98 223l-6 16q-3 7 -4 9l-10 22q-40 3 -40 25q0 12 15 12h6q24 0 36 -1q1 0 6.5 -0.5t8.5 -0.5
q23 -2 23 -20q0 -11 -18 -16q7 -17 13 -27l13 -28q23 -46 31 -66q9 -19 20 -52l12 -34q22 -64 43 -109q0 -3 2 -5q6 11 41 69l12 19q32 54 44 78l10 22q18 40 22 47q8 18 18 30q35 58 40 84l-3 4q-7 5 -8 13q0 2 10 12h19l4 2h-1q2 1 5 1q5 0 23 -10.5t18 -15.5
q0 -9 -12 -17h-5q-2 0 -4.5 0.5t-3.5 0.5q-12 0 -16 -4h1q-9 -27 -30 -69l-5 -7q-17 -27 -39 -75l-9 -18l-18 -35q-15 -26 -34 -56l-34 -57.5t-23.5 -53.5t-12.5 -62v-316q12 -2 18 -7v-6l1 -2q0 -18 -10 -19q-27 -3 -47 -3q-27 0 -27 17zM279 938l24 -16l-64 -76l-18 22z
" />
    <glyph glyph-name="ydieresis" unicode="&#xff;" horiz-adv-x="525" 
d="M183 -6q0 16 30 16l1 1v2v1l1 2q0 1 0.5 3.5t0.5 3.5q3 10 3 20q0 1 -2 7q-1 3 -1 12q0 86 1 128q2 80 2 131v26q0 6 -0.5 16t-0.5 14v9l-2 12l-22 55l-8 27q-60 150 -98 223l-6 16q-3 7 -4 9l-10 22q-40 3 -40 25q0 12 15 12h6q24 0 36 -1q1 0 6.5 -0.5t8.5 -0.5
q23 -2 23 -20q0 -11 -18 -16q7 -17 13 -27l13 -28q23 -46 31 -66q9 -19 20 -52l12 -34q22 -64 43 -109q0 -3 2 -5q6 11 41 69l12 19q32 54 44 78l10 22q18 40 22 47q8 18 18 30q35 58 40 84l-3 4q-7 5 -8 13q0 2 10 12h19l4 2h-1q2 1 5 1q5 0 23 -10.5t18 -15.5
q0 -9 -12 -17h-5q-2 0 -4.5 0.5t-3.5 0.5q-12 0 -16 -4h1q-9 -27 -30 -69l-5 -7q-17 -27 -39 -75l-9 -18l-18 -35q-15 -26 -34 -56l-34 -57.5t-23.5 -53.5t-12.5 -62v-316q12 -2 18 -7v-6l1 -2q0 -18 -10 -19q-27 -3 -47 -3q-27 0 -27 17zM189 869q0 21 16 21q18 0 18 -20
q0 -21 -17 -21t-17 20zM312 904q23 0 23 -21q0 -7 -4.5 -14t-11.5 -7q-6 0 -12.5 4.5t-6.5 8.5v22q0 7 12 7z" />
    <glyph glyph-name="OE" unicode="&#x152;" horiz-adv-x="605" 
d="M331 56q-36 -14 -79 -14q-69 0 -131 65q-5 9 -9 15q-4 11 -7 14q0 3 -16 19q-22 31 -47 114l-3 24q-3 12 -3 28v2q-6 38 -6 59q0 66 13 166q0 1 0.5 2.5t0.5 2.5l17 41l6 17l5 11l6 15q16 30 74 83l22 20l38 21l6 5h2q1 1 3 1l9 2q65 13 80 13q1 0 3 -0.5t4 -0.5
q7 3 17 3q6 0 18 -2q6 -1 17 -1q18 0 50 2q34 2 92 2h6q19 0 25 -8q0 -14 1 -23q0 -15 2 -23q0 -6 -5 -11t-11 -5q-14 0 -16 15v4q0 1 -0.5 4t-0.5 5q-1 1 -1 7q0 2 -0.5 3.5t-0.5 2.5h-2q-3 1 -5 1q-4 0 -22.5 -0.5t-30.5 -0.5h-50q-17 -1 -60 -1q0 -34 1 -51v-28
q0 -5 0.5 -14.5t0.5 -13.5q0 -20 -2 -54q-1 -16 -1 -53v-52q0 -3 0.5 -9.5t0.5 -10.5q2 -20 2 -31q0 -1 -0.5 -3.5t-0.5 -3.5q10 -1 59 -1q8 0 18 2q3 1 15 1q10 0 11.5 -1.5t1.5 -11.5q0 -15 -9 -17q-4 -2 -22 -2q-16 -1 -67 -1h-6v-13q0 -2 0.5 -6.5t0.5 -6.5
q0 -37 -4 -60v-77q0 -93 3 -148q23 -1 51 -7h150v48q0 6 14 10q10 0 14 -7q2 -12 2 -37v-18q0 -4 -2 -18l-8 -8h-22q-17 0 -49 2q-3 0 -12.5 0.5t-12.5 0.5q-44 2 -109 2q-20 0 -29 -1zM181 95q36 -18 75 -18q33 0 59 10v13q0 13 -0.5 39.5t-0.5 41.5q-2 58 -2 86v10
q0 9 1 14q0 10 2 16v383l-3 38v4l-2 15h-4q-77 0 -139 -51q-107 -106 -107 -306v-46q8 -42 19 -82q8 -8 15 -34l4 -13q12 -31 36 -66.5t47 -53.5z" />
    <glyph glyph-name="oe" unicode="&#x153;" horiz-adv-x="513" 
d="M453 34h-56q-8 0 -38 -2q-8 -1 -30 -1q-44 -2 -67 -2l-11 1q-13 -5 -33 -5q-36 0 -55 16l-46 39q-8 7 -14 20l-5 9q-1 3 -7 15q-4 4 -8 12l-12 19l-11 43q-22 78 -29 180q-1 12 -1 40q0 46 5 91.5t19 96t35.5 88.5t58 63t82.5 25q1 0 28 -6l115 1h5q54 -2 69 -2l4 1
q9 2 14 2q8 0 10 -6v-10q0 -11 -2 -27q0 -1 -0.5 -4t-0.5 -4q-2 -12 -2 -22l-6 -8h-7q-22 0 -24 45q-18 8 -40 8q-7 0 -41 -2q-15 -1 -32 -1q-13 0 -34 -3l-6 -163v-5q-4 -104 -5 -157l142 -3q18 0 18 -19q0 -15 -16 -15q-35 0 -58 1q-5 0 -18.5 0.5t-17.5 0.5h-50l-4 -27
v-267l3 -27h152q7 0 12 1q4 0 8 2q2 4 2 12q0 32 18 32q15 0 15 -21q0 -1 -0.5 -3t-0.5 -3v-10q3 -18 3 -30v-4q0 -13 -13 -13q-11 0 -17 8zM137 104q42 -49 79 -49q14 0 25 4l13 683q-12 10 -20 10q-51 0 -79 -24t-49 -74q-49 -118 -49 -258v-20q1 -6 3 -19t2 -19
q17 -130 48 -186z" />
    <glyph glyph-name="Ydieresis" unicode="&#x178;" horiz-adv-x="502" 
d="M211 -1q1 17 20 20q1 18 1 53q0 51 -3 100q0 14 -2 40q-2 40 -2 59q0 16 1 27q-1 6 -1 25q0 31 -4 63l-3 8l-39 90l-4 10q-1 4 -8 20q-5 15 -22 46l-20 40q-6 10 -13 29l-12 31q-9 20 -44 78h1l-3 5q1 -1 -9 4q-15 2 -15 16q0 15 26 15h10q1 0 2.5 -0.5t2.5 -0.5h4
q7 0 14 -5.5t7 -13.5l-4 -8q-2 -2 -2 -4l12 -23q16 -30 23 -45l13 -29q9 -22 31 -64l15 -33l9 -23q2 -4 7 -13t7 -14l6 -17l9 -22q13 -34 17 -38q14 23 25 48q2 2 4 11l4 7l10 20q60 123 96 191q5 10 8 13l7 10h-1q16 22 17 31l-2 4h1q-2 2 -2 6l2 8q1 2 5.5 5t5.5 3l44 -2
q8 -2 8 -11v-5q0 -3 -2 -6.5t-4 -6t-3 -2.5l-22 1q-5 0 -52 -97q-7 -9 -8 -13l-79 -157l-5 -7l1 1l-1 -2q-1 -1 -1 -2q-2 -8 -2 -11l-37 -75q0 -3 -0.5 -9t-0.5 -8q-1 -14 -1 -43t1 -42l1 -43l-1 -12q0 -48 3 -72l5 -136q19 -8 19 -18q-1 -20 -58 -20q-13 0 -13 15zM301 892
q23 0 23 -21q0 -7 -4.5 -14t-11.5 -7q-6 0 -12.5 4.5t-6.5 8.5v22q0 7 12 7zM178 857q0 21 16 21q18 0 18 -20q0 -21 -17 -21t-17 20z" />
    <glyph glyph-name="quoteleft" unicode="&#x2018;" horiz-adv-x="97" 
d="M30 608q0 19 1 28l-1 153q2 17 20 17q16 0 16 -17v-7v-5.5t-0.5 -12t-0.5 -17.5q0 -43 2 -145q-8 -10 -18 -10q-8 0 -13.5 4.5t-5.5 11.5z" />
    <glyph glyph-name="quoteright" unicode="&#x2019;" horiz-adv-x="97" 
d="M30 608q0 19 1 28l-1 153q2 17 20 17q16 0 16 -17v-7v-5.5t-0.5 -12t-0.5 -17.5q0 -43 2 -145q-8 -10 -18 -10q-8 0 -13.5 4.5t-5.5 11.5z" />
    <glyph glyph-name="quotesinglbase" unicode="&#x201a;" horiz-adv-x="97" 
d="M30 -38q0 19 1 28l-1 153q2 17 20 17q16 0 16 -17v-7v-5.5t-0.5 -12t-0.5 -17.5q0 -43 2 -145q-7 -10 -18 -10q-8 0 -13.5 4.5t-5.5 11.5z" />
    <glyph glyph-name="quotedblleft" unicode="&#x201c;" horiz-adv-x="168" 
d="M28 608q0 19 1 28q3 10 3 24q0 22 -3 45q-1 16 -1 47v37q2 17 20 17q16 0 16 -17v-4q0 -1 -0.5 -4t-0.5 -5l-7 -14h4q6 -42 6 -95l-1 -65q-7 -10 -18 -10q-8 0 -13.5 4.5t-5.5 11.5zM102 794l2 10h15q12 0 14 -8q0 -8 1 -14q0 -5 1 -8q0 -1 1 -3v-2v-118q3 -15 3 -30
q0 -16 -17 -16q-12 0 -15 5.5t-3 18.5v15q0 5 -0.5 23.5t-0.5 29.5q0 10 -0.5 28t-0.5 24v45z" />
    <glyph glyph-name="quotedblright" unicode="&#x201d;" horiz-adv-x="168" 
d="M28 608q0 19 1 28q3 10 3 24q0 22 -3 45q-1 16 -1 47v37q2 17 20 17q16 0 16 -17v-4q0 -1 -0.5 -4t-0.5 -5l-7 -14h4q6 -42 6 -95l-1 -65q-7 -10 -18 -10q-8 0 -13.5 4.5t-5.5 11.5zM102 794l2 10h15q12 0 14 -8q0 -8 1 -14q0 -5 1 -8q0 -1 1 -3v-2v-118q3 -15 3 -30
q0 -16 -17 -16q-12 0 -15 5.5t-3 18.5v15q0 5 -0.5 23.5t-0.5 29.5q0 10 -0.5 28t-0.5 24v45z" />
    <glyph glyph-name="quotedblbase" unicode="&#x201e;" horiz-adv-x="171" 
d="M30 -48q0 19 1 28q3 10 3 24q0 22 -3 45q-1 16 -1 47v37q2 17 20 17q16 0 16 -17v-7v-5.5t-0.5 -12t-0.5 -17.5q0 -43 3 -80l-1 -65q-7 -10 -18 -10q-8 0 -13.5 4.5t-5.5 11.5zM104 138l2 10h15q12 0 14 -8q0 -8 1 -14q0 -5 1 -8q0 -1 1 -3v-2v-118q3 -15 3 -30
q0 -16 -17 -16q-12 0 -15 5.5t-3 18.5v15q0 5 -0.5 23.5t-0.5 29.5q0 10 -0.5 28t-0.5 24v45z" />
    <glyph glyph-name="guilsinglleft" unicode="&#x2039;" horiz-adv-x="269" 
d="M121 238l-56 79h1l-30 30q-8 8 -8 16v7l26 39q33 54 44 66q4 6 17.5 23.5t19.5 27.5q46 61 75 103q4 8 15 8q15 0 15 -21q0 -7 -31 -48q-46 -58 -135 -188q-8 -8 -8 -16q21 -20 52 -62l8 -12l4 -7l22 -31h-1l13 -15q11 -15 28 -35l9 -10l10 -9h-1l30 -34v-8
q0 -7 -4.5 -13.5t-10.5 -6.5q-4 0 -22 18l-67 82h1z" />
    <glyph glyph-name="guilsinglright" unicode="&#x203a;" horiz-adv-x="269" 
d="M203 317l-56 -79l-17 -17h1l-68 -84q-16 -16 -20 -16q-6 0 -10.5 6.5t-4.5 13.5v8l30 34h-1l19 19q14 16 28 35l13 15h-1l21 31l5 7l8 12q31 42 52 62q0 8 -8 16q-89 130 -135 188q-31 41 -31 48q0 21 15 21q7 0 15 -8l74 -103l38 -51q11 -12 44 -66h-1l8 -9l19 -30v-7
q0 -8 -8 -16l-30 -30h1z" />
    <glyph glyph-name="Euro" unicode="&#x20ac;" horiz-adv-x="470" 
d="M44 400h58v18q0 44 4 84l-72 -2l-4 34l81 2q7 49 20.5 90t36 77.5t57 57.5t77.5 21q23 0 60 -37q18 -20 25 -31l19 36l22 -10l-44 -94l-26 12l14 27q-17 31 -46 57q-12 10 -20 10q-51 0 -79 -24t-49 -74q-23 -55 -35 -117l199 5v-32l-205 -7q-8 -56 -8 -103h143l-10 -32
l-133 2q4 -18 5 -32q17 -130 48 -186l27 -48q42 -49 79 -49q25 0 49.5 17.5t35.5 40.5l4 7l8 22l5 16l-18 28l16 22l52 -74l-18 -24l-10 14q-46 -99 -122 -99q-36 0 -55 16l-46 39q-8 7 -14 20l-5 9q-1 3 -7 15q-4 4 -8 12l-23 62q-22 75 -29 173l-55 1z" />
    </font>
</defs>
</svg>
